<?xml version="1.0" encoding="utf-8"?>
<svg version="1.1" xmlns:xlink="http://www.w3.org/1999/xlink" width="26px" height="15px" xmlns="http://www.w3.org/2000/svg">
  <g transform="matrix(1 0 0 1 -225 -808 )">
    <path d="M 25.739478957915832 1.546391752577319  C 25.913159652638612 1.7182130584192397  26 1.9158075601374551  26 2.1391752577319596  C 26 2.3625429553264587  25.913159652638612 2.560137457044671  25.739478957915832 2.731958762886598  L 13.599198396793586 14.742268041237113  C 13.42551770207081 14.914089347079033  13.225784903139614 15  13 15  C 12.77421509686039 15  12.574482297929194 14.914089347079033  12.400801603206412 14.742268041237113  L 0.2605210420841683 2.731958762886598  C 0.0868403473613897 2.560137457044671  0 2.3625429553264587  0 2.1391752577319596  C 0 1.9158075601374551  0.0868403473613897 1.7182130584192397  0.2605210420841683 1.546391752577319  L 1.56312625250501 0.25773195876288735  C 1.7368069472277894 0.08591065292096023  1.9365397461589848 0  2.162324649298597 0  C 2.3881095524382103 0  2.5878423513694058 0.08591065292096023  2.7615230460921842 0.25773195876288735  L 13 10.38659793814433  L 23.238476953907817 0.25773195876288735  C 23.412157648630597 0.08591065292096023  23.61189044756179 0  23.837675350701403 0  C 24.06346025384102 0  24.263193052772213 0.08591065292096023  24.436873747494992 0.25773195876288735  L 25.739478957915832 1.546391752577319  Z " fill-rule="nonzero" fill="#e50915" stroke="none" transform="matrix(1 0 0 1 225 808 )" />
  </g>
</svg>