<?xml version="1.0" encoding="utf-8"?>
<svg version="1.1" xmlns:xlink="http://www.w3.org/1999/xlink" width="8px" height="15px" xmlns="http://www.w3.org/2000/svg">
  <g transform="matrix(1 0 0 1 -991 -120 )">
    <path d="M 7.736111111111111 6.8408203125  C 7.912037037037038 7.026367187499999  8 7.246093749999999  8 7.5  C 8 7.753906249999999  7.912037037037038 7.973632812499999  7.736111111111111 8.1591796875  L 1.5138888888888888 14.7216796875  C 1.337962962962963 14.907226562500002  1.1296296296296298 15  0.8888888888888888 15  C 0.6481481481481483 15  0.4398148148148148 14.907226562500002  0.2638888888888889 14.7216796875  C 0.08796296296296297 14.536132812499998  0 14.316406249999998  0 14.0625  L 0 0.9375  C 0 0.6835937499999978  0.08796296296296297 0.4638671874999978  0.2638888888888889 0.2783203125  C 0.4398148148148148 0.09277343749999889  0.6481481481481483 0  0.8888888888888888 0  C 1.1296296296296298 0  1.337962962962963 0.09277343749999889  1.5138888888888888 0.2783203125  L 7.736111111111111 6.8408203125  Z " fill-rule="nonzero" fill="#ffffff" stroke="none" transform="matrix(1 0 0 1 991 120 )" />
  </g>
</svg>