<?xml version="1.0" encoding="utf-8"?>
<svg version="1.1" xmlns:xlink="http://www.w3.org/1999/xlink" width="164px" height="54px" xmlns="http://www.w3.org/2000/svg">
  <g transform="matrix(1 0 0 1 -24 -298 )">
    <path d="M 25 303  A 4 4 0 0 1 29 299 L 183 299  A 4 4 0 0 1 187 303 L 187 347  A 4 4 0 0 1 183 351 L 29 351  A 4 4 0 0 1 25 347 L 25 303  Z " fill-rule="nonzero" fill="#333333" stroke="none" />
    <path d="M 24.5 303  A 4.5 4.5 0 0 1 29 298.5 L 183 298.5  A 4.5 4.5 0 0 1 187.5 303 L 187.5 347  A 4.5 4.5 0 0 1 183 351.5 L 29 351.5  A 4.5 4.5 0 0 1 24.5 347 L 24.5 303  Z " stroke-width="1" stroke-dasharray="1,1" stroke="#f2f2f2" fill="none" stroke-dashoffset="0.5" />
  </g>
</svg>