<?xml version="1.0" encoding="utf-8"?>
<svg version="1.1" xmlns:xlink="http://www.w3.org/1999/xlink" width="12px" height="12px" viewBox="151 1200.5  12 12" xmlns="http://www.w3.org/2000/svg">
  <path d="M 157 1200.5  C 160.36 1200.5  163 1203.14  163 1206.5  C 163 1209.86  160.36 1212.5  157 1212.5  C 153.64 1212.5  151 1209.86  151 1206.5  C 151 1203.14  153.64 1200.5  157 1200.5  Z " fill-rule="nonzero" fill="#ffffff" stroke="none" />
  <path d="M 157 1201  C 160.08 1201  162.5 1203.42  162.5 1206.5  C 162.5 1209.58  160.08 1212  157 1212  C 153.92 1212  151.5 1209.58  151.5 1206.5  C 151.5 1203.42  153.92 1201  157 1201  Z " stroke-width="1" stroke="#797979" fill="none" />
  <path d="M 157 1209.5  C 155.32 1209.5  154 1208.18  154 1206.5  C 154 1204.82  155.32 1203.5  157 1203.5  C 158.68 1203.5  160 1204.82  160 1206.5  C 160 1208.18  158.68 1209.5  157 1209.5  " fill-rule="nonzero" fill="#797979" stroke="none" />
</svg>