<?xml version="1.0" encoding="utf-8"?>
<svg version="1.1" xmlns:xlink="http://www.w3.org/1999/xlink" width="12px" height="12px" viewBox="151 1220.5  12 12" xmlns="http://www.w3.org/2000/svg">
  <path d="M 157 1220.5  C 160.36 1220.5  163 1223.14  163 1226.5  C 163 1229.86  160.36 1232.5  157 1232.5  C 153.64 1232.5  151 1229.86  151 1226.5  C 151 1223.14  153.64 1220.5  157 1220.5  Z " fill-rule="nonzero" fill="#f0f0f0" stroke="none" />
  <path d="M 157 1221  C 160.08 1221  162.5 1223.42  162.5 1226.5  C 162.5 1229.58  160.08 1232  157 1232  C 153.92 1232  151.5 1229.58  151.5 1226.5  C 151.5 1223.42  153.92 1221  157 1221  Z " stroke-width="1" stroke="#797979" fill="none" />
  <path d="M 157 1229.5  C 155.32 1229.5  154 1228.18  154 1226.5  C 154 1224.82  155.32 1223.5  157 1223.5  C 158.68 1223.5  160 1224.82  160 1226.5  C 160 1228.18  158.68 1229.5  157 1229.5  " fill-rule="nonzero" fill="#797979" stroke="none" />
</svg>