<?xml version="1.0" encoding="utf-8"?>
<svg version="1.1" xmlns:xlink="http://www.w3.org/1999/xlink" width="30px" height="30px" xmlns="http://www.w3.org/2000/svg">
  <g transform="matrix(1 0 0 1 -125 -3 )">
    <path d="M 140 5  C 147.28 5  153 10.719999999999999  153 18  C 153 25.28  147.28 31  140 31  C 132.72 31  127 25.28  127 18  C 127 10.719999999999999  132.72 5  140 5  Z " fill-rule="nonzero" fill="#ffffff" stroke="none" fill-opacity="0" />
    <path d="M 140 4.5  C 147.56 4.5  153.5 10.44  153.5 18  C 153.5 25.560000000000002  147.56 31.5  140 31.5  C 132.44 31.5  126.5 25.560000000000002  126.5 18  C 126.5 10.44  132.44 4.5  140 4.5  Z " stroke-width="3" stroke="#a30014" fill="none" />
  </g>
</svg>