<?xml version="1.0" encoding="utf-8"?>
<svg version="1.1" xmlns:xlink="http://www.w3.org/1999/xlink" width="30px" height="30px" xmlns="http://www.w3.org/2000/svg">
  <g transform="matrix(1 0 0 1 -125 -12 )">
    <path d="M 140 14  C 147.28 14  153 19.72  153 27  C 153 34.28  147.28 40  140 40  C 132.72 40  127 34.28  127 27  C 127 19.72  132.72 14  140 14  Z " fill-rule="nonzero" fill="#ffffff" stroke="none" fill-opacity="0" />
    <path d="M 140 13.5  C 147.56 13.5  153.5 19.439999999999998  153.5 27  C 153.5 34.56  147.56 40.5  140 40.5  C 132.44 40.5  126.5 34.56  126.5 27  C 126.5 19.439999999999998  132.44 13.5  140 13.5  Z " stroke-width="3" stroke="#ec808d" fill="none" />
  </g>
</svg>