<?xml version="1.0" encoding="utf-8"?>
<svg version="1.1" xmlns:xlink="http://www.w3.org/1999/xlink" width="16px" height="16px" xmlns="http://www.w3.org/2000/svg">
  <g transform="matrix(1 0 0 1 -7 -4 )">
    <path d="M 13.1875 8.458333333333332  C 13.3125 8.333333333333332  13.375 8.177083333333332  13.375 7.989583333333334  C 13.375 7.802083333333334  13.3125 7.645833333333334  13.1875 7.520833333333334  L 9.416666666666666 3.75  L 8.46875 2.802083333333334  C 8.343750000000002 2.677083333333334  8.187500000000002 2.614583333333334  8 2.614583333333334  C 7.8125 2.614583333333334  7.65625 2.677083333333334  7.53125 2.802083333333334  L 6.583333333333333 3.75  L 2.8125 7.520833333333334  C 2.6875 7.645833333333334  2.6250000000000004 7.802083333333334  2.625 7.989583333333334  C 2.6250000000000004 8.177083333333332  2.6875 8.333333333333332  2.8125 8.458333333333332  L 3.7604166666666665 9.40625  C 3.8854166666666665 9.53125  4.041666666666667 9.59375  4.229166666666667 9.59375  C 4.416666666666667 9.59375  4.572916666666667 9.53125  4.697916666666667 9.40625  L 6.666666666666667 7.4375  L 6.666666666666667 12.666666666666666  C 6.666666666666667 12.847222222222221  6.732638888888889 13.003472222222221  6.864583333333333 13.135416666666666  C 6.996527777777779 13.267361111111112  7.152777777777779 13.333333333333334  7.333333333333333 13.333333333333334  L 8.666666666666666 13.333333333333334  C 8.847222222222223 13.333333333333334  9.003472222222223 13.267361111111112  9.135416666666666 13.135416666666666  C 9.267361111111112 13.003472222222221  9.333333333333334 12.847222222222221  9.333333333333334 12.666666666666666  L 9.333333333333334 7.4375  L 11.302083333333334 9.40625  C 11.434027777777779 9.538194444444443  11.590277777777779 9.604166666666668  11.770833333333334 9.604166666666668  C 11.951388888888891 9.604166666666668  12.107638888888891 9.538194444444443  12.239583333333334 9.40625  L 13.1875 8.458333333333332  Z M 14.927083333333334 3.984375  C 15.642361111111109 5.210069444444443  16 6.548611111111109  16 8  C 16 9.45138888888889  15.642361111111109 10.789930555555554  14.927083333333334 12.015625  C 14.211805555555557 13.241319444444445  13.241319444444445 14.211805555555555  12.015625 14.927083333333334  C 10.789930555555557 15.642361111111112  9.45138888888889 16  8 16  C 6.548611111111112 16  5.210069444444445 15.642361111111112  3.984375 14.927083333333334  C 2.758680555555556 14.211805555555555  1.7881944444444446 13.241319444444445  1.0729166666666667 12.015625  C 0.35763888888888884 10.789930555555554  0 9.45138888888889  0 8  C 0 6.548611111111109  0.35763888888888884 5.210069444444443  1.0729166666666667 3.984375  C 1.7881944444444446 2.7586805555555554  2.758680555555556 1.7881944444444429  3.984375 1.072916666666666  C 5.210069444444445 0.3576388888888875  6.548611111111112 0  8 0  C 9.45138888888889 0  10.789930555555557 0.3576388888888875  12.015625 1.072916666666666  C 13.241319444444445 1.7881944444444429  14.211805555555557 2.7586805555555554  14.927083333333334 3.984375  Z " fill-rule="nonzero" fill="#ffffff" stroke="none" transform="matrix(1 0 0 1 7 4 )" />
  </g>
</svg>