<?xml version="1.0" encoding="utf-8"?>
<svg version="1.1" xmlns:xlink="http://www.w3.org/1999/xlink" width="30px" height="28px" xmlns="http://www.w3.org/2000/svg">
  <g transform="matrix(1 0 0 1 -16 -117 )">
    <path d="M 0 6  L 15 0  L 30 6  L 30 8  L 28 8  C 28 8.270833333333334  27.893229166666668 8.505208333333332  27.6796875 8.703125000000002  C 27.466145833333336 8.901041666666664  27.213541666666668 9  26.921875 9  L 3.078125 9  C 2.7864583333333335 9  2.533854166666667 8.901041666666664  2.3203125 8.703125000000002  C 2.1067708333333335 8.505208333333332  2 8.270833333333334  2 8  L 0 8  L 0 6  Z M 4 22  L 4 9.999999999999998  L 8 9.999999999999998  L 8 22  L 10 22  L 10 9.999999999999998  L 14 9.999999999999998  L 14 22  L 16 22  L 16 9.999999999999998  L 20 9.999999999999998  L 20 22  L 22 22  L 22 9.999999999999998  L 26 9.999999999999998  L 26 22  L 26.921875 22  C 27.213541666666668 22  27.466145833333336 22.098958333333332  27.6796875 22.296875  C 27.893229166666668 22.494791666666668  28 22.729166666666668  28 23  L 28 24  L 2 24  L 2 23  C 2 22.729166666666668  2.1067708333333335 22.494791666666668  2.3203125 22.296875  C 2.533854166666667 22.098958333333332  2.7864583333333335 22  3.078125 22  L 4 22  Z M 1.078125 25  L 28.921875 25  C 29.213541666666668 25  29.466145833333336 25.098958333333332  29.6796875 25.296875  C 29.89322916666667 25.494791666666668  30.000000000000007 25.729166666666668  30 26  L 30 28  L 0 28  L 0 26  C 0 25.729166666666668  0.10677083333333333 25.494791666666668  0.3203125 25.296875  C 0.5338541666666667 25.098958333333332  0.7864583333333334 25  1.078125 25  Z " fill-rule="nonzero" fill="#ffffff" stroke="none" transform="matrix(1 0 0 1 16 117 )" />
  </g>
</svg>