<?xml version="1.0" encoding="utf-8"?>
<svg version="1.1" xmlns:xlink="http://www.w3.org/1999/xlink" width="30px" height="22px" xmlns="http://www.w3.org/2000/svg">
  <g transform="matrix(1 0 0 1 -16 -311 )">
    <path d="M 29.34709821428571 0.6359375000000005  C 29.78236607142857 0.8307291666666659  30 1.1687499999999995  30 1.649999999999999  L 30 20.35  C 30 20.83125  29.78236607142857 21.169270833333336  29.34709821428571 21.3640625  C 29.20200892857143 21.421354166666667  29.062500000000004 21.45  28.92857142857143 21.45  C 28.627232142857146 21.45  28.376116071428573 21.341145833333336  28.17522321428571 21.1234375  L 21.42857142857143 14.196874999999999  L 21.42857142857143 17.05  C 21.42857142857143 18.413541666666667  20.95703125 19.579427083333336  20.013950892857142 20.54765625  C 19.070870535714285 21.515885416666666  17.935267857142858 22  16.607142857142858 22  L 4.821428571428572 22  C 3.493303571428572 22  2.3577008928571432 21.515885416666666  1.4146205357142856 20.54765625  C 0.47154017857142855 19.579427083333336  0 18.413541666666667  0 17.05  L 0 4.949999999999999  C 0 3.5864583333333298  0.47154017857142855 2.420572916666666  1.4146205357142856 1.4523437500000005  C 2.3577008928571432 0.48411458333333024  3.493303571428572 0  4.821428571428572 0  L 16.607142857142858 0  C 17.935267857142858 0  19.070870535714285 0.48411458333333024  20.013950892857142 1.4523437500000005  C 20.95703125 2.420572916666666  21.42857142857143 3.5864583333333298  21.42857142857143 4.949999999999999  L 21.42857142857143 7.785937499999999  L 28.17522321428571 0.876562499999999  C 28.376116071428573 0.6588541666666659  28.627232142857146 0.5500000000000005  28.92857142857143 0.5500000000000005  C 29.062500000000004 0.5500000000000005  29.20200892857143 0.5786458333333298  29.34709821428571 0.6359375000000005  Z " fill-rule="nonzero" fill="#ffffff" stroke="none" transform="matrix(1 0 0 1 16 311 )" />
  </g>
</svg>