<?xml version="1.0" encoding="utf-8"?>
<svg version="1.1" xmlns:xlink="http://www.w3.org/1999/xlink" width="30px" height="28px" xmlns="http://www.w3.org/2000/svg">
  <g transform="matrix(1 0 0 1 -16 -166 )">
    <path d="M 4.011418269230769 11.703125  C 5.147235576923077 12.723958333333334  6.5625 13.410590277777779  8.257211538461538 13.763020833333334  C 7.367788461538461 11.794270833333334  6.923076923076923 9.539930555555554  6.923076923076923 7  L 2.307692307692308 7  L 2.307692307692308 8.75  C 2.307692307692308 9.697916666666666  2.8756009615384617 10.682291666666666  4.011418269230769 11.703125  Z M 25.98858173076923 11.703125  C 27.124399038461537 10.682291666666666  27.692307692307693 9.697916666666666  27.692307692307693 8.75  L 27.692307692307693 7  L 23.076923076923077 7  C 23.076923076923077 9.539930555555554  22.63221153846154 11.794270833333334  21.742788461538463 13.763020833333334  C 23.4375 13.410590277777779  24.852764423076923 12.723958333333334  25.98858173076923 11.703125  Z M 29.495192307692307 5.177083333333334  C 29.83173076923077 5.517361111111109  30 5.930555555555554  30 6.416666666666666  L 30 8.75  C 30 9.612847222222221  29.750600961538463 10.481770833333334  29.251802884615383 11.356770833333334  C 28.75300480769231 12.231770833333334  28.079927884615387 13.021701388888888  27.232572115384617 13.7265625  C 26.385216346153847 14.431423611111112  25.345552884615387 15.023871527777775  24.11358173076923 15.50390625  C 22.88161057692308 15.983940972222218  21.586538461538463 16.254340277777775  20.228365384615383 16.315104166666668  C 19.723557692307693 16.971354166666668  19.152644230769234 17.548611111111107  18.515625 18.046875  C 18.058894230769234 18.460069444444443  17.743389423076923 18.900607638888893  17.569110576923077 19.368489583333332  C 17.394831730769234 19.836371527777775  17.30769230769231 20.380208333333332  17.307692307692307 21  C 17.30769230769231 21.65625  17.49098557692308 22.209201388888886  17.857572115384617 22.658854166666664  C 18.224158653846157 23.108506944444446  18.810096153846157 23.333333333333336  19.615384615384617 23.333333333333336  C 20.516826923076923 23.333333333333336  21.319110576923077 23.60980902777778  22.022235576923077 24.162760416666664  C 22.725360576923077 24.715711805555554  23.076923076923077 25.411458333333336  23.076923076923077 26.25  L 23.076923076923077 27.416666666666664  C 23.076923076923077 27.586805555555554  23.022836538461537 27.7265625  22.914663461538463 27.8359375  C 22.806490384615383 27.9453125  22.668269230769234 28  22.5 28  L 7.5 28  C 7.331730769230771 28  7.193509615384617 27.9453125  7.085336538461538 27.8359375  C 6.977163461538462 27.7265625  6.923076923076923 27.586805555555554  6.923076923076923 27.416666666666664  L 6.923076923076923 26.25  C 6.923076923076923 25.411458333333336  7.274639423076923 24.715711805555554  7.977764423076923 24.162760416666664  C 8.680889423076923 23.60980902777778  9.483173076923077 23.333333333333336  10.384615384615385 23.333333333333336  C 11.189903846153848 23.333333333333336  11.775841346153848 23.108506944444446  12.142427884615385 22.658854166666664  C 12.509014423076923 22.209201388888886  12.692307692307692 21.65625  12.692307692307692 21  C 12.692307692307692 20.380208333333332  12.60516826923077 19.836371527777775  12.430889423076923 19.368489583333332  C 12.256610576923077 18.900607638888893  11.94110576923077 18.460069444444443  11.484375 18.046875  C 10.84735576923077 17.548611111111107  10.276442307692308 16.971354166666668  9.771634615384615 16.315104166666668  C 8.41346153846154 16.254340277777775  7.118389423076924 15.983940972222218  5.886418269230769 15.50390625  C 4.654447115384616 15.023871527777775  3.6147836538461537 14.431423611111112  2.7674278846153846 13.7265625  C 1.9200721153846152 13.021701388888888  1.2469951923076925 12.231770833333334  0.7481971153846154 11.356770833333334  C 0.24939903846153846 10.481770833333334  0 9.612847222222221  0 8.75  L 0 6.416666666666666  C 0 5.930555555555554  0.16826923076923075 5.517361111111109  0.5048076923076923 5.177083333333334  C 0.841346153846154 4.836805555555554  1.2500000000000002 4.666666666666666  1.7307692307692308 4.666666666666666  L 6.923076923076923 4.666666666666666  L 6.923076923076923 2.9166666666666656  C 6.923076923076923 2.1145833333333344  7.205528846153846 1.4279513888888875  7.7704326923076925 0.8567708333333344  C 8.33533653846154 0.285590277777775  9.014423076923077 0  9.807692307692308 0  L 20.192307692307693 0  C 20.985576923076923 0  21.664663461538463 0.285590277777775  22.229567307692307 0.8567708333333344  C 22.794471153846157 1.4279513888888875  23.076923076923077 2.1145833333333344  23.076923076923077 2.9166666666666656  L 23.076923076923077 4.666666666666666  L 28.26923076923077 4.666666666666666  C 28.750000000000004 4.666666666666666  29.15865384615385 4.836805555555554  29.495192307692307 5.177083333333334  Z " fill-rule="nonzero" fill="#ffffff" stroke="none" transform="matrix(1 0 0 1 16 166 )" />
  </g>
</svg>