<?xml version="1.0" encoding="utf-8"?>
<svg version="1.1" xmlns:xlink="http://www.w3.org/1999/xlink" width="30px" height="25px" xmlns="http://www.w3.org/2000/svg">
  <g transform="matrix(1 0 0 1 -16 -449 )">
    <path d="M 11.313100961538462 15.589488636363635  C 11.463341346153847 16.08664772727273  11.538461538461538 16.571969696969695  11.538461538461538 17.045454545454547  C 11.538461538461538 17.51893939393939  11.463341346153847 18.004261363636363  11.313100961538462 18.501420454545453  C 11.162860576923078 18.998579545454547  10.904447115384617 19.44839015151515  10.537860576923077 19.850852272727273  C 10.17127403846154 20.253314393939394  9.735576923076923 20.454545454545453  9.230769230769232 20.454545454545453  C 8.725961538461538 20.454545454545453  8.290264423076923 20.253314393939394  7.923677884615384 19.850852272727273  C 7.557091346153847 19.44839015151515  7.298677884615385 18.998579545454547  7.1484375 18.501420454545453  C 6.998197115384615 18.004261363636363  6.923076923076923 17.51893939393939  6.923076923076923 17.045454545454547  C 6.923076923076923 16.571969696969695  6.998197115384615 16.08664772727273  7.1484375 15.589488636363635  C 7.298677884615385 15.092329545454547  7.557091346153847 14.642518939393936  7.923677884615384 14.240056818181818  C 8.290264423076923 13.837594696969695  8.725961538461538 13.636363636363635  9.230769230769232 13.636363636363635  C 9.735576923076923 13.636363636363635  10.17127403846154 13.837594696969695  10.537860576923077 14.240056818181818  C 10.904447115384617 14.642518939393936  11.162860576923078 15.092329545454547  11.313100961538462 15.589488636363635  Z M 22.8515625 15.589488636363635  C 23.001802884615387 16.08664772727273  23.076923076923077 16.571969696969695  23.076923076923077 17.045454545454547  C 23.076923076923077 17.51893939393939  23.001802884615387 18.004261363636363  22.8515625 18.501420454545453  C 22.701322115384617 18.998579545454547  22.442908653846157 19.44839015151515  22.076322115384617 19.850852272727273  C 21.70973557692308 20.253314393939394  21.274038461538463 20.454545454545453  20.76923076923077 20.454545454545453  C 20.264423076923077 20.454545454545453  19.828725961538463 20.253314393939394  19.462139423076923 19.850852272727273  C 19.095552884615387 19.44839015151515  18.837139423076927 18.998579545454547  18.686899038461537 18.501420454545453  C 18.536658653846153 18.004261363636363  18.461538461538463 17.51893939393939  18.461538461538463 17.045454545454547  C 18.461538461538463 16.571969696969695  18.536658653846153 16.08664772727273  18.686899038461537 15.589488636363635  C 18.837139423076927 15.092329545454547  19.095552884615387 14.642518939393936  19.462139423076923 14.240056818181818  C 19.828725961538463 13.837594696969695  20.264423076923077 13.636363636363635  20.76923076923077 13.636363636363635  C 21.274038461538463 13.636363636363635  21.70973557692308 13.837594696969695  22.076322115384617 14.240056818181818  C 22.442908653846157 14.642518939393936  22.701322115384617 15.092329545454547  22.8515625 15.589488636363635  Z M 25.384615384615383 19.770951704545453  C 25.76923076923077 18.995620265151516  25.961538461538463 18.08712121212121  25.961538461538463 17.045454545454547  C 25.961538461538463 15.625  25.546875 14.417613636363635  24.717548076923077 13.423295454545453  C 23.888221153846153 12.428977272727273  22.76442307692308 11.931818181818182  21.346153846153847 11.931818181818182  C 20.853365384615387 11.931818181818182  19.681490384615387 12.056107954545455  17.830528846153847 12.3046875  C 16.977163461538463 12.434895833333332  16.03365384615385 12.5  15 12.5  C 13.966346153846155 12.5  13.02283653846154 12.434895833333332  12.169471153846153 12.3046875  C 10.342548076923078 12.056107954545455  9.170673076923078 11.931818181818182  8.653846153846153 11.931818181818182  C 7.235576923076924 11.931818181818182  6.111778846153846 12.428977272727273  5.282451923076923 13.423295454545453  C 4.453125 14.417613636363635  4.038461538461538 15.625  4.038461538461538 17.045454545454547  C 4.038461538461538 18.08712121212121  4.230769230769231 18.995620265151516  4.615384615384616 19.770951704545453  C 5.000000000000001 20.546283143939394  5.486778846153847 21.155894886363637  6.075721153846154 21.599786931818183  C 6.664663461538462 22.043678977272727  7.397836538461539 22.398792613636363  8.275240384615385 22.66512784090909  C 9.15264423076923 22.931463068181817  9.993990384615385 23.106060606060606  10.799278846153847 23.188920454545453  C 11.604567307692308 23.271780303030305  12.5 23.313210227272727  13.485576923076923 23.313210227272727  L 16.514423076923077 23.313210227272727  C 17.5 23.313210227272727  18.395432692307693 23.271780303030305  19.200721153846153 23.188920454545453  C 20.006009615384617 23.106060606060606  20.84735576923077 22.931463068181817  21.724759615384617 22.66512784090909  C 22.602163461538463 22.398792613636363  23.33533653846154 22.043678977272727  23.924278846153847 21.599786931818183  C 24.513221153846153 21.155894886363637  25 20.546283143939394  25.384615384615383 19.770951704545453  Z M 27.548076923076923 6.8536931818181825  C 29.18269230769231 8.747632575757574  30 11.103219696969695  30 13.920454545454547  C 30 16.370738636363637  29.633413461538463 18.329782196969695  28.900240384615383 19.797585227272727  C 28.443509615384617 20.709043560606062  27.809495192307693 21.49621212121212  26.998197115384617 22.15909090909091  C 26.186899038461537 22.821969696969695  25.33954326923077 23.33096590909091  24.456129807692307 23.686079545454543  C 23.572716346153847 24.041193181818183  22.551081730769234 24.32232481060606  21.391225961538463 24.529474431818183  C 20.231370192307693 24.736624053030305  19.200721153846153 24.866832386363637  18.299278846153847 24.920099431818183  C 17.397836538461537 24.973366477272727  16.39423076923077 25  15.288461538461537 25  C 14.350961538461538 25  13.497596153846155 24.982244318181817  12.728365384615385 24.946732954545457  C 11.959134615384617 24.91122159090909  11.072716346153848 24.837239583333332  10.069110576923077 24.724786931818183  C 9.065504807692308 24.61233428030303  8.149038461538462 24.43477746212121  7.319711538461538 24.192116477272727  C 6.490384615384616 23.94945549242424  5.667067307692308 23.64464962121212  4.849759615384616 23.277698863636363  C 4.032451923076923 22.910748106060606  3.305288461538462 22.431344696969695  2.668269230769231 21.839488636363637  C 2.0312500000000004 21.247632575757578  1.5144230769230769 20.566998106060606  1.1177884615384615 19.797585227272727  C 0.3725961538461538 18.341619318181817  0 16.382575757575758  0 13.920454545454547  C 0 11.115056818181818  0.8173076923076922 8.771306818181818  2.451923076923077 6.889204545454544  C 2.1274038461538463 5.918560606060605  1.9651442307692308 4.912405303030301  1.9651442307692308 3.8707386363636354  C 1.9651442307692308 2.4976325757575717  2.2716346153846154 1.2073863636363646  2.8846153846153846 0  C 4.1826923076923075 0  5.324519230769232 0.23378314393939226  6.310096153846154 0.7013494318181823  C 7.295673076923078 1.1689157196969697  8.431490384615385 1.899857954545456  9.717548076923077 2.8941761363636354  C 11.484375 2.4798768939393923  13.341346153846153 2.2727272727272734  15.288461538461537 2.2727272727272734  C 17.067307692307693 2.2727272727272734  18.75 2.46212121212121  20.336538461538463 2.8409090909090913  C 21.598557692307693 1.8702651515151492  22.72235576923077 1.1541193181818177  23.707932692307693 0.6924715909090912  C 24.693509615384617 0.23082386363636465  25.829326923076923 0  27.115384615384617 0  C 27.728365384615383 1.2073863636363646  28.03485576923077 2.4976325757575717  28.03485576923077 3.8707386363636354  C 28.03485576923077 4.9005681818181825  27.872596153846153 5.894886363636365  27.548076923076923 6.8536931818181825  Z " fill-rule="nonzero" fill="#ffffff" stroke="none" transform="matrix(1 0 0 1 16 449 )" />
  </g>
</svg>