<?xml version="1.0" encoding="utf-8"?>
<svg version="1.1" xmlns:xlink="http://www.w3.org/1999/xlink" width="30px" height="30px" xmlns="http://www.w3.org/2000/svg">
  <g transform="matrix(1 0 0 1 -16 -354 )">
    <path d="M 20.72265625 13.984375000000002  C 21.07421875 14.231770833333332  21.25 14.570312500000002  21.25 15  C 21.25 15.429687500000002  21.07421875 15.768229166666664  20.72265625 16.015625000000004  L 11.97265625 22.265625  C 11.569010416666668 22.565104166666664  11.139322916666666 22.59765625  10.68359375 22.363281249999996  C 10.227864583333334 22.14192708333333  10 21.770833333333332  10 21.249999999999996  L 10 8.749999999999998  C 10 8.229166666666664  10.227864583333334 7.858072916666665  10.68359375 7.636718749999999  C 11.139322916666666 7.402343749999999  11.569010416666668 7.434895833333331  11.97265625 7.734375  L 20.72265625 13.984375000000002  Z M 24.82421875 24.82421875  C 24.94140625 24.70703125  25 24.557291666666664  25 24.375  L 25 5.625  C 25 5.442708333333331  24.94140625 5.292968749999999  24.82421875 5.175781249999999  C 24.70703125 5.058593749999999  24.557291666666668 4.999999999999999  24.375 5  L 5.625 5  C 5.442708333333334 4.999999999999999  5.29296875 5.058593749999999  5.17578125 5.175781249999999  C 5.05859375 5.292968749999999  5 5.442708333333331  5 5.625  L 5 24.375  C 5 24.557291666666664  5.05859375 24.70703125  5.17578125 24.82421875  C 5.29296875 24.94140625  5.442708333333334 25  5.625 25  L 24.375 25  C 24.557291666666668 25  24.70703125 24.94140625  24.82421875 24.82421875  Z M 28.349609375 1.650390625000001  C 29.449869791666664 2.7506510416666643  30 4.0755208333333295  30 5.625  L 30 24.375  C 30 25.924479166666664  29.449869791666664 27.249348958333336  28.349609375 28.349609375  C 27.249348958333336 29.449869791666664  25.92447916666667 30  24.375 30  L 5.625 30  C 4.075520833333333 30  2.750651041666667 29.449869791666664  1.650390625 28.349609375  C 0.5501302083333333 27.249348958333336  0 25.924479166666664  0 24.375  L 0 5.625  C 0 4.0755208333333295  0.5501302083333333 2.7506510416666643  1.650390625 1.650390625000001  C 2.750651041666667 0.5501302083333315  4.075520833333333 0  5.625 0  L 24.375 0  C 25.92447916666667 0  27.249348958333336 0.5501302083333315  28.349609375 1.650390625000001  Z " fill-rule="nonzero" fill="#ffffff" stroke="none" transform="matrix(1 0 0 1 16 354 )" />
  </g>
</svg>