<?xml version="1.0" encoding="utf-8"?>
<svg version="1.1" xmlns:xlink="http://www.w3.org/1999/xlink" width="30px" height="23px" xmlns="http://www.w3.org/2000/svg">
  <g transform="matrix(1 0 0 1 -16 -405 )">
    <path d="M 25.99137931034483 8.49431818181818  C 26.5948275862069 7.884469696969694  26.896551724137932 7.143939393939393  26.896551724137932 6.2727272727272725  C 26.896551724137932 5.40151515151515  26.5948275862069 4.660984848484848  25.99137931034483 4.051136363636364  C 25.38793103448276 3.441287878787877  24.655172413793103 3.1363636363636362  23.793103448275865 3.1363636363636362  L 22.75862068965517 3.1363636363636362  L 22.75862068965517 9.409090909090908  L 23.793103448275865 9.409090909090908  C 24.655172413793103 9.409090909090908  25.38793103448276 9.104166666666664  25.99137931034483 8.49431818181818  Z M 1.2122844827586208 21.774857954545457  C 0.40409482758620685 20.95809659090909  0 19.97253787878788  0 18.818181818181817  L 28.965517241379313 18.818181818181817  C 28.965517241379313 19.97253787878788  28.561422413793103 20.95809659090909  27.753232758620687 21.774857954545457  C 26.945043103448278 22.59161931818182  25.969827586206897 23  24.82758620689655 23  L 4.137931034482759 23  C 2.995689655172414 23  2.0204741379310347 22.59161931818182  1.2122844827586208 21.774857954545457  Z M 28.181573275862068 1.8377130681818192  C 29.393857758620687 3.0628551136363638  30 4.541193181818181  30 6.2727272727272725  C 30 8.004261363636363  29.393857758620687 9.48259943181818  28.181573275862068 10.707741477272728  C 26.96928879310345 11.932883522727272  25.50646551724138 12.545454545454545  23.793103448275865 12.545454545454545  L 22.75862068965517 12.545454545454545  L 22.75862068965517 13.068181818181817  C 22.75862068965517 14.070075757575756  22.403017241379313 14.930397727272728  21.691810344827587 15.649147727272728  C 20.980603448275865 16.367897727272727  20.129310344827587 16.727272727272727  19.13793103448276 16.727272727272727  L 7.758620689655173 16.727272727272727  C 6.767241379310345 16.727272727272727  5.915948275862069 16.367897727272727  5.204741379310345 15.649147727272728  C 4.493534482758621 14.930397727272728  4.137931034482759 14.070075757575756  4.137931034482759 13.068181818181817  L 4.137931034482759 1.0454545454545445  C 4.137931034482759 0.7623106060606047  4.240301724137932 0.5172821969696938  4.445043103448276 0.31036931818181934  C 4.649784482758621 0.10345643939393723  4.892241379310345 0  5.172413793103448 0  L 23.793103448275865 0  C 25.50646551724138 0  26.96928879310345 0.6125710227272723  28.181573275862068 1.8377130681818192  Z " fill-rule="nonzero" fill="#ffffff" stroke="none" transform="matrix(1 0 0 1 16 405 )" />
  </g>
</svg>