<?xml version="1.0" encoding="utf-8"?>
<svg version="1.1" xmlns:xlink="http://www.w3.org/1999/xlink" width="30px" height="24px" xmlns="http://www.w3.org/2000/svg">
  <g transform="matrix(1 0 0 1 -16 -266 )">
    <path d="M 2.5 0  L 27.5 0  C 28.1875 0  28.77604166666667 0.24479166666668561  29.265625 0.734375  C 29.755208333333336 1.2239583333333144  30.000000000000007 1.8125  30 2.5  L 30 17.5  C 30.000000000000007 18.1875  29.755208333333336 18.776041666666686  29.265625 19.265625  C 28.77604166666667 19.755208333333314  28.1875 20  27.5 20  L 16 20  L 16 22  L 21.5 22  C 21.645833333333336 22  21.765625 22.046875  21.859375 22.140625  C 21.953125 22.234375  22 22.354166666666686  22 22.5  L 22 23.5  C 22 23.645833333333314  21.953125 23.765625  21.859375 23.859375  C 21.765625 23.953125  21.645833333333336 24  21.5 24  L 8.5 24  C 8.354166666666668 24  8.234375 23.953125  8.140625 23.859375  C 8.046875 23.765625  8 23.645833333333314  8 23.5  L 8 22.5  C 8 22.354166666666686  8.046875 22.234375  8.140625 22.140625  C 8.234375 22.046875  8.354166666666668 22  8.5 22  L 14 22  L 14 20  L 2.5 20  C 1.8125 20  1.2239583333333321 19.755208333333314  0.734375 19.265625  C 0.24479166666666782 18.776041666666686  0 18.1875  0 17.5  L 0 2.5  C 0 1.8125  0.24479166666666782 1.2239583333333144  0.734375 0.734375  C 1.2239583333333321 0.24479166666668561  1.8125 0  2.5 0  Z M 2.5 18  L 27.5 18  C 27.63541666666667 18  27.75260416666667 17.950520833333314  27.8515625 17.8515625  C 27.950520833333336 17.752604166666686  28 17.635416666666686  28 17.5  L 28 2.5  C 28 2.3645833333333144  27.950520833333336 2.2473958333333144  27.8515625 2.1484375  C 27.75260416666667 2.0494791666666856  27.63541666666667 2  27.5 2  L 2.5 2  C 2.364583333333332 2  2.247395833333332 2.0494791666666856  2.1484375 2.1484375  C 2.049479166666668 2.2473958333333144  2 2.3645833333333144  2 2.5  L 2 17.5  C 2 17.635416666666686  2.049479166666668 17.752604166666686  2.1484375 17.8515625  C 2.247395833333332 17.950520833333314  2.364583333333332 18  2.5 18  Z M 9.923076923076923 4.196428571428555  C 9.962095875139354 4.18769841269841  10.026198439241917 4.178968253968264  10.115384615384617 4.170238095238119  C 10.204570791527313 4.161507936507917  10.25195094760312 4.157142857142844  10.257525083612041 4.157142857142844  C 11.656633221850612 4.052380952380929  13.404124860646597 4  15.500000000000002 4  C 16.436454849498325 4  17.340858416945373 4.013095238095218  18.213210702341136 4.039285714285711  C 19.085562987736907 4.065476190476204  19.72519509476031 4.093121693121702  20.132107023411372 4.122222222222206  L 20.742474916387962 4.157142857142844  C 20.74804905239688 4.157142857142844  20.79542920847269 4.161507936507917  20.884615384615387 4.170238095238119  C 20.973801560758083 4.178968253968264  21.037904124860646 4.18769841269841  21.07692307692308 4.196428571428555  C 21.115942028985508 4.205158730158757  21.181438127090303 4.2182539682539755  21.273411371237458 4.235714285714266  C 21.365384615384613 4.253174603174614  21.4448160535117 4.276455026455039  21.51170568561873 4.305555555555543  C 21.578595317725757 4.334656084656103  21.656633221850612 4.372486772486752  21.74581939799331 4.419047619047603  C 21.835005574136012 4.4656084656084545  21.92140468227425 4.522354497354513  22.00501672240803 4.589285714285722  C 22.08862876254181 4.656216931216932  22.16945373467113 4.7333333333333485  22.247491638795985 4.820634920634916  C 22.280936454849495 4.855555555555554  22.324136008918614 4.9093915343915455  22.37709030100335 4.982142857142833  C 22.43004459308807 5.054894179894177  22.51086956521739 5.225132275132296  22.619565217391305 5.492857142857133  C 22.72826086956522 5.760582010582027  22.80211817168339 6.054497354497357  22.841137123745817 6.37460317460318  C 22.88573021181717 6.747089947089933  22.920568561872912 7.1443121693121725  22.945652173913047 7.566269841269843  C 22.97073578595318 7.988227513227514  22.986064659977707 8.318518518518545  22.991638795986617 8.557142857142878  L 22.991638795986617 8.906349206349205  L 22.991638795986617 10.093650793650795  C 22.99721293199554 10.937566137566137  22.947045707915272 11.781481481481478  22.841137123745817 12.62539682539682  C 22.80211817168339 12.945502645502643  22.73244147157191 13.2350529100529  22.632107023411372 13.494047619047592  C 22.53177257525084 13.75304232804234  22.442586399108137 13.932010582010605  22.364548494983275 14.030952380952385  L 22.247491638795985 14.179365079365084  C 22.16945373467113 14.266666666666652  22.08862876254181 14.343783068783068  22.00501672240803 14.410714285714278  C 21.92140468227425 14.477645502645487  21.835005574136012 14.532936507936483  21.74581939799331 14.576587301587324  C 21.656633221850612 14.620238095238108  21.578595317725757 14.656613756613751  21.51170568561873 14.685714285714312  C 21.4448160535117 14.714814814814815  21.365384615384613 14.73809523809524  21.273411371237458 14.755555555555532  C 21.181438127090303 14.77301587301588  21.114548494983275 14.786111111111097  21.07274247491639 14.794841269841243  C 21.030936454849495 14.803571428571445  20.966833890746933 14.81230158730159  20.880434782608695 14.821031746031736  C 20.794035674470457 14.829761904761881  20.74804905239688 14.83412698412701  20.742474916387962 14.83412698412701  C 19.343366778149388 14.944708994709003  17.595875139353396 15  15.500000000000002 15  C 14.346153846153847 14.988359788359787  13.344202898550726 14.969444444444434  12.494147157190636 14.943253968253941  C 11.644091415830545 14.917063492063505  11.085284280936456 14.895238095238085  10.817725752508363 14.877777777777794  L 10.408026755852845 14.842857142857156  L 10.107023411371237 14.807936507936518  C 9.906354515050168 14.778835978835957  9.754459308807135 14.749735449735454  9.651337792642142 14.720634920634893  C 9.548216276477145 14.69153439153439  9.406075808249721 14.630423280423258  9.224916387959865 14.537301587301613  C 9.04375696767001 14.44417989417991  8.88628762541806 14.324867724867715  8.752508361204015 14.179365079365084  C 8.719063545150501 14.144444444444446  8.675863991081382 14.090608465608454  8.622909698996654 14.017857142857167  C 8.56995540691193 13.945105820105823  8.48913043478261 13.774867724867704  8.380434782608695 13.507142857142867  C 8.271739130434781 13.239417989417973  8.19788182831661 12.945502645502643  8.15886287625418 12.62539682539682  C 8.114269788182831 12.252910052910067  8.079431438127092 11.855687830687827  8.054347826086957 11.433730158730157  C 8.029264214046822 11.011772486772486  8.013935340022297 10.681481481481455  8.00836120401338 10.442857142857122  L 8.00836120401338 10.093650793650795  L 8.00836120401338 8.906349206349205  C 8.002787068004459 8.062433862433863  8.052954292084728 7.218518518518522  8.15886287625418 6.37460317460318  C 8.19788182831661 6.054497354497357  8.267558528428093 5.7649470899471  8.367892976588628 5.505952380952408  C 8.468227424749163 5.246957671957659  8.557413600891863 5.067989417989395  8.635451505016722 4.969047619047615  L 8.752508361204015 4.820634920634916  C 8.830546265328874 4.7333333333333485  8.911371237458194 4.656216931216932  8.994983277591974 4.589285714285722  C 9.078595317725753 4.522354497354513  9.164994425863991 4.4656084656084545  9.254180602006688 4.419047619047603  C 9.343366778149388 4.372486772486752  9.421404682274247 4.334656084656103  9.488294314381271 4.305555555555543  C 9.555183946488295 4.276455026455039  9.634615384615383 4.253174603174614  9.726588628762542 4.235714285714266  C 9.8185618729097 4.2182539682539755  9.884057971014492 4.205158730158757  9.923076923076923 4.196428571428555  Z M 13.953177257525084 11.525396825396797  L 18 9.342857142857156  L 13.953177257525084 7.134126984126965  L 13.953177257525084 11.525396825396797  Z " fill-rule="nonzero" fill="#ffffff" stroke="none" transform="matrix(1 0 0 1 16 266 )" />
  </g>
</svg>