<?xml version="1.0" encoding="utf-8"?>
<svg version="1.1" xmlns:xlink="http://www.w3.org/1999/xlink" width="30px" height="26px" xmlns="http://www.w3.org/2000/svg">
  <g transform="matrix(1 0 0 1 -16 -495 )">
    <path d="M 11.8203125 11.8203125  C 12.700520833333334 10.940104166666664  13.760416666666668 10.499999999999996  15 10.5  C 16.239583333333336 10.499999999999996  17.299479166666668 10.940104166666664  18.1796875 11.8203125  C 19.059895833333336 12.700520833333332  19.5 13.760416666666666  19.5 14.999999999999998  C 19.5 16.239583333333332  19.059895833333336 17.299479166666664  18.1796875 18.1796875  C 17.299479166666668 19.059895833333332  16.239583333333336 19.5  15 19.5  C 13.760416666666668 19.5  12.700520833333334 19.059895833333332  11.8203125 18.1796875  C 10.940104166666668 17.299479166666664  10.5 16.239583333333332  10.5 14.999999999999998  C 10.5 13.760416666666666  10.940104166666668 12.700520833333332  11.8203125 11.8203125  Z M 22.5 4  L 26 4  C 27.10416666666667 4  28.046875000000004 4.390625  28.828125 5.171875000000001  C 29.609375000000004 5.953125  30.000000000000007 6.895833333333332  30 8  L 30 22  C 30.000000000000007 23.104166666666668  29.609375000000004 24.046875  28.828125 24.828125  C 28.046875000000004 25.609375  27.10416666666667 26  26 26  L 4 26  C 2.8958333333333335 26  1.9531250000000002 25.609375  1.171875 24.828125  C 0.390625 24.046875  0 23.104166666666668  0 22  L 0 8  C 0 6.895833333333332  0.390625 5.953125  1.171875 5.171875000000001  C 1.9531250000000002 4.390625  2.8958333333333335 4  4 4  L 7.5 4  L 8.296875 1.8749999999999991  C 8.494791666666668 1.3645833333333328  8.856770833333334 0.9244791666666652  9.3828125 0.5546874999999991  C 9.908854166666668 0.18489583333333592  10.447916666666668 0  11 0  L 19 0  C 19.552083333333336 0  20.091145833333336 0.18489583333333592  20.6171875 0.5546874999999991  C 21.143229166666668 0.9244791666666652  21.505208333333336 1.3645833333333328  21.703125 1.8749999999999991  L 22.5 4  Z M 10.0546875 19.9453125  C 11.424479166666668 21.315104166666668  13.072916666666668 22  15 22  C 16.927083333333336 22  18.575520833333336 21.315104166666668  19.9453125 19.9453125  C 21.315104166666668 18.575520833333332  22 16.927083333333332  22 14.999999999999998  C 22 13.072916666666668  21.315104166666668 11.424479166666666  19.9453125 10.0546875  C 18.575520833333336 8.684895833333332  16.927083333333336 8  15 8  C 13.072916666666668 8  11.424479166666668 8.684895833333332  10.0546875 10.0546875  C 8.684895833333334 11.424479166666666  8 13.072916666666668  8 14.999999999999998  C 8 16.927083333333332  8.684895833333334 18.575520833333332  10.0546875 19.9453125  Z " fill-rule="nonzero" fill="#ffffff" stroke="none" transform="matrix(1 0 0 1 16 495 )" />
  </g>
</svg>