<?xml version="1.0" encoding="utf-8"?>
<svg version="1.1" xmlns:xlink="http://www.w3.org/1999/xlink" width="30px" height="30px" xmlns="http://www.w3.org/2000/svg">
  <g transform="matrix(1 0 0 1 -16 -215 )">
    <path d="M 15 27.8125  C 16.718750000000004 27.8125  18.38541666666667 27.473958333333336  20 26.796875  C 19.453125 23.658854166666668  18.541666666666668 20.416666666666668  17.265625 17.070312500000004  L 17.2265625 17.070312500000004  L 17.1875 17.089843749999996  C 16.97916666666667 17.16796875  16.699218750000004 17.275390625000004  16.34765625 17.412109374999996  C 15.996093750000004 17.548828125  15.33854166666667 17.867838541666668  14.375 18.369140625  C 13.411458333333336 18.870442708333332  12.51953125 19.404296874999996  11.69921875 19.970703125000004  C 10.87890625 20.537109375  10.026041666666666 21.28255208333333  9.140625 22.20703125  C 8.255208333333334 23.131510416666668  7.584635416666668 24.095052083333332  7.12890625 25.09765625  L 6.8359375 24.8828125  C 9.231770833333334 26.8359375  11.953125 27.8125  15 27.8125  Z M 16.1328125 15.029296875  C 16.25 14.996744791666664  16.334635416666668 14.967447916666664  16.38671875 14.94140625  C 16.11328125 14.303385416666664  15.768229166666668 13.580729166666666  15.3515625 12.7734375  C 11.302083333333336 13.984375000000002  6.920572916666668 14.58984375  2.20703125 14.58984375  C 2.194010416666667 14.680989583333332  2.1875 14.817708333333332  2.1875 15  C 2.1875 16.614583333333332  2.4739583333333335 18.154296875000004  3.046875 19.619140625000004  C 3.6197916666666665 21.083984375000004  4.427083333333333 22.39583333333333  5.46875 23.5546875  C 6.119791666666668 22.39583333333333  6.923828125 21.31184895833333  7.880859375 20.302734375  C 8.837890625 19.293619791666664  9.765625000000002 18.483072916666668  10.6640625 17.87109375  C 11.5625 17.259114583333332  12.412109375 16.731770833333332  13.212890625 16.2890625  C 14.013671875 15.846354166666668  14.661458333333336 15.533854166666664  15.156250000000002 15.3515625  L 15.87890625 15.097656249999998  C 15.930989583333336 15.084635416666668  16.015625 15.061848958333332  16.1328125 15.029296875  Z M 2.4609375 12.36328125  C 6.393229166666668 12.36328125  10.338541666666668 11.842447916666664  14.296875 10.800781249999998  C 12.734375 8.02734375  11.145833333333336 5.56640625  9.53125 3.417968749999999  C 7.734375 4.264322916666666  6.2109375 5.475260416666664  4.9609375 7.050781249999999  C 3.7109375 8.62630208333333  2.877604166666667 10.397135416666664  2.4609375 12.36328125  Z M 25.78125 21.923828124999996  C 26.74479166666667 20.43294270833333  27.369791666666668 18.80208333333333  27.65625 17.031249999999996  C 24.921875 16.250000000000004  22.259114583333336 16.061197916666664  19.66796875 16.46484375  C 20.80078125 19.576822916666664  21.634114583333332 22.63020833333333  22.16796875 25.625  C 23.61328125 24.6484375  24.817708333333336 23.414713541666664  25.78125 21.923828124999996  Z M 11.89453125 2.578125  C 11.907552083333336 2.565104166666666  11.920572916666668 2.558593750000001  11.93359375 2.558593750000001  C 11.920572916666668 2.558593750000001  11.907552083333336 2.565104166666666  11.89453125 2.578125  Z M 23.212890625 5.732421874999999  L 23.45703125 5.390625  C 21.048177083333332 3.2552083333333295  18.229166666666668 2.187499999999999  15 2.187499999999999  C 14.010416666666666 2.187499999999999  13.001302083333336 2.3111979166666643  11.97265625 2.558593750000001  C 13.678385416666668 4.772135416666664  15.279947916666666 7.259114583333331  16.77734375 10.01953125  C 17.67578125 9.68098958333333  18.522135416666668 9.287109375  19.31640625 8.837890624999998  C 20.110677083333332 8.388671875000002  20.73893229166667 7.988281249999999  21.201171875 7.636718749999999  C 21.663411458333332 7.285156249999999  22.08984375 6.9140625  22.48046875 6.523437499999999  C 22.87109375 6.132812500000001  23.115234375 5.869140625000001  23.212890625 5.732421874999999  Z M 27.6171875 14.82421875  L 27.8125 14.863281250000002  C 27.7734375 11.842447916666664  26.80338541666667 9.173177083333329  24.90234375 6.85546875  L 24.8828125 6.874999999999999  C 24.765625 7.03125  24.641927083333336 7.19075520833333  24.51171875 7.353515625  C 24.381510416666668 7.516276041666666  24.09830729166667 7.80598958333333  23.662109375 8.222656249999998  C 23.225911458333336 8.639322916666664  22.763671875 9.033203125000002  22.275390625 9.404296875  C 21.787109375 9.775390624999998  21.136067708333332 10.198567708333332  20.322265625 10.673828125000002  C 19.50846354166667 11.149088541666666  18.652343750000004 11.569010416666664  17.75390625 11.933593750000002  C 18.079427083333336 12.623697916666664  18.365885416666668 13.2421875  18.61328125 13.789062499999998  C 18.639322916666668 13.854166666666664  18.681640625 13.964843749999998  18.740234375 14.12109375  C 18.798828125 14.277343750000002  18.84765625 14.388020833333332  18.88671875 14.453125000000002  C 19.35546875 14.388020833333332  19.840494791666668 14.342447916666666  20.341796875 14.316406249999998  C 20.843098958333332 14.290364583333332  21.321614583333336 14.277343750000002  21.77734375 14.277343750000002  C 22.23307291666667 14.277343750000002  22.682291666666668 14.287109374999998  23.125 14.306640625000002  C 23.567708333333332 14.326171875  23.984375 14.352213541666664  24.375 14.384765625  C 24.765625 14.417317708333332  25.13346354166667 14.453125000000002  25.478515625 14.492187499999998  C 25.823567708333332 14.53125  26.136067708333336 14.573567708333334  26.416015625 14.619140625  C 26.695963541666668 14.664713541666666  26.93359375 14.703776041666664  27.12890625 14.736328125  C 27.32421875 14.768880208333332  27.486979166666668 14.798177083333332  27.6171875 14.82421875  Z M 27.98828125 7.470703125  C 29.32942708333333 9.76888020833333  30 12.278645833333329  30 15  C 30 17.721354166666668  29.32942708333333 20.231119791666664  27.98828125 22.529296875  C 26.64713541666667 24.827473958333332  24.827473958333332 26.647135416666668  22.529296875 27.98828125  C 20.23111979166667 29.329427083333336  17.721354166666668 30  15 30  C 12.278645833333334 30  9.768880208333334 29.329427083333336  7.470703125 27.98828125  C 5.172526041666667 26.647135416666668  3.352864583333334 24.827473958333332  2.01171875 22.529296875  C 0.6705729166666665 20.231119791666664  0 17.721354166666668  0 15  C 0 12.278645833333329  0.6705729166666665 9.76888020833333  2.01171875 7.470703125  C 3.352864583333334 5.172526041666666  5.172526041666667 3.3528645833333304  7.470703125 2.011718749999999  C 9.768880208333334 0.6705729166666641  12.278645833333334 0  15 0  C 17.721354166666668 0  20.23111979166667 0.6705729166666641  22.529296875 2.011718749999999  C 24.827473958333332 3.3528645833333304  26.64713541666667 5.172526041666666  27.98828125 7.470703125  Z " fill-rule="nonzero" fill="#ffffff" stroke="none" transform="matrix(1 0 0 1 16 215 )" />
  </g>
</svg>