<?xml version="1.0" encoding="utf-8"?>
<svg version="1.1" xmlns:xlink="http://www.w3.org/1999/xlink" width="30px" height="30px" xmlns="http://www.w3.org/2000/svg">
  <g transform="matrix(1 0 0 1 -928 -32 )">
    <path d="M 28.80859375 9.179687500000002  C 29.60286458333333 11.028645833333334  30 12.968749999999998  30 15  C 30 17.031249999999996  29.60286458333333 18.971354166666664  28.80859375 20.820312500000004  C 28.014322916666668 22.669270833333336  26.946614583333336 24.264322916666664  25.60546875 25.60546875  C 24.264322916666668 26.946614583333336  22.669270833333336 28.014322916666664  20.8203125 28.80859375  C 18.97135416666667 29.602864583333332  17.03125 30  15 30  C 12.760416666666668 30  10.631510416666668 29.527994791666664  8.61328125 28.583984375  C 6.595052083333333 27.639973958333332  4.876302083333334 26.30859375  3.45703125 24.58984375  C 3.365885416666667 24.459635416666664  3.323567708333334 24.313151041666664  3.330078125 24.150390625  C 3.336588541666667 23.987630208333336  3.3919270833333335 23.854166666666664  3.49609375 23.75  L 6.171875 21.054687500000004  C 6.302083333333333 20.937500000000004  6.46484375 20.878906250000004  6.66015625 20.878906250000004  C 6.868489583333334 20.904947916666664  7.018229166666667 20.983072916666664  7.109375 21.113281250000004  C 8.059895833333334 22.350260416666668  9.225260416666668 23.307291666666668  10.60546875 23.984375  C 11.985677083333334 24.661458333333336  13.450520833333334 25  15 25  C 16.354166666666668 25  17.646484375 24.736328125  18.876953125 24.208984375  C 20.107421875 23.681640625  21.171875 22.96875  22.0703125 22.070312499999996  C 22.96875 21.171875000000004  23.681640625 20.107421874999996  24.208984375 18.876953124999996  C 24.736328125 17.646484374999996  25 16.354166666666664  25 15  C 25 13.645833333333332  24.736328125 12.353515624999998  24.208984375 11.123046874999998  C 23.681640625 9.892578124999998  22.96875 8.828125000000002  22.0703125 7.929687499999999  C 21.171875 7.03125  20.107421875 6.318359374999999  18.876953125 5.791015624999999  C 17.646484375 5.263671874999999  16.354166666666668 4.999999999999999  15 4.999999999999999  C 13.723958333333336 4.999999999999999  12.5 5.231119791666666  11.328125 5.693359375000001  C 10.15625 6.1555989583333295  9.114583333333334 6.816406249999999  8.203125 7.67578125  L 10.87890625 10.37109375  C 11.282552083333334 10.761718750000002  11.373697916666666 11.210937499999998  11.15234375 11.71875  C 10.930989583333334 12.239583333333336  10.546875 12.499999999999998  10 12.499999999999998  L 1.25 12.499999999999998  C 0.9114583333333335 12.499999999999998  0.6184895833333334 12.376302083333334  0.37109375 12.12890625  C 0.12369791666666667 11.881510416666666  0 11.588541666666666  0 11.25  L 0 2.500000000000001  C 0 1.953124999999999  0.26041666666666663 1.5690104166666663  0.78125 1.34765625  C 1.2890625 1.1263020833333304  1.73828125 1.2174479166666663  2.12890625 1.621093750000001  L 4.66796875 4.140625000000001  C 6.061197916666668 2.8255208333333304  7.652994791666667 1.806640624999999  9.443359375 1.083984375  C 11.233723958333336 0.3613281250000011  13.0859375 0  15 0  C 17.03125 0  18.97135416666667 0.3971354166666663  20.8203125 1.191406249999999  C 22.669270833333336 1.9856770833333315  24.264322916666668 3.053385416666665  25.60546875 4.39453125  C 26.946614583333336 5.735677083333331  28.014322916666668 7.330729166666665  28.80859375 9.179687500000002  Z M 17.32421875 8.925781249999998  C 17.44140625 9.042968749999998  17.5 9.192708333333332  17.5 9.375  L 17.5 18.125000000000004  C 17.5 18.307291666666668  17.44140625 18.45703125  17.32421875 18.57421875  C 17.20703125 18.69140625  17.057291666666668 18.75  16.875 18.75  L 10.625 18.75  C 10.442708333333336 18.75  10.29296875 18.69140625  10.17578125 18.57421875  C 10.05859375 18.45703125  10 18.307291666666668  10 18.125000000000004  L 10 16.875  C 10 16.692708333333336  10.05859375 16.542968750000004  10.17578125 16.425781250000004  C 10.29296875 16.308593750000004  10.442708333333336 16.250000000000004  10.625 16.250000000000004  L 15 16.250000000000004  L 15 9.375  C 15 9.192708333333332  15.05859375 9.042968749999998  15.17578125 8.925781249999998  C 15.292968750000004 8.808593749999998  15.442708333333336 8.749999999999998  15.625000000000002 8.749999999999998  L 16.875 8.749999999999998  C 17.057291666666668 8.749999999999998  17.20703125 8.808593749999998  17.32421875 8.925781249999998  Z " fill-rule="nonzero" fill="#555555" stroke="none" transform="matrix(1 0 0 1 928 32 )" />
  </g>
</svg>