<?xml version="1.0" encoding="utf-8"?>
<svg version="1.1" xmlns:xlink="http://www.w3.org/1999/xlink" width="8px" height="14px" xmlns="http://www.w3.org/2000/svg">
  <g transform="matrix(1 0 0 1 -68 -839 )">
    <path d="M 7.736111111111111 0.259765625  C 7.912037037037038 0.43294270833333126  8 0.6380208333333313  8 0.875  L 8 13.125  C 8 13.361979166666666  7.912037037037038 13.567057291666666  7.736111111111111 13.740234375  C 7.560185185185186 13.913411458333334  7.351851851851852 14  7.111111111111111 14  C 6.870370370370371 14  6.662037037037038 13.913411458333334  6.486111111111111 13.740234375  L 0.2638888888888889 7.615234375  C 0.08796296296296309 7.442057291666666  0 7.236979166666666  0 7  C 0 6.763020833333333  0.08796296296296309 6.557942708333333  0.2638888888888889 6.384765625  L 6.486111111111111 0.259765625  C 6.662037037037038 0.08658854166666563  6.870370370370371 0  7.111111111111111 0  C 7.351851851851852 0  7.560185185185186 0.08658854166666563  7.736111111111111 0.259765625  Z " fill-rule="nonzero" fill="#ffffff" stroke="none" transform="matrix(1 0 0 1 68 839 )" />
  </g>
</svg>