<?xml version="1.0" encoding="utf-8"?>
<svg version="1.1" xmlns:xlink="http://www.w3.org/1999/xlink" width="8px" height="14px" xmlns="http://www.w3.org/2000/svg">
  <g transform="matrix(1 0 0 1 -1005 -839 )">
    <path d="M 7.736111111111111 6.384765625  C 7.912037037037038 6.557942708333333  8 6.763020833333333  8 7  C 8 7.236979166666666  7.912037037037038 7.442057291666666  7.736111111111111 7.615234375  L 1.5138888888888888 13.740234375  C 1.337962962962963 13.913411458333334  1.1296296296296298 14  0.8888888888888888 14  C 0.6481481481481483 14  0.4398148148148148 13.913411458333334  0.2638888888888889 13.740234375  C 0.08796296296296297 13.567057291666666  0 13.361979166666666  0 13.125  L 0 0.875  C 0 0.6380208333333313  0.08796296296296297 0.43294270833333126  0.2638888888888889 0.259765625  C 0.4398148148148148 0.08658854166666563  0.6481481481481483 0  0.8888888888888888 0  C 1.1296296296296298 0  1.337962962962963 0.08658854166666563  1.5138888888888888 0.259765625  L 7.736111111111111 6.384765625  Z " fill-rule="nonzero" fill="#ffffff" stroke="none" transform="matrix(1 0 0 1 1005 839 )" />
  </g>
</svg>