<?xml version="1.0" encoding="utf-8"?>
<svg version="1.1" xmlns:xlink="http://www.w3.org/1999/xlink" width="16px" height="15px" xmlns="http://www.w3.org/2000/svg">
  <g transform="matrix(1 0 0 1 -198 -1171 )">
    <path d="M 2.37 2.6806640625  C 2.496666666666667 2.8011067708333326  2.56 2.9492187500000004  2.56 3.1250000000000004  C 2.56 3.294270833333332  2.496666666666667 3.440755208333332  2.37 3.5644531250000004  C 2.2433333333333336 3.6881510416666656  2.0933333333333333 3.75  1.92 3.75  C 1.74 3.75  1.5883333333333334 3.6881510416666656  1.465 3.5644531250000004  C 1.3416666666666668 3.440755208333332  1.28 3.294270833333332  1.28 3.1250000000000004  C 1.28 2.9492187500000004  1.3416666666666668 2.8011067708333326  1.465 2.6806640625  C 1.5883333333333334 2.5602213541666656  1.74 2.4999999999999996  1.92 2.4999999999999996  C 2.0933333333333333 2.4999999999999996  2.2433333333333336 2.5602213541666656  2.37 2.6806640625  Z M 3.97 8.564453125000002  C 4.096666666666667 8.440755208333332  4.16 8.294270833333332  4.16 8.125000000000002  L 4.16 1.875  C 4.16 1.7057291666666652  4.096666666666667 1.5592447916666652  3.97 1.435546875  C 3.8433333333333337 1.311848958333333  3.693333333333334 1.2500000000000004  3.52 1.2500000000000004  L 0.64 1.2500000000000004  C 0.46666666666666673 1.2500000000000004  0.31666666666666665 1.311848958333333  0.19 1.435546875  C 0.06333333333333332 1.5592447916666652  0 1.7057291666666652  0 1.875  L 0 8.125000000000002  C 0 8.294270833333332  0.06333333333333332 8.440755208333332  0.19 8.564453125000002  C 0.31666666666666665 8.688151041666666  0.46666666666666673 8.749999999999998  0.64 8.749999999999998  L 3.52 8.749999999999998  C 3.693333333333334 8.749999999999998  3.8433333333333337 8.688151041666666  3.97 8.564453125000002  Z M 15.6 5.927734374999999  C 15.600000000000001 6.136067708333332  15.550000000000002 6.383463541666666  15.45 6.669921875000001  C 15.816666666666668 7.067057291666667  16 7.552083333333331  16 8.125000000000002  C 15.993333333333334 8.632812499999998  15.80166666666667 9.072265624999998  15.425 9.443359375000002  C 15.048333333333336 9.814453125  14.6 10.000000000000002  14.08 10.000000000000002  L 11.31 10.000000000000002  C 11.336666666666668 10.091145833333334  11.363333333333335 10.169270833333332  11.39 10.234375000000002  C 11.416666666666668 10.299479166666666  11.453333333333335 10.37109375  11.5 10.449218749999998  C 11.546666666666667 10.527343750000002  11.58 10.585937500000002  11.6 10.624999999999998  C 11.72 10.865885416666668  11.81 11.051432291666668  11.87 11.181640624999998  C 11.93 11.311848958333332  11.993333333333334 11.502278645833332  12.06 11.7529296875  C 12.126666666666667 12.003580729166666  12.16 12.252604166666666  12.16 12.5  C 12.16 12.65625  12.158333333333335 12.783203125  12.155 12.880859375  C 12.151666666666667 12.978515625  12.135 13.125  12.105 13.3203125  C 12.075 13.515625  12.035 13.678385416666668  11.985 13.80859375  C 11.935 13.938802083333334  11.855 14.085286458333334  11.745 14.248046875  C 11.635 14.410807291666668  11.501666666666667 14.542643229166668  11.345 14.6435546875  C 11.188333333333334 14.744466145833334  10.988333333333335 14.8291015625  10.745 14.8974609375  C 10.501666666666667 14.9658203125  10.226666666666667 15  9.92 15  C 9.746666666666668 15  9.596666666666668 14.938151041666668  9.47 14.814453125  C 9.336666666666668 14.684244791666666  9.223333333333334 14.521484375  9.13 14.326171875  C 9.036666666666667 14.130859375  8.971666666666668 13.961588541666668  8.935 13.818359375  C 8.898333333333335 13.675130208333334  8.856666666666667 13.4765625  8.81 13.22265625  C 8.75 12.94921875  8.705 12.752278645833334  8.675 12.6318359375  C 8.645 12.511393229166668  8.586666666666668 12.353515625  8.5 12.158203125  C 8.413333333333334 11.962890625  8.31 11.806640625  8.19 11.689453125  C 7.9700000000000015 11.474609375  7.633333333333335 11.083984375000002  7.18 10.517578125  C 6.8533333333333335 10.100911458333332  6.5166666666666675 9.707031250000002  6.17 9.335937499999998  C 5.823333333333334 8.96484375  5.57 8.772786458333334  5.41 8.759765625  C 5.243333333333334 8.746744791666666  5.1000000000000005 8.680013020833332  4.98 8.559570312499998  C 4.86 8.439127604166666  4.800000000000001 8.297526041666664  4.8 8.134765624999998  L 4.8 1.875  C 4.800000000000001 1.7057291666666652  4.863333333333333 1.560872395833333  4.99 1.4404296875000004  C 5.116666666666667 1.3199869791666647  5.2666666666666675 1.2565104166666656  5.44 1.2500000000000004  C 5.673333333333334 1.2434895833333321  6.2 1.1002604166666647  7.02 0.8203125  C 7.533333333333334 0.6510416666666652  7.935 0.5224609374999994  8.225 0.43457031249999944  C 8.515 0.34667968749999944  8.92 0.2522786458333326  9.44 0.15136718750000056  C 9.96 0.050455729166665186  10.44 0  10.88 0  L 11.05 0  L 11.81 0  L 12.17 0  C 13.056666666666667 0.013020833333332038  13.713333333333335 0.2669270833333326  14.14 0.76171875  C 14.526666666666667 1.2109374999999996  14.69 1.8001302083333321  14.63 2.5292968749999996  C 14.89 2.7701822916666647  15.07 3.076171875  15.17 3.4472656250000004  C 15.283333333333335 3.844401041666665  15.283333333333335 4.225260416666665  15.17 4.589843750000001  C 15.47666666666667 4.986979166666665  15.620000000000003 5.432942708333332  15.6 5.927734374999999  Z " fill-rule="nonzero" fill="#ec808d" stroke="none" fill-opacity="0.7450980392156863" transform="matrix(1 0 0 1 198 1171 )" />
  </g>
</svg>