<?xml version="1.0" encoding="utf-8"?>
<svg version="1.1" xmlns:xlink="http://www.w3.org/1999/xlink" width="16px" height="15px" xmlns="http://www.w3.org/2000/svg">
  <g transform="matrix(1 0 0 1 -122 -1171 )">
    <path d="M 2.37 12.3193359375  C 2.496666666666667 12.198893229166668  2.56 12.05078125  2.56 11.875  C 2.56 11.705729166666668  2.496666666666667 11.559244791666668  2.37 11.435546875  C 2.2433333333333336 11.311848958333332  2.0933333333333333 11.25  1.92 11.25  C 1.74 11.25  1.5883333333333334 11.311848958333332  1.465 11.435546875  C 1.3416666666666668 11.559244791666668  1.28 11.705729166666668  1.28 11.875  C 1.28 12.05078125  1.3416666666666668 12.198893229166668  1.465 12.3193359375  C 1.5883333333333334 12.439778645833332  1.74 12.5  1.92 12.5  C 2.0933333333333333 12.5  2.2433333333333336 12.439778645833332  2.37 12.3193359375  Z M 3.97 6.435546875000001  C 4.096666666666667 6.559244791666666  4.16 6.705729166666666  4.16 6.875000000000001  L 4.16 13.125  C 4.16 13.294270833333334  4.096666666666667 13.440755208333334  3.97 13.564453125  C 3.8433333333333337 13.688151041666666  3.693333333333334 13.75  3.52 13.75  L 0.64 13.75  C 0.46666666666666673 13.75  0.31666666666666665 13.688151041666666  0.19 13.564453125  C 0.06333333333333332 13.440755208333334  0 13.294270833333334  0 13.125  L 0 6.875000000000001  C 0 6.705729166666666  0.06333333333333332 6.559244791666666  0.19 6.435546875000001  C 0.31666666666666665 6.311848958333334  0.46666666666666673 6.249999999999999  0.64 6.249999999999999  L 3.52 6.249999999999999  C 3.693333333333334 6.249999999999999  3.8433333333333337 6.311848958333334  3.97 6.435546875000001  Z M 15.43 5.556640625000001  C 15.81 5.927734374999999  16 6.367187499999999  16 6.875000000000001  C 16 7.434895833333333  15.816666666666668 7.919921875000001  15.45 8.330078125000002  C 15.550000000000002 8.616536458333332  15.600000000000001 8.863932291666666  15.6 9.072265624999998  C 15.620000000000003 9.567057291666666  15.47666666666667 10.013020833333332  15.17 10.410156250000002  C 15.283333333333335 10.774739583333332  15.283333333333335 11.155598958333332  15.17 11.552734375  C 15.07 11.923828125  14.89 12.229817708333332  14.63 12.470703125  C 14.69 13.199869791666668  14.526666666666667 13.7890625  14.14 14.23828125  C 13.713333333333335 14.733072916666668  13.056666666666667 14.986979166666668  12.17 15  L 11.81 15  L 11.05 15  L 10.88 15  C 10.44 15  9.96 14.949544270833334  9.44 14.8486328125  C 8.92 14.747721354166668  8.515 14.6533203125  8.225 14.5654296875  C 7.935 14.4775390625  7.533333333333334 14.348958333333334  7.02 14.1796875  C 6.2 13.899739583333332  5.673333333333334 13.756510416666668  5.44 13.75  C 5.2666666666666675 13.743489583333332  5.116666666666667 13.680013020833332  4.99 13.5595703125  C 4.863333333333333 13.439127604166666  4.800000000000001 13.294270833333334  4.8 13.125  L 4.8 6.865234374999999  C 4.800000000000001 6.702473958333333  4.86 6.560872395833332  4.98 6.440429687499999  C 5.1000000000000005 6.319986979166667  5.243333333333334 6.253255208333332  5.41 6.240234375  C 5.57 6.227213541666664  5.823333333333334 6.035156249999998  6.17 5.664062499999999  C 6.5166666666666675 5.292968749999999  6.8533333333333335 4.899088541666665  7.18 4.482421875  C 7.633333333333335 3.9160156250000004  7.9700000000000015 3.5253906249999996  8.19 3.310546875  C 8.31 3.193359375  8.413333333333334 3.0371093750000004  8.5 2.841796875  C 8.586666666666668 2.6464843749999996  8.645 2.488606770833332  8.675 2.3681640624999996  C 8.705 2.247721354166665  8.75 2.05078125  8.81 1.7773437500000004  C 8.856666666666667 1.5234375  8.898333333333335 1.3248697916666652  8.935 1.1816406249999996  C 8.971666666666668 1.0384114583333321  9.036666666666667 0.8691406250000006  9.13 0.673828125  C 9.223333333333334 0.47851562499999944  9.336666666666668 0.31575520833333315  9.47 0.18554687499999944  C 9.596666666666668 0.06184895833333259  9.746666666666668 0  9.92 0  C 10.226666666666667 0  10.501666666666667 0.034179687500000555  10.745 0.1025390625  C 10.988333333333335 0.17089843749999944  11.188333333333334 0.2555338541666652  11.345 0.35644531250000056  C 11.501666666666667 0.4573567708333326  11.635 0.5891927083333326  11.745 0.7519531250000006  C 11.855 0.9147135416666652  11.935 1.0611979166666652  11.985 1.1914062500000004  C 12.035 1.3216145833333326  12.075 1.4843750000000004  12.105 1.6796874999999996  C 12.135 1.875  12.151666666666667 2.021484375  12.155 2.1191406249999996  C 12.158333333333335 2.2167968750000004  12.16 2.34375  12.16 2.4999999999999996  C 12.16 2.747395833333333  12.128333333333336 2.994791666666665  12.065 3.2421875000000004  C 12.001666666666667 3.4895833333333326  11.938333333333334 3.684895833333333  11.875 3.8281250000000004  C 11.811666666666667 3.9713541666666647  11.72 4.153645833333333  11.6 4.374999999999999  C 11.58 4.414062500000001  11.546666666666667 4.472656250000001  11.5 4.550781249999999  C 11.453333333333335 4.62890625  11.416666666666668 4.700520833333332  11.39 4.765625000000001  C 11.363333333333335 4.830729166666666  11.336666666666668 4.908854166666664  11.31 5.000000000000001  L 14.08 5.000000000000001  C 14.6 5.000000000000001  15.05 5.185546875  15.43 5.556640625000001  Z " fill-rule="nonzero" fill="#ec808d" stroke="none" fill-opacity="0.6627450980392157" transform="matrix(1 0 0 1 122 1171 )" />
  </g>
</svg>