<?xml version="1.0" encoding="utf-8"?>
<svg version="1.1" xmlns:xlink="http://www.w3.org/1999/xlink" width="20px" height="15px" xmlns="http://www.w3.org/2000/svg">
  <g transform="matrix(1 0 0 1 -122 -1206 )">
    <path d="M 14.665178571428573 2.7146912704045425  C 15.364583333333336 3.5521646557842423  15.714285714285714 4.46415897799858  15.714285714285714 5.450674237047551  C 15.714285714285714 6.437189496096521  15.364583333333336 7.349183818310857  14.665178571428573 8.186657203690562  C 13.965773809523812 9.02413058907026  13.011532738095239 9.68594748048261  11.802455357142858 10.172107877927608  C 10.593377976190476 10.658268275372603  9.27827380952381 10.901348474095103  7.857142857142857 10.901348474095103  C 7.217261904761906 10.901348474095103  6.5625 10.844570617459189  5.892857142857143 10.731014904187369  C 4.970238095238096 11.3555713271824  3.936011904761905 11.809794180269694  2.7901785714285716 12.093683463449254  C 2.5223214285714284 12.157558552164657  2.2023809523809526 12.214336408800566  1.8303571428571428 12.26401703335699  L 1.796875 12.26401703335699  C 1.7150297619047623 12.26401703335699  1.6387648809523812 12.235628105039035  1.5680803571428572 12.178850248403123  C 1.4973958333333335 12.122072391767212  1.4546130952380953 12.047551454932577  1.4397321428571428 11.95528743789922  C 1.432291666666667 11.933995741660752  1.4285714285714284 11.910929737402412  1.4285714285714284 11.886089425124203  C 1.4285714285714284 11.861249112845991  1.430431547619048 11.838183108587652  1.4341517857142858 11.816891412349182  C 1.4378720238095237 11.795599716110717  1.4453125 11.774308019872251  1.4564732142857142 11.753016323633783  L 1.484375 11.699787083037616  C 1.484375 11.699787083037616  1.4973958333333335 11.680269694819021  1.5234375 11.64123491838183  C 1.549479166666667 11.60220014194464  1.564360119047619 11.58445706174592  1.5680803571428572 11.588005677785665  C 1.5718005952380953 11.591554293825407  1.588541666666667 11.573811213626687  1.6183035714285716 11.534776437189496  C 1.6480654761904765 11.495741660752305  1.6629464285714284 11.479772888573457  1.6629464285714284 11.486870120652945  C 1.7001488095238095 11.44428672817601  1.7857142857142858 11.355571327182398  1.9196428571428572 11.220723917672107  C 2.0535714285714284 11.085876508161816  2.150297619047619 10.981192334989355  2.2098214285714284 10.906671398154721  C 2.269345238095238 10.832150461320087  2.3530505952380953 10.729240596167493  2.4609375 10.597941802696948  C 2.568824404761905 10.4666430092264  2.6618303571428568 10.330021291696237  2.7399553571428568 10.18807665010646  C 2.8180803571428568 10.046132008516677  2.894345238095238 9.889992902767922  2.96875 9.719659332860184  C 2.046130952380952 9.208658623136976  1.3206845238095237 8.5805535841022  0.7924107142857142 7.835344215755855  C 0.2641369047619047 7.0901348474095105  0 6.295244854506741  0 5.450674237047551  C 0 4.46415897799858  0.34970238095238093 3.5521646557842423  1.0491071428571428 2.7146912704045425  C 1.7485119047619049 1.8772178850248389  2.7027529761904763 1.2154009936124894  3.9118303571428568 0.7292405961674953  C 5.120907738095238 0.24308019872249786  6.436011904761906 0  7.857142857142857 0  C 9.27827380952381 0  10.593377976190476 0.24308019872249786  11.802455357142858 0.7292405961674953  C 13.011532738095239 1.2154009936124894  13.965773809523812 1.8772178850248389  14.665178571428573 2.7146912704045425  Z M 19.162946428571427 5.727466288147623  C 19.720982142857142 6.486870120652944  20 7.30305180979418  20 8.176011355571328  C 20 9.027679205110006  19.7358630952381 9.824343506032646  19.207589285714285 10.566004258339246  C 18.679315476190478 11.307665010645849  17.95386904761905 11.933995741660752  17.03125 12.444996451383961  C 17.10565476190476 12.615330021291696  17.181919642857142 12.771469127040454  17.260044642857142 12.913413768630233  C 17.338169642857146 13.055358410220014  17.4311755952381 13.19198012775018  17.5390625 13.323278921220725  C 17.646949404761905 13.454577714691268  17.730654761904763 13.55748757984386  17.790178571428573 13.632008516678495  C 17.849702380952383 13.706529453513129  17.946428571428573 13.811213626685593  18.080357142857142 13.946061036195884  C 18.214285714285715 14.080908445706175  18.299851190476193 14.169623846699787  18.337053571428573 14.21220723917672  C 18.34449404761905 14.219304471256212  18.359375000000004 14.235273243435062  18.381696428571427 14.260113555713273  C 18.40401785714286 14.284953867991483  18.42075892857143 14.302696948190206  18.431919642857142 14.313342796309438  C 18.44308035714286 14.323988644428672  18.45796130952381 14.341731724627396  18.4765625 14.366572036905607  C 18.49516369047619 14.391412349183817  18.508184523809526 14.410929737402412  18.515625 14.42512420156139  L 18.543526785714285 14.478353442157559  C 18.543526785714285 14.478353442157559  18.550967261904763 14.499645138396025  18.565848214285715 14.54222853087296  C 18.580729166666668 14.584811923349893  18.582589285714285 14.607877927608234  18.571428571428573 14.611426543647976  C 18.560267857142858 14.61497515968772  18.55654761904762 14.638041163946061  18.560267857142858 14.680624556422995  C 18.537946428571427 14.77998580553584  18.489583333333336 14.85805535841022  18.415178571428573 14.914833215046132  C 18.34077380952381 14.971611071682043  18.258928571428573 14.996451383960256  18.169642857142858 14.989354151880766  C 17.79761904761905 14.939673527324343  17.477678571428573 14.88289567068843  17.209821428571427 14.819020581973032  C 16.0639880952381 14.53513129879347  15.029761904761905 14.080908445706175  14.107142857142858 13.456352022711142  C 13.4375 13.569907735982968  12.782738095238098 13.626685592618879  12.142857142857142 13.626685592618879  C 10.126488095238095 13.626685592618879  8.370535714285714 13.158268275372604  6.875 12.221433640880058  C 7.3065476190476195 12.249822569198013  7.633928571428571 12.26401703335699  7.857142857142857 12.26401703335699  C 9.055059523809524 12.26401703335699  10.204613095238095 12.104329311568488  11.305803571428573 11.784953867991483  C 12.40699404761905 11.46557842441448  13.389136904761905 11.007806955287439  14.252232142857142 10.411639460610363  C 15.182291666666668 9.758694109297373  15.896577380952383 9.00638750887154  16.395089285714285 8.15471965933286  C 16.89360119047619 7.30305180979418  17.142857142857142 6.401703335699076  17.142857142857142 5.450674237047551  C 17.142857142857142 4.904187366926898  17.057291666666664 4.364797728885734  16.886160714285715 3.8325053229240593  C 17.845982142857142 4.336408800567778  18.604910714285715 4.968062455642299  19.162946428571427 5.727466288147623  Z " fill-rule="nonzero" fill="#7f7f7f" stroke="none" transform="matrix(1 0 0 1 122 1206 )" />
  </g>
</svg>