<?xml version="1.0" encoding="utf-8"?>
<svg version="1.1" xmlns:xlink="http://www.w3.org/1999/xlink" width="48px" height="10px" preserveAspectRatio="xMinYMid meet" viewBox="445 260  48 8" xmlns="http://www.w3.org/2000/svg">
  <path d="M 409 251.5  L 445 251.5  A 5 5 0 0 1 450.5 256.5 L 450.5 259  A 5 5 0 0 0 455.5 264.5 L 488 264.5  " stroke-width="1" stroke-dasharray="3,1" stroke="#d9001b" fill="none" stroke-opacity="0.8313725490196079" />
  <path d="M 411 248.5  A 3 3 0 0 0 408 251.5 A 3 3 0 0 0 411 254.5 A 3 3 0 0 0 414 251.5 A 3 3 0 0 0 411 248.5 Z M 487 270.8  L 493 264.5  L 487 258.2  L 487 270.8  Z " fill-rule="nonzero" fill="#d9001b" stroke="none" fill-opacity="0.8313725490196079" />
</svg>