<?xml version="1.0" encoding="utf-8"?>
<svg version="1.1" xmlns:xlink="http://www.w3.org/1999/xlink" width="18px" height="18px" preserveAspectRatio="xMinYMid meet" viewBox="279 367  18 16" xmlns="http://www.w3.org/2000/svg">
  <path d="M 286 375.5  L 384 375.5  A 5 5 0 0 0 389.5 370.5 L 389.5 363  A 5 5 0 0 1 394.5 358.5 L 488 358.5  " stroke-width="1" stroke-dasharray="3,1" stroke="#d9001b" fill="none" stroke-opacity="0.8313725490196079" />
  <path d="M 288 372.5  A 3 3 0 0 0 285 375.5 A 3 3 0 0 0 288 378.5 A 3 3 0 0 0 291 375.5 A 3 3 0 0 0 288 372.5 Z M 487 364.8  L 493 358.5  L 487 352.2  L 487 364.8  Z " fill-rule="nonzero" fill="#d9001b" stroke="none" fill-opacity="0.8313725490196079" />
</svg>