<?xml version="1.0" encoding="utf-8"?>
<svg version="1.1" xmlns:xlink="http://www.w3.org/1999/xlink" width="18px" height="18px" preserveAspectRatio="xMinYMid meet" viewBox="226 509  18 16" xmlns="http://www.w3.org/2000/svg">
  <path d="M 233 517.5  L 357 517.5  A 5 5 0 0 0 362.5 512.5 L 362.5 460  A 5 5 0 0 1 367.5 455.5 L 488 455.5  " stroke-width="1" stroke-dasharray="3,1" stroke="#d9001b" fill="none" stroke-opacity="0.8313725490196079" />
  <path d="M 235 514.5  A 3 3 0 0 0 232 517.5 A 3 3 0 0 0 235 520.5 A 3 3 0 0 0 238 517.5 A 3 3 0 0 0 235 514.5 Z M 487 461.8  L 493 455.5  L 487 449.2  L 487 461.8  Z " fill-rule="nonzero" fill="#d9001b" stroke="none" fill-opacity="0.8313725490196079" />
</svg>