<?xml version="1.0" encoding="utf-8"?>
<svg version="1.1" xmlns:xlink="http://www.w3.org/1999/xlink" width="54px" height="10px" preserveAspectRatio="xMinYMid meet" viewBox="171 2798  54 8" xmlns="http://www.w3.org/2000/svg">
  <path d="M 172 2802.5  L 215 2802.5  A 5 5 0 0 0 220.5 2797.5 L 220.5 2785  A 5 5 0 0 1 225.5 2780.5 L 272 2780.5  " stroke-width="1" stroke-dasharray="3,1" stroke="#d9001b" fill="none" stroke-opacity="0.8313725490196079" />
  <path d="M 174 2799.5  A 3 3 0 0 0 171 2802.5 A 3 3 0 0 0 174 2805.5 A 3 3 0 0 0 177 2802.5 A 3 3 0 0 0 174 2799.5 Z M 271 2786.8  L 277 2780.5  L 271 2774.2  L 271 2786.8  Z " fill-rule="nonzero" fill="#d9001b" stroke="none" fill-opacity="0.8313725490196079" />
</svg>