<?xml version="1.0" encoding="utf-8"?>
<svg version="1.1" xmlns:xlink="http://www.w3.org/1999/xlink" width="18px" height="18px" preserveAspectRatio="xMinYMid meet" viewBox="375 2663  18 16" xmlns="http://www.w3.org/2000/svg">
  <path d="M 382 2671.5  L 429 2671.5  A 5 5 0 0 1 434.5 2676.5 L 434.5 2699  A 5 5 0 0 0 439.5 2704.5 L 482 2704.5  " stroke-width="1" stroke-dasharray="3,1" stroke="#d9001b" fill="none" stroke-opacity="0.8313725490196079" />
  <path d="M 384 2668.5  A 3 3 0 0 0 381 2671.5 A 3 3 0 0 0 384 2674.5 A 3 3 0 0 0 387 2671.5 A 3 3 0 0 0 384 2668.5 Z M 481 2710.8  L 487 2704.5  L 481 2698.2  L 481 2710.8  Z " fill-rule="nonzero" fill="#d9001b" stroke="none" fill-opacity="0.8313725490196079" />
</svg>