<?xml version="1.0" encoding="utf-8"?>
<svg version="1.1" xmlns:xlink="http://www.w3.org/1999/xlink" width="58px" height="10px" preserveAspectRatio="xMinYMid meet" viewBox="429 2743  58 8" xmlns="http://www.w3.org/2000/svg">
  <path d="M 382 2780.5  L 429 2780.5  A 5 5 0 0 0 434.5 2775.5 L 434.5 2752  A 5 5 0 0 1 439.5 2747.5 L 482 2747.5  " stroke-width="1" stroke-dasharray="3,1" stroke="#d9001b" fill="none" stroke-opacity="0.8313725490196079" />
  <path d="M 384 2777.5  A 3 3 0 0 0 381 2780.5 A 3 3 0 0 0 384 2783.5 A 3 3 0 0 0 387 2780.5 A 3 3 0 0 0 384 2777.5 Z M 481 2753.8  L 487 2747.5  L 481 2741.2  L 481 2753.8  Z " fill-rule="nonzero" fill="#d9001b" stroke="none" fill-opacity="0.8313725490196079" />
</svg>