<?xml version="1.0" encoding="utf-8"?>
<svg version="1.1" xmlns:xlink="http://www.w3.org/1999/xlink" width="19px" height="18px" preserveAspectRatio="xMinYMid meet" viewBox="475 2805  19 16" xmlns="http://www.w3.org/2000/svg">
  <path d="M 382 2780.5  L 429 2780.5  A 5 5 0 0 1 434.5 2785.5 L 434.5 2808  A 5 5 0 0 0 439.5 2813.5 L 483 2813.5  " stroke-width="1" stroke-dasharray="3,1" stroke="#d9001b" fill="none" stroke-opacity="0.8313725490196079" />
  <path d="M 384 2777.5  A 3 3 0 0 0 381 2780.5 A 3 3 0 0 0 384 2783.5 A 3 3 0 0 0 387 2780.5 A 3 3 0 0 0 384 2777.5 Z M 482 2819.8  L 488 2813.5  L 482 2807.2  L 482 2819.8  Z " fill-rule="nonzero" fill="#d9001b" stroke="none" fill-opacity="0.8313725490196079" />
</svg>