<?xml version="1.0" encoding="utf-8"?>
<svg version="1.1" xmlns:xlink="http://www.w3.org/1999/xlink" width="19px" height="18px" preserveAspectRatio="xMinYMid meet" viewBox="475 2853  19 16" xmlns="http://www.w3.org/2000/svg">
  <path d="M 382 2878.5  L 429 2878.5  A 5 5 0 0 0 434.5 2873.5 L 434.5 2866  A 5 5 0 0 1 439.5 2861.5 L 483 2861.5  " stroke-width="1" stroke-dasharray="3,1" stroke="#d9001b" fill="none" stroke-opacity="0.8313725490196079" />
  <path d="M 384 2875.5  A 3 3 0 0 0 381 2878.5 A 3 3 0 0 0 384 2881.5 A 3 3 0 0 0 387 2878.5 A 3 3 0 0 0 384 2875.5 Z M 482 2867.8  L 488 2861.5  L 482 2855.2  L 482 2867.8  Z " fill-rule="nonzero" fill="#d9001b" stroke="none" fill-opacity="0.8313725490196079" />
</svg>