<?xml version="1.0" encoding="utf-8"?>
<svg version="1.1" xmlns:xlink="http://www.w3.org/1999/xlink" width="18px" height="18px" preserveAspectRatio="xMinYMid meet" viewBox="375 3038  18 16" xmlns="http://www.w3.org/2000/svg">
  <path d="M 382 3046.5  L 429 3046.5  A 5 5 0 0 0 434.5 3041.5 L 434.5 3017  A 5 5 0 0 1 439.5 3012.5 L 483 3012.5  " stroke-width="1" stroke-dasharray="3,1" stroke="#d9001b" fill="none" stroke-opacity="0.8313725490196079" />
  <path d="M 384 3043.5  A 3 3 0 0 0 381 3046.5 A 3 3 0 0 0 384 3049.5 A 3 3 0 0 0 387 3046.5 A 3 3 0 0 0 384 3043.5 Z M 482 3018.8  L 488 3012.5  L 482 3006.2  L 482 3018.8  Z " fill-rule="nonzero" fill="#d9001b" stroke="none" fill-opacity="0.8313725490196079" />
</svg>