<?xml version="1.0" encoding="utf-8"?>
<svg version="1.1" xmlns:xlink="http://www.w3.org/1999/xlink" width="18px" height="18px" preserveAspectRatio="xMinYMid meet" viewBox="375 3165  18 16" xmlns="http://www.w3.org/2000/svg">
  <path d="M 382 3173.5  L 429 3173.5  A 5 5 0 0 0 434.5 3168.5 L 434.5 3144  A 5 5 0 0 1 439.5 3139.5 L 483 3139.5  " stroke-width="1" stroke-dasharray="3,1" stroke="#d9001b" fill="none" stroke-opacity="0.8313725490196079" />
  <path d="M 384 3170.5  A 3 3 0 0 0 381 3173.5 A 3 3 0 0 0 384 3176.5 A 3 3 0 0 0 387 3173.5 A 3 3 0 0 0 384 3170.5 Z M 482 3145.8  L 488 3139.5  L 482 3133.2  L 482 3145.8  Z " fill-rule="nonzero" fill="#d9001b" stroke="none" fill-opacity="0.8313725490196079" />
</svg>