<?xml version="1.0" encoding="utf-8"?>
<svg version="1.1" xmlns:xlink="http://www.w3.org/1999/xlink" width="10px" height="61px" preserveAspectRatio="xMidYMin meet" viewBox="430 3317  8 61" xmlns="http://www.w3.org/2000/svg">
  <path d="M 382 3322.5  L 429 3322.5  A 5 5 0 0 1 434.5 3327.5 L 434.5 3368  A 5 5 0 0 0 439.5 3373.5 L 483 3373.5  " stroke-width="1" stroke-dasharray="3,1" stroke="#d9001b" fill="none" stroke-opacity="0.8313725490196079" />
  <path d="M 384 3319.5  A 3 3 0 0 0 381 3322.5 A 3 3 0 0 0 384 3325.5 A 3 3 0 0 0 387 3322.5 A 3 3 0 0 0 384 3319.5 Z M 482 3379.8  L 488 3373.5  L 482 3367.2  L 482 3379.8  Z " fill-rule="nonzero" fill="#d9001b" stroke="none" fill-opacity="0.8313725490196079" />
</svg>