<?xml version="1.0" encoding="utf-8"?>
<svg version="1.1" xmlns:xlink="http://www.w3.org/1999/xlink" width="58px" height="10px" preserveAspectRatio="xMinYMid meet" viewBox="381 3436  58 8" xmlns="http://www.w3.org/2000/svg">
  <path d="M 382 3440.5  L 429 3440.5  A 5 5 0 0 0 434.5 3435.5 L 434.5 3428  A 5 5 0 0 1 439.5 3423.5 L 483 3423.5  " stroke-width="1" stroke-dasharray="3,1" stroke="#d9001b" fill="none" stroke-opacity="0.8313725490196079" />
  <path d="M 384 3437.5  A 3 3 0 0 0 381 3440.5 A 3 3 0 0 0 384 3443.5 A 3 3 0 0 0 387 3440.5 A 3 3 0 0 0 384 3437.5 Z M 482 3429.8  L 488 3423.5  L 482 3417.2  L 482 3429.8  Z " fill-rule="nonzero" fill="#d9001b" stroke="none" fill-opacity="0.8313725490196079" />
</svg>