<?xml version="1.0" encoding="utf-8"?>
<svg version="1.1" xmlns:xlink="http://www.w3.org/1999/xlink" width="63px" height="10px" preserveAspectRatio="xMinYMid meet" viewBox="425 3835  63 8" xmlns="http://www.w3.org/2000/svg">
  <path d="M 382 3690.5  L 425 3690.5  A 5 5 0 0 1 430.5 3695.5 L 430.5 3834  A 5 5 0 0 0 435.5 3839.5 L 483 3839.5  " stroke-width="1" stroke-dasharray="3,1" stroke="#d9001b" fill="none" stroke-opacity="0.8313725490196079" />
  <path d="M 384 3687.5  A 3 3 0 0 0 381 3690.5 A 3 3 0 0 0 384 3693.5 A 3 3 0 0 0 387 3690.5 A 3 3 0 0 0 384 3687.5 Z M 482 3845.8  L 488 3839.5  L 482 3833.2  L 482 3845.8  Z " fill-rule="nonzero" fill="#d9001b" stroke="none" fill-opacity="0.8313725490196079" />
</svg>