<?xml version="1.0" encoding="utf-8"?>
<svg version="1.1" xmlns:xlink="http://www.w3.org/1999/xlink" width="24px" height="10px" preserveAspectRatio="xMinYMid meet" viewBox="605 3574  24 8" xmlns="http://www.w3.org/2000/svg">
  <path d="M 593 3540.5  L 605 3540.5  A 5 5 0 0 1 610.5 3545.5 L 610.5 3573  A 5 5 0 0 0 615.5 3578.5 L 624 3578.5  " stroke-width="1" stroke-dasharray="3,1" stroke="#d9001b" fill="none" stroke-opacity="0.8313725490196079" />
  <path d="M 595 3537.5  A 3 3 0 0 0 592 3540.5 A 3 3 0 0 0 595 3543.5 A 3 3 0 0 0 598 3540.5 A 3 3 0 0 0 595 3537.5 Z M 623 3584.8  L 629 3578.5  L 623 3572.2  L 623 3584.8  Z " fill-rule="nonzero" fill="#d9001b" stroke="none" fill-opacity="0.8313725490196079" />
</svg>