<?xml version="1.0" encoding="utf-8"?>
<svg version="1.1" xmlns:xlink="http://www.w3.org/1999/xlink" width="18px" height="18px" preserveAspectRatio="xMinYMid meet" viewBox="586 3621  18 16" xmlns="http://www.w3.org/2000/svg">
  <path d="M 593 3629.5  L 605 3629.5  A 5 5 0 0 1 610.5 3634.5 L 610.5 3637  A 5 5 0 0 0 615.5 3642.5 L 624 3642.5  " stroke-width="1" stroke-dasharray="3,1" stroke="#d9001b" fill="none" stroke-opacity="0.8313725490196079" />
  <path d="M 595 3626.5  A 3 3 0 0 0 592 3629.5 A 3 3 0 0 0 595 3632.5 A 3 3 0 0 0 598 3629.5 A 3 3 0 0 0 595 3626.5 Z M 623 3648.8  L 629 3642.5  L 623 3636.2  L 623 3648.8  Z " fill-rule="nonzero" fill="#d9001b" stroke="none" fill-opacity="0.8313725490196079" />
</svg>