<?xml version="1.0" encoding="utf-8"?>
<svg version="1.1" xmlns:xlink="http://www.w3.org/1999/xlink" width="23px" height="10px" preserveAspectRatio="xMinYMid meet" viewBox="592 3715  23 8" xmlns="http://www.w3.org/2000/svg">
  <path d="M 593 3719.5  L 605 3719.5  A 5 5 0 0 1 610.5 3724.5 L 610.5 3727  A 5 5 0 0 0 615.5 3732.5 L 624 3732.5  " stroke-width="1" stroke-dasharray="3,1" stroke="#d9001b" fill="none" stroke-opacity="0.8313725490196079" />
  <path d="M 595 3716.5  A 3 3 0 0 0 592 3719.5 A 3 3 0 0 0 595 3722.5 A 3 3 0 0 0 598 3719.5 A 3 3 0 0 0 595 3716.5 Z M 623 3738.8  L 629 3732.5  L 623 3726.2  L 623 3738.8  Z " fill-rule="nonzero" fill="#d9001b" stroke="none" fill-opacity="0.8313725490196079" />
</svg>