<?xml version="1.0" encoding="utf-8"?>
<svg version="1.1" xmlns:xlink="http://www.w3.org/1999/xlink" width="18px" height="18px" preserveAspectRatio="xMinYMid meet" viewBox="586 3831  18 16" xmlns="http://www.w3.org/2000/svg">
  <path d="M 593 3839.5  L 605 3839.5  A 5 5 0 0 1 610.5 3844.5 L 610.5 3847  A 5 5 0 0 0 615.5 3852.5 L 624 3852.5  " stroke-width="1" stroke-dasharray="3,1" stroke="#d9001b" fill="none" stroke-opacity="0.8313725490196079" />
  <path d="M 595 3836.5  A 3 3 0 0 0 592 3839.5 A 3 3 0 0 0 595 3842.5 A 3 3 0 0 0 598 3839.5 A 3 3 0 0 0 595 3836.5 Z M 623 3858.8  L 629 3852.5  L 623 3846.2  L 623 3858.8  Z " fill-rule="nonzero" fill="#d9001b" stroke="none" fill-opacity="0.8313725490196079" />
</svg>