<?xml version="1.0" encoding="utf-8"?>
<svg version="1.1" xmlns:xlink="http://www.w3.org/1999/xlink" width="10px" height="133px" preserveAspectRatio="xMidYMin meet" viewBox="216 3435  8 133" xmlns="http://www.w3.org/2000/svg">
  <path d="M 172 3563.5  L 215 3563.5  A 5 5 0 0 0 220.5 3558.5 L 220.5 3445  A 5 5 0 0 1 225.5 3440.5 L 272 3440.5  " stroke-width="1" stroke-dasharray="3,1" stroke="#d9001b" fill="none" stroke-opacity="0.8313725490196079" />
  <path d="M 174 3560.5  A 3 3 0 0 0 171 3563.5 A 3 3 0 0 0 174 3566.5 A 3 3 0 0 0 177 3563.5 A 3 3 0 0 0 174 3560.5 Z M 271 3446.8  L 277 3440.5  L 271 3434.2  L 271 3446.8  Z " fill-rule="nonzero" fill="#d9001b" stroke="none" fill-opacity="0.8313725490196079" />
</svg>