<?xml version="1.0" encoding="utf-8"?>
<svg version="1.1" xmlns:xlink="http://www.w3.org/1999/xlink" width="10px" height="23px" preserveAspectRatio="xMidYMin meet" viewBox="606 3924  8 23" xmlns="http://www.w3.org/2000/svg">
  <path d="M 593 3929.5  L 605 3929.5  A 5 5 0 0 1 610.5 3934.5 L 610.5 3937  A 5 5 0 0 0 615.5 3942.5 L 618 3942.5  " stroke-width="1" stroke-dasharray="3,1" stroke="#d9001b" fill="none" stroke-opacity="0.8313725490196079" />
  <path d="M 595 3926.5  A 3 3 0 0 0 592 3929.5 A 3 3 0 0 0 595 3932.5 A 3 3 0 0 0 598 3929.5 A 3 3 0 0 0 595 3926.5 Z M 617 3948.8  L 623 3942.5  L 617 3936.2  L 617 3948.8  Z " fill-rule="nonzero" fill="#d9001b" stroke="none" fill-opacity="0.8313725490196079" />
</svg>