<?xml version="1.0" encoding="utf-8"?>
<svg version="1.1" xmlns:xlink="http://www.w3.org/1999/xlink" width="59px" height="10px" preserveAspectRatio="xMinYMid meet" viewBox="429 4013  59 8" xmlns="http://www.w3.org/2000/svg">
  <path d="M 382 3973.5  L 429 3973.5  A 5 5 0 0 1 434.5 3978.5 L 434.5 4012  A 5 5 0 0 0 439.5 4017.5 L 483 4017.5  " stroke-width="1" stroke-dasharray="3,1" stroke="#d9001b" fill="none" stroke-opacity="0.8313725490196079" />
  <path d="M 384 3970.5  A 3 3 0 0 0 381 3973.5 A 3 3 0 0 0 384 3976.5 A 3 3 0 0 0 387 3973.5 A 3 3 0 0 0 384 3970.5 Z M 482 4023.8  L 488 4017.5  L 482 4011.2  L 482 4023.8  Z " fill-rule="nonzero" fill="#d9001b" stroke="none" fill-opacity="0.8313725490196079" />
</svg>