<?xml version="1.0" encoding="utf-8"?>
<svg version="1.1" xmlns:xlink="http://www.w3.org/1999/xlink" width="18px" height="18px" preserveAspectRatio="xMinYMid meet" viewBox="375 4182  18 16" xmlns="http://www.w3.org/2000/svg">
  <path d="M 382 4190.5  L 412 4190.5  A 5 5 0 0 1 417.5 4195.5 L 417.5 4204  A 5 5 0 0 0 422.5 4209.5 L 449 4209.5  " stroke-width="1" stroke-dasharray="3,1" stroke="#d9001b" fill="none" stroke-opacity="0.8313725490196079" />
  <path d="M 384 4187.5  A 3 3 0 0 0 381 4190.5 A 3 3 0 0 0 384 4193.5 A 3 3 0 0 0 387 4190.5 A 3 3 0 0 0 384 4187.5 Z M 448 4215.8  L 454 4209.5  L 448 4203.2  L 448 4215.8  Z " fill-rule="nonzero" fill="#d9001b" stroke="none" fill-opacity="0.8313725490196079" />
</svg>