<?xml version="1.0" encoding="utf-8"?>
<svg version="1.1" xmlns:xlink="http://www.w3.org/1999/xlink" width="34px" height="10px" preserveAspectRatio="xMinYMid meet" viewBox="381 4313  34 8" xmlns="http://www.w3.org/2000/svg">
  <path d="M 382 4317.5  L 405 4317.5  A 5 5 0 0 0 410.5 4312.5 L 410.5 4266  A 5 5 0 0 1 415.5 4261.5 L 449 4261.5  " stroke-width="1" stroke-dasharray="3,1" stroke="#d9001b" fill="none" stroke-opacity="0.8313725490196079" />
  <path d="M 384 4314.5  A 3 3 0 0 0 381 4317.5 A 3 3 0 0 0 384 4320.5 A 3 3 0 0 0 387 4317.5 A 3 3 0 0 0 384 4314.5 Z M 448 4267.8  L 454 4261.5  L 448 4255.2  L 448 4267.8  Z " fill-rule="nonzero" fill="#d9001b" stroke="none" fill-opacity="0.8313725490196079" />
</svg>