<?xml version="1.0" encoding="utf-8"?>
<svg version="1.1" xmlns:xlink="http://www.w3.org/1999/xlink" width="19px" height="18px" preserveAspectRatio="xMinYMid meet" viewBox="441 4364  19 16" xmlns="http://www.w3.org/2000/svg">
  <path d="M 382 4317.5  L 405 4317.5  A 5 5 0 0 1 410.5 4322.5 L 410.5 4367  A 5 5 0 0 0 415.5 4372.5 L 449 4372.5  " stroke-width="1" stroke-dasharray="3,1" stroke="#d9001b" fill="none" stroke-opacity="0.8313725490196079" />
  <path d="M 384 4314.5  A 3 3 0 0 0 381 4317.5 A 3 3 0 0 0 384 4320.5 A 3 3 0 0 0 387 4317.5 A 3 3 0 0 0 384 4314.5 Z M 448 4378.8  L 454 4372.5  L 448 4366.2  L 448 4378.8  Z " fill-rule="nonzero" fill="#d9001b" stroke="none" fill-opacity="0.8313725490196079" />
</svg>