<?xml version="1.0" encoding="utf-8"?>
<svg version="1.1" xmlns:xlink="http://www.w3.org/1999/xlink" width="28px" height="10px" preserveAspectRatio="xMinYMid meet" viewBox="575 4881  28 8" xmlns="http://www.w3.org/2000/svg">
  <path d="M 559 4904.5  L 575 4904.5  A 5 5 0 0 0 580.5 4899.5 L 580.5 4890  A 5 5 0 0 1 585.5 4885.5 L 598 4885.5  " stroke-width="1" stroke-dasharray="3,1" stroke="#d9001b" fill="none" stroke-opacity="0.8313725490196079" />
  <path d="M 561 4901.5  A 3 3 0 0 0 558 4904.5 A 3 3 0 0 0 561 4907.5 A 3 3 0 0 0 564 4904.5 A 3 3 0 0 0 561 4901.5 Z M 597 4891.8  L 603 4885.5  L 597 4879.2  L 597 4891.8  Z " fill-rule="nonzero" fill="#d9001b" stroke="none" fill-opacity="0.8313725490196079" />
</svg>