<?xml version="1.0" encoding="utf-8"?>
<svg version="1.1" xmlns:xlink="http://www.w3.org/1999/xlink" width="42px" height="10px" preserveAspectRatio="xMinYMid meet" viewBox="412 4611  42 8" xmlns="http://www.w3.org/2000/svg">
  <path d="M 453 4615.5  L 422 4615.5  A 5 5 0 0 1 417.5 4610.5 L 417.5 4603  A 5 5 0 0 0 412.5 4598.5 L 386 4598.5  " stroke-width="1" stroke-dasharray="3,1" stroke="#d9001b" fill="none" stroke-opacity="0.8313725490196079" />
  <path d="M 451 4612.5  A 3 3 0 0 0 448 4615.5 A 3 3 0 0 0 451 4618.5 A 3 3 0 0 0 454 4615.5 A 3 3 0 0 0 451 4612.5 Z M 387 4592.2  L 381 4598.5  L 387 4604.8  L 387 4592.2  Z " fill-rule="nonzero" fill="#d9001b" stroke="none" fill-opacity="0.8313725490196079" />
</svg>