<?xml version="1.0" encoding="utf-8"?>
<svg version="1.1" xmlns:xlink="http://www.w3.org/1999/xlink" width="42px" height="10px" preserveAspectRatio="xMinYMid meet" viewBox="412 4771  42 8" xmlns="http://www.w3.org/2000/svg">
  <path d="M 453 4775.5  L 422 4775.5  A 5 5 0 0 1 417.5 4770.5 L 417.5 4743  A 5 5 0 0 0 412.5 4738.5 L 386 4738.5  " stroke-width="1" stroke-dasharray="3,1" stroke="#d9001b" fill="none" stroke-opacity="0.8313725490196079" />
  <path d="M 451 4772.5  A 3 3 0 0 0 448 4775.5 A 3 3 0 0 0 451 4778.5 A 3 3 0 0 0 454 4775.5 A 3 3 0 0 0 451 4772.5 Z M 387 4732.2  L 381 4738.5  L 387 4744.8  L 387 4732.2  Z " fill-rule="nonzero" fill="#d9001b" stroke="none" fill-opacity="0.8313725490196079" />
</svg>