<?xml version="1.0" encoding="utf-8"?>
<svg version="1.1" xmlns:xlink="http://www.w3.org/1999/xlink" width="10px" height="48px" preserveAspectRatio="xMidYMin meet" viewBox="413 4861  8 48" xmlns="http://www.w3.org/2000/svg">
  <path d="M 453 4866.5  L 422 4866.5  A 5 5 0 0 0 417.5 4871.5 L 417.5 4899  A 5 5 0 0 1 412.5 4904.5 L 386 4904.5  " stroke-width="1" stroke-dasharray="3,1" stroke="#d9001b" fill="none" stroke-opacity="0.8313725490196079" />
  <path d="M 451 4863.5  A 3 3 0 0 0 448 4866.5 A 3 3 0 0 0 451 4869.5 A 3 3 0 0 0 454 4866.5 A 3 3 0 0 0 451 4863.5 Z M 387 4898.2  L 381 4904.5  L 387 4910.8  L 387 4898.2  Z " fill-rule="nonzero" fill="#d9001b" stroke="none" fill-opacity="0.8313725490196079" />
</svg>