<?xml version="1.0" encoding="utf-8"?>
<svg version="1.1" xmlns:xlink="http://www.w3.org/1999/xlink" width="18px" height="18px" preserveAspectRatio="xMinYMid meet" viewBox="442 4933  18 16" xmlns="http://www.w3.org/2000/svg">
  <path d="M 453 4941.5  L 422 4941.5  A 5 5 0 0 1 417.5 4936.5 L 417.5 4909  A 5 5 0 0 0 412.5 4904.5 L 386 4904.5  " stroke-width="1" stroke-dasharray="3,1" stroke="#d9001b" fill="none" stroke-opacity="0.8313725490196079" />
  <path d="M 451 4938.5  A 3 3 0 0 0 448 4941.5 A 3 3 0 0 0 451 4944.5 A 3 3 0 0 0 454 4941.5 A 3 3 0 0 0 451 4938.5 Z M 387 4898.2  L 381 4904.5  L 387 4910.8  L 387 4898.2  Z " fill-rule="nonzero" fill="#d9001b" stroke="none" fill-opacity="0.8313725490196079" />
</svg>