<?xml version="1.0" encoding="utf-8"?>
<svg version="1.1" xmlns:xlink="http://www.w3.org/1999/xlink" width="18px" height="18px" preserveAspectRatio="xMinYMid meet" viewBox="442 5036  18 16" xmlns="http://www.w3.org/2000/svg">
  <path d="M 453 5044.5  L 422 5044.5  A 5 5 0 0 0 417.5 5049.5 L 417.5 5072  A 5 5 0 0 1 412.5 5077.5 L 386 5077.5  " stroke-width="1" stroke-dasharray="3,1" stroke="#d9001b" fill="none" stroke-opacity="0.8313725490196079" />
  <path d="M 451 5041.5  A 3 3 0 0 0 448 5044.5 A 3 3 0 0 0 451 5047.5 A 3 3 0 0 0 454 5044.5 A 3 3 0 0 0 451 5041.5 Z M 387 5071.2  L 381 5077.5  L 387 5083.8  L 387 5071.2  Z " fill-rule="nonzero" fill="#d9001b" stroke="none" fill-opacity="0.8313725490196079" />
</svg>