<?xml version="1.0" encoding="utf-8"?>
<svg version="1.1" xmlns:xlink="http://www.w3.org/1999/xlink" width="18px" height="18px" preserveAspectRatio="xMinYMid meet" viewBox="165 4821  18 16" xmlns="http://www.w3.org/2000/svg">
  <path d="M 172 4829.5  L 215 4829.5  A 5 5 0 0 0 220.5 4824.5 L 220.5 4603  A 5 5 0 0 1 225.5 4598.5 L 272 4598.5  " stroke-width="1" stroke-dasharray="3,1" stroke="#d9001b" fill="none" stroke-opacity="0.8313725490196079" />
  <path d="M 174 4826.5  A 3 3 0 0 0 171 4829.5 A 3 3 0 0 0 174 4832.5 A 3 3 0 0 0 177 4829.5 A 3 3 0 0 0 174 4826.5 Z M 271 4604.8  L 277 4598.5  L 271 4592.2  L 271 4604.8  Z " fill-rule="nonzero" fill="#d9001b" stroke="none" fill-opacity="0.8313725490196079" />
</svg>