<?xml version="1.0" encoding="utf-8"?>
<svg version="1.1" xmlns:xlink="http://www.w3.org/1999/xlink" width="15px" height="15px" xmlns="http://www.w3.org/2000/svg">
  <g transform="matrix(1 0 0 1 -900 -300 )">
    <path d="M 12.314453125 8.564453125000002  C 12.438151041666668 8.440755208333332  12.5 8.294270833333332  12.5 8.125000000000002  L 12.5 6.875000000000001  C 12.5 6.705729166666666  12.438151041666668 6.559244791666666  12.314453125 6.435546875000001  C 12.190755208333334 6.311848958333334  12.044270833333334 6.249999999999999  11.875 6.249999999999999  L 8.75 6.249999999999999  L 8.75 3.1250000000000004  C 8.75 2.9557291666666656  8.688151041666668 2.8092447916666656  8.564453125 2.6855468750000004  C 8.440755208333334 2.561848958333332  8.294270833333334 2.4999999999999996  8.125 2.4999999999999996  L 6.875 2.4999999999999996  C 6.705729166666668 2.4999999999999996  6.559244791666668 2.561848958333332  6.435546875 2.6855468750000004  C 6.311848958333334 2.8092447916666656  6.25 2.9557291666666656  6.25 3.1250000000000004  L 6.25 6.249999999999999  L 3.125 6.249999999999999  C 2.955729166666667 6.249999999999999  2.809244791666667 6.311848958333334  2.685546875 6.435546875000001  C 2.561848958333334 6.559244791666666  2.5 6.705729166666666  2.5 6.875000000000001  L 2.5 8.125000000000002  C 2.5 8.294270833333332  2.561848958333334 8.440755208333332  2.685546875 8.564453125000002  C 2.809244791666667 8.688151041666666  2.955729166666667 8.749999999999998  3.125 8.749999999999998  L 6.25 8.749999999999998  L 6.25 11.875  C 6.25 12.044270833333332  6.311848958333334 12.190755208333332  6.435546875 12.314453125  C 6.559244791666668 12.438151041666668  6.705729166666668 12.5  6.875 12.5  L 8.125 12.5  C 8.294270833333334 12.5  8.440755208333334 12.438151041666668  8.564453125 12.314453125  C 8.688151041666668 12.190755208333332  8.75 12.044270833333332  8.75 11.875  L 8.75 8.749999999999998  L 11.875 8.749999999999998  C 12.044270833333334 8.749999999999998  12.190755208333334 8.688151041666666  12.314453125 8.564453125000002  Z M 14.1748046875 0.8251953125000006  C 14.724934895833332 1.3753255208333321  15 2.0377604166666647  15 2.8125  L 15 12.1875  C 15 12.962239583333332  14.724934895833332 13.624674479166668  14.1748046875 14.1748046875  C 13.624674479166668 14.724934895833332  12.962239583333336 15  12.1875 15  L 2.8125 15  C 2.0377604166666665 15  1.3753255208333335 14.724934895833332  0.8251953125 14.1748046875  C 0.27506510416666663 13.624674479166668  0 12.962239583333332  0 12.1875  L 0 2.8125  C 0 2.0377604166666647  0.27506510416666663 1.3753255208333321  0.8251953125 0.8251953125000006  C 1.3753255208333335 0.27506510416666574  2.0377604166666665 0  2.8125 0  L 12.1875 0  C 12.962239583333336 0  13.624674479166668 0.27506510416666574  14.1748046875 0.8251953125000006  Z " fill-rule="nonzero" fill="#ffffff" stroke="none" transform="matrix(1 0 0 1 900 300 )" />
  </g>
</svg>