<?xml version="1.0" encoding="utf-8"?>
<svg version="1.1" xmlns:xlink="http://www.w3.org/1999/xlink" width="15px" height="15px" xmlns="http://www.w3.org/2000/svg">
  <g transform="matrix(1 0 0 1 -944 -235 )">
    <path d="M 14.404296875 4.589843750000001  C 14.801432291666664 5.514322916666667  15 6.484374999999999  15 7.5  C 15 8.515624999999998  14.801432291666664 9.485677083333332  14.404296875 10.410156250000002  C 14.007161458333334 11.334635416666668  13.473307291666668 12.132161458333332  12.802734375 12.802734375  C 12.132161458333334 13.473307291666668  11.334635416666668 14.007161458333332  10.41015625 14.404296875  C 9.485677083333336 14.801432291666666  8.515625 15  7.5 15  C 6.380208333333334 15  5.315755208333334 14.763997395833332  4.306640625 14.2919921875  C 3.2975260416666665 13.819986979166666  2.438151041666667 13.154296875  1.728515625 12.294921875  C 1.6829427083333335 12.229817708333332  1.661783854166667 12.156575520833332  1.6650390625 12.0751953125  C 1.6682942708333335 11.993815104166668  1.6959635416666667 11.927083333333332  1.748046875 11.875  L 3.0859375 10.527343750000002  C 3.1510416666666665 10.468750000000002  3.232421875 10.439453125000002  3.330078125 10.439453125000002  C 3.434244791666667 10.452473958333332  3.5091145833333335 10.491536458333332  3.5546875 10.556640625000002  C 4.029947916666667 11.175130208333334  4.612630208333334 11.653645833333334  5.302734375 11.9921875  C 5.992838541666667 12.330729166666668  6.725260416666667 12.5  7.5 12.5  C 8.177083333333334 12.5  8.8232421875 12.3681640625  9.4384765625 12.1044921875  C 10.0537109375 11.8408203125  10.5859375 11.484375  11.03515625 11.035156249999998  C 11.484375 10.585937500000002  11.8408203125 10.053710937499998  12.1044921875 9.438476562499998  C 12.3681640625 8.823242187499998  12.5 8.177083333333332  12.5 7.5  C 12.5 6.822916666666666  12.3681640625 6.176757812499999  12.1044921875 5.561523437499999  C 11.8408203125 4.946289062499999  11.484375 4.414062500000001  11.03515625 3.9648437499999996  C 10.5859375 3.515625  10.0537109375 3.1591796874999996  9.4384765625 2.8955078124999996  C 8.8232421875 2.6318359374999996  8.177083333333334 2.4999999999999996  7.5 2.4999999999999996  C 6.861979166666668 2.4999999999999996  6.25 2.615559895833333  5.6640625 2.8466796875000004  C 5.078125 3.0777994791666647  4.557291666666667 3.4082031249999996  4.1015625 3.837890625  L 5.439453125 5.185546875  C 5.641276041666667 5.380859375000001  5.686848958333333 5.605468749999999  5.576171875 5.859375  C 5.465494791666667 6.119791666666668  5.2734375 6.249999999999999  5 6.249999999999999  L 0.625 6.249999999999999  C 0.45572916666666674 6.249999999999999  0.3092447916666667 6.188151041666667  0.185546875 6.064453125  C 0.061848958333333336 5.940755208333333  0 5.794270833333333  0 5.625  L 0 1.2500000000000004  C 0 0.9765624999999994  0.13020833333333331 0.7845052083333331  0.390625 0.673828125  C 0.64453125 0.5631510416666652  0.869140625 0.6087239583333331  1.064453125 0.8105468750000006  L 2.333984375 2.0703125000000004  C 3.030598958333334 1.4127604166666652  3.8264973958333335 0.9033203124999994  4.7216796875 0.5419921875  C 5.616861979166668 0.18066406250000056  6.54296875 0  7.5 0  C 8.515625 0  9.485677083333336 0.19856770833333315  10.41015625 0.5957031249999994  C 11.334635416666668 0.9928385416666657  12.132161458333334 1.5266927083333326  12.802734375 2.197265625  C 13.473307291666668 2.8678385416666656  14.007161458333334 3.6653645833333326  14.404296875 4.589843750000001  Z " fill-rule="nonzero" fill="#7f7f7f" stroke="none" transform="matrix(1 0 0 1 944 235 )" />
  </g>
</svg>