<?xml version="1.0" encoding="utf-8"?>
<svg version="1.1" xmlns:xlink="http://www.w3.org/1999/xlink" width="24px" height="15px" xmlns="http://www.w3.org/2000/svg">
  <g>
    <path d="M 13.025390625 9.826171875  C 13.341796875 9.087890625  13.5 8.312499999999998  13.5 7.5  C 13.5 6.6875  13.341796875 5.912109375  13.025390625 5.173828125000001  C 12.708984375 4.435546874999999  12.28125 3.796874999999999  11.7421875 3.2578124999999996  C 11.203125000000002 2.7187500000000004  10.564453125000002 2.2910156249999996  9.826171875 1.9746093749999993  C 9.087890625 1.6582031250000007  8.3125 1.4999999999999996  7.5 1.4999999999999996  C 6.687500000000001 1.4999999999999996  5.912109375 1.6582031250000007  5.173828125 1.9746093749999993  C 4.435546875 2.2910156249999996  3.796875 2.7187500000000004  3.2578125 3.2578124999999996  C 2.71875 3.796874999999999  2.291015625 4.435546874999999  1.974609375 5.173828125000001  C 1.658203125 5.912109375  1.5 6.6875  1.5 7.5  C 1.5 8.312499999999998  1.658203125 9.087890625  1.974609375 9.826171875  C 2.291015625 10.564453125  2.71875 11.203125  3.2578125 11.7421875  C 3.796875 12.28125  4.435546875 12.708984375  5.173828125 13.025390625  C 5.912109375 13.341796875  6.687500000000001 13.5  7.5 13.5  C 8.3125 13.5  9.087890625 13.341796875  9.826171875 13.025390625  C 10.564453125000002 12.708984375  11.203125000000002 12.28125  11.7421875 11.7421875  C 12.28125 11.203125  12.708984375 10.564453125  13.025390625 9.826171875  Z M 22.025390625 9.826171875  C 22.341796875000004 9.087890625  22.500000000000004 8.312499999999998  22.5 7.5  C 22.500000000000004 6.6875  22.341796875000004 5.912109375  22.025390625 5.173828125000001  C 21.708984375000004 4.435546874999999  21.281250000000004 3.796874999999999  20.7421875 3.2578124999999996  C 20.203125000000004 2.7187500000000004  19.564453125000004 2.2910156249999996  18.826171875 1.9746093749999993  C 18.087890625 1.6582031250000007  17.3125 1.4999999999999996  16.5 1.4999999999999996  L 11.9765625 1.4999999999999996  C 12.906250000000002 2.2031249999999996  13.642578125 3.0781249999999982  14.185546875 4.125  C 14.728515625000002 5.171874999999999  15 6.296874999999998  15 7.5  C 15 8.703125  14.728515625000002 9.828124999999998  14.185546875 10.875  C 13.642578125 11.921874999999998  12.906250000000002 12.796875  11.9765625 13.5  L 16.5 13.5  C 17.3125 13.5  18.087890625 13.341796875  18.826171875 13.025390625  C 19.564453125000004 12.708984375  20.203125000000004 12.28125  20.7421875 11.7421875  C 21.281250000000004 11.203125  21.708984375000004 10.564453125  22.025390625 9.826171875  Z M 23.40234375 4.587890625000001  C 23.80078125 5.513671875  24 6.484374999999999  24 7.5  C 24 8.515624999999998  23.80078125 9.486328125  23.40234375 10.412109375  C 23.00390625 11.337890625  22.470703125 12.134765625  21.802734375 12.802734375  C 21.134765625 13.470703125  20.337890625 14.00390625  19.412109375 14.40234375  C 18.486328125 14.80078125  17.515625 15  16.5 15  L 7.5 15  C 6.484375 15  5.513671875000001 14.80078125  4.587890625 14.40234375  C 3.662109375 14.00390625  2.8652343750000004 13.470703125  2.197265625 12.802734375  C 1.529296875 12.134765625  0.9960937500000002 11.337890625  0.59765625 10.412109375  C 0.19921875 9.486328125  0 8.515624999999998  0 7.5  C 0 6.484374999999999  0.19921875 5.513671875  0.59765625 4.587890625000001  C 0.9960937500000002 3.662109375  1.529296875 2.8652343750000004  2.197265625 2.197265625  C 2.8652343750000004 1.5292968749999996  3.662109375 0.99609375  4.587890625 0.5976562499999993  C 5.513671875000001 0.19921875000000033  6.484375 0  7.5 0  L 16.5 0  C 17.515625 0  18.486328125 0.19921875000000033  19.412109375 0.5976562499999993  C 20.337890625 0.99609375  21.134765625 1.5292968749999996  21.802734375 2.197265625  C 22.470703125 2.8652343750000004  23.00390625 3.662109375  23.40234375 4.587890625000001  Z " fill-rule="nonzero" fill="#a30014" stroke="none" />
  </g>
</svg>