<?xml version="1.0" encoding="utf-8"?>
<svg version="1.1" xmlns:xlink="http://www.w3.org/1999/xlink" width="14px" height="15px" xmlns="http://www.w3.org/2000/svg">
  <g transform="matrix(1 0 0 1 -353 -2113 )">
    <path d="M 5.001420454545454 12.412109375  C 5.061079545454546 12.353515625  5.090909090909091 12.278645833333332  5.090909090909091 12.1875  L 5.090909090909091 5.312499999999999  C 5.090909090909091 5.221354166666667  5.061079545454546 5.146484375000001  5.001420454545454 5.087890625000001  C 4.941761363636363 5.029296875000001  4.865530303030304 5.000000000000001  4.7727272727272725 5.000000000000001  L 4.136363636363637 5.000000000000001  C 4.043560606060606 5.000000000000001  3.9673295454545463 5.029296875000001  3.9076704545454546 5.087890625000001  C 3.8480113636363633 5.146484375000001  3.818181818181818 5.221354166666667  3.818181818181818 5.312499999999999  L 3.818181818181818 12.1875  C 3.818181818181818 12.278645833333332  3.8480113636363633 12.353515625  3.9076704545454546 12.412109375  C 3.9673295454545463 12.470703125  4.043560606060606 12.5  4.136363636363637 12.5  L 4.7727272727272725 12.5  C 4.865530303030304 12.5  4.941761363636363 12.470703125  5.001420454545454 12.412109375  Z M 7.546875 12.412109375  C 7.606534090909091 12.353515625  7.636363636363636 12.278645833333332  7.636363636363636 12.1875  L 7.636363636363636 5.312499999999999  C 7.636363636363636 5.221354166666667  7.606534090909091 5.146484375000001  7.546875 5.087890625000001  C 7.487215909090909 5.029296875000001  7.4109848484848495 5.000000000000001  7.318181818181818 5.000000000000001  L 6.681818181818182 5.000000000000001  C 6.589015151515152 5.000000000000001  6.512784090909091 5.029296875000001  6.453125 5.087890625000001  C 6.393465909090909 5.146484375000001  6.363636363636363 5.221354166666667  6.363636363636363 5.312499999999999  L 6.363636363636363 12.1875  C 6.363636363636363 12.278645833333332  6.393465909090909 12.353515625  6.453125 12.412109375  C 6.512784090909091 12.470703125  6.589015151515152 12.5  6.681818181818182 12.5  L 7.318181818181818 12.5  C 7.4109848484848495 12.5  7.487215909090909 12.470703125  7.546875 12.412109375  Z M 10.092329545454545 12.412109375  C 10.151988636363637 12.353515625  10.181818181818182 12.278645833333332  10.181818181818182 12.1875  L 10.181818181818182 5.312499999999999  C 10.181818181818182 5.221354166666667  10.151988636363637 5.146484375000001  10.092329545454545 5.087890625000001  C 10.032670454545455 5.029296875000001  9.956439393939394 5.000000000000001  9.863636363636363 5.000000000000001  L 9.227272727272727 5.000000000000001  C 9.134469696969697 5.000000000000001  9.058238636363637 5.029296875000001  8.998579545454545 5.087890625000001  C 8.938920454545455 5.146484375000001  8.909090909090908 5.221354166666667  8.909090909090908 5.312499999999999  L 8.909090909090908 12.1875  C 8.909090909090908 12.278645833333332  8.938920454545455 12.353515625  8.998579545454545 12.412109375  C 9.058238636363637 12.470703125  9.134469696969697 12.5  9.227272727272727 12.5  L 9.863636363636363 12.5  C 9.956439393939394 12.5  10.032670454545455 12.470703125  10.092329545454545 12.412109375  Z M 5.259943181818182 1.3574218749999996  L 4.7727272727272725 2.4999999999999996  L 9.227272727272727 2.4999999999999996  L 8.75 1.3574218749999996  C 8.703598484848486 1.2988281249999996  8.647253787878789 1.2630208333333326  8.580965909090908 1.2500000000000004  L 5.4289772727272725 1.2500000000000004  C 5.3626893939393945 1.2630208333333326  5.306344696969698 1.2988281249999996  5.259943181818182 1.3574218749999996  Z M 13.910511363636363 2.5878906249999996  C 13.970170454545455 2.6464843749999996  14 2.7213541666666656  14 2.8125  L 14 3.4374999999999996  C 14 3.528645833333332  13.970170454545455 3.603515625  13.910511363636363 3.662109375  C 13.850852272727273 3.720703125  13.774621212121213 3.75  13.681818181818182 3.75  L 12.727272727272727 3.75  L 12.727272727272727 13.0078125  C 12.727272727272727 13.548177083333332  12.571496212121213 14.015299479166668  12.259943181818182 14.4091796875  C 11.948390151515152 14.803059895833334  11.573863636363637 15  11.136363636363637 15  L 2.8636363636363638 15  C 2.4261363636363638 15  2.051609848484849 14.8095703125  1.7400568181818181 14.4287109375  C 1.428503787878788 14.0478515625  1.2727272727272727 13.587239583333334  1.2727272727272727 13.046875  L 1.2727272727272727 3.75  L 0.3181818181818182 3.75  C 0.22537878787878787 3.75  0.1491477272727273 3.720703125  0.08948863636363637 3.662109375  C 0.029829545454545452 3.603515625  0 3.528645833333332  0 3.4374999999999996  L 0 2.8125  C 0 2.7213541666666656  0.029829545454545452 2.6464843749999996  0.08948863636363637 2.5878906249999996  C 0.1491477272727273 2.5292968749999996  0.22537878787878787 2.4999999999999996  0.3181818181818182 2.4999999999999996  L 3.390625 2.4999999999999996  L 4.0866477272727275 0.8691406250000006  C 4.186079545454547 0.628255208333332  4.365056818181818 0.42317708333333204  4.623579545454546 0.25390625000000056  C 4.882102272727273 0.08463541666666574  5.1439393939393945 0  5.409090909090909 0  L 8.590909090909092 0  C 8.856060606060607 0  9.117897727272727 0.08463541666666574  9.376420454545455 0.25390625000000056  C 9.634943181818182 0.42317708333333204  9.813920454545455 0.628255208333332  9.913352272727273 0.8691406250000006  L 10.609375 2.4999999999999996  L 13.681818181818182 2.4999999999999996  C 13.774621212121213 2.4999999999999996  13.850852272727273 2.5292968749999996  13.910511363636363 2.5878906249999996  Z " fill-rule="nonzero" fill="#7f7f7f" stroke="none" transform="matrix(1 0 0 1 353 2113 )" />
  </g>
</svg>