<?xml version="1.0" encoding="utf-8"?>
<svg version="1.1" xmlns:xlink="http://www.w3.org/1999/xlink" width="30px" height="30px" xmlns="http://www.w3.org/2000/svg">
  <g transform="matrix(1 0 0 1 -203 -3738 )">
    <path d="M 24.74609375 15.87890625  C 24.98046875 15.64453125  25.09765625 15.3515625  25.09765625 15  C 25.09765625 14.6484375  24.98046875 14.35546875  24.74609375 14.12109375  L 22.96875 12.343750000000002  L 15.898437499999998 5.2734375  C 15.664062499999998 5.0390625  15.371093749999998 4.921875  15.019531249999998 4.921875  C 14.66796875 4.921875  14.375 5.0390625  14.140625 5.2734375  L 12.36328125 7.050781249999999  C 12.12890625 7.285156249999999  12.01171875 7.578124999999999  12.01171875 7.929687499999999  C 12.01171875 8.281249999999998  12.12890625 8.574218749999998  12.36328125 8.808593749999998  L 16.0546875 12.499999999999998  L 6.25 12.499999999999998  C 5.911458333333334 12.499999999999998  5.618489583333334 12.623697916666668  5.37109375 12.871093750000002  C 5.123697916666668 13.118489583333332  5 13.411458333333332  5 13.750000000000002  L 5 16.250000000000004  C 5 16.588541666666664  5.123697916666668 16.881510416666664  5.37109375 17.128906250000004  C 5.618489583333334 17.376302083333332  5.911458333333334 17.499999999999996  6.25 17.499999999999996  L 16.0546875 17.499999999999996  L 12.36328125 21.191406249999996  C 12.115885416666668 21.43880208333333  11.9921875 21.73177083333333  11.9921875 22.070312499999996  C 11.9921875 22.408854166666668  12.115885416666668 22.701822916666664  12.36328125 22.94921875  L 14.140625 24.7265625  C 14.375 24.9609375  14.66796875 25.078125  15.019531249999998 25.078125  C 15.371093749999998 25.078125  15.664062499999998 24.9609375  15.898437499999998 24.7265625  L 22.96875 17.656250000000004  L 24.74609375 15.87890625  Z M 27.98828125 7.470703125  C 29.32942708333333 9.76888020833333  30 12.278645833333329  30 15  C 30 17.721354166666668  29.32942708333333 20.231119791666664  27.98828125 22.529296875  C 26.64713541666667 24.827473958333332  24.827473958333332 26.647135416666668  22.529296875 27.98828125  C 20.23111979166667 29.329427083333336  17.721354166666668 30  15 30  C 12.278645833333334 30  9.768880208333334 29.329427083333336  7.470703125 27.98828125  C 5.172526041666667 26.647135416666668  3.352864583333334 24.827473958333332  2.01171875 22.529296875  C 0.6705729166666665 20.231119791666664  0 17.721354166666668  0 15  C 0 12.278645833333329  0.6705729166666665 9.76888020833333  2.01171875 7.470703125  C 3.352864583333334 5.172526041666666  5.172526041666667 3.3528645833333304  7.470703125 2.011718749999999  C 9.768880208333334 0.6705729166666641  12.278645833333334 0  15 0  C 17.721354166666668 0  20.23111979166667 0.6705729166666641  22.529296875 2.011718749999999  C 24.827473958333332 3.3528645833333304  26.64713541666667 5.172526041666666  27.98828125 7.470703125  Z " fill-rule="nonzero" fill="#000000" stroke="none" transform="matrix(1 0 0 1 203 3738 )" />
  </g>
</svg>