<?xml version="1.0" encoding="utf-8"?>
<svg version="1.1" xmlns:xlink="http://www.w3.org/1999/xlink" width="18px" height="16px" xmlns="http://www.w3.org/2000/svg">
  <g transform="matrix(1 0 0 1 -768 -557 )">
    <path d="M 14.052455357142858 9.427083333333332  C 14.112723214285715 9.489583333333332  14.142857142857142 9.569444444444443  14.142857142857142 9.666666666666668  L 14.142857142857142 13  C 14.142857142857142 13.826388888888888  13.859933035714288 14.532986111111112  13.294084821428573 15.119791666666666  C 12.72823660714286 15.706597222222221  12.046875 16  11.25 16  L 2.8928571428571432 16  C 2.0959821428571432 16  1.4146205357142858 15.706597222222221  0.8487723214285714 15.119791666666666  C 0.28292410714285715 14.532986111111112  0 13.826388888888888  0 13  L 0 4.333333333333334  C 0 3.506944444444443  0.28292410714285715 2.8003472222222214  0.8487723214285714 2.213541666666666  C 1.4146205357142858 1.626736111111109  2.0959821428571432 1.333333333333334  2.8928571428571432 1.333333333333334  L 9.964285714285715 1.333333333333334  C 10.058035714285715 1.333333333333334  10.135044642857142 1.364583333333334  10.1953125 1.427083333333334  C 10.255580357142858 1.489583333333334  10.285714285714285 1.5694444444444429  10.285714285714285 1.666666666666666  L 10.285714285714285 2.333333333333334  C 10.285714285714285 2.4305555555555554  10.255580357142858 2.510416666666666  10.1953125 2.572916666666666  C 10.135044642857142 2.635416666666666  10.058035714285715 2.666666666666666  9.964285714285715 2.666666666666666  L 2.8928571428571432 2.666666666666666  C 2.4508928571428577 2.666666666666666  2.0725446428571432 2.829861111111109  1.7578125 3.15625  C 1.4430803571428572 3.4826388888888875  1.2857142857142856 3.875  1.2857142857142856 4.333333333333334  L 1.2857142857142856 13  C 1.2857142857142856 13.458333333333334  1.4430803571428572 13.850694444444443  1.7578125 14.177083333333334  C 2.0725446428571432 14.503472222222221  2.4508928571428577 14.666666666666666  2.8928571428571432 14.666666666666666  L 11.25 14.666666666666666  C 11.691964285714285 14.666666666666666  12.070312500000002 14.503472222222221  12.385044642857142 14.177083333333334  C 12.699776785714288 13.850694444444443  12.857142857142858 13.458333333333334  12.857142857142858 13  L 12.857142857142858 9.666666666666668  C 12.857142857142858 9.569444444444443  12.887276785714285 9.489583333333332  12.947544642857142 9.427083333333332  C 13.0078125 9.364583333333332  13.084821428571429 9.333333333333332  13.178571428571427 9.333333333333332  L 13.821428571428573 9.333333333333332  C 13.915178571428573 9.333333333333332  13.9921875 9.364583333333332  14.052455357142858 9.427083333333332  Z M 17.809151785714285 0.19791666666666607  C 17.93638392857143 0.32986111111110894  18 0.48611111111110894  18 0.6666666666666661  L 18 6  C 18 6.180555555555555  17.93638392857143 6.336805555555555  17.809151785714285 6.46875  C 17.681919642857146 6.600694444444445  17.53125 6.666666666666666  17.357142857142858 6.666666666666666  C 17.183035714285715 6.666666666666666  17.032366071428573 6.600694444444445  16.905133928571427 6.46875  L 15.137276785714285 4.635416666666666  L 8.588169642857142 11.427083333333332  C 8.521205357142858 11.496527777777775  8.444196428571429 11.53125  8.357142857142858 11.53125  C 8.270089285714286 11.53125  8.193080357142858 11.496527777777775  8.126116071428571 11.427083333333332  L 6.9810267857142865 10.239583333333332  C 6.914062500000001 10.17013888888889  6.880580357142858 10.090277777777779  6.880580357142858 10  C 6.880580357142858 9.909722222222221  6.914062500000001 9.82986111111111  6.9810267857142865 9.760416666666668  L 13.530133928571427 2.96875  L 11.762276785714285 1.135416666666666  C 11.635044642857146 1.0034722222222214  11.571428571428573 0.8472222222222214  11.571428571428573 0.6666666666666661  C 11.571428571428573 0.48611111111110894  11.635044642857146 0.32986111111110894  11.762276785714285 0.19791666666666607  C 11.889508928571429 0.06597222222222321  12.040178571428571 0  12.214285714285715 0  L 17.357142857142858 0  C 17.53125 0  17.681919642857146 0.06597222222222321  17.809151785714285 0.19791666666666607  Z " fill-rule="nonzero" fill="#ffffff" stroke="none" transform="matrix(1 0 0 1 768 557 )" />
  </g>
</svg>