<?xml version="1.0" encoding="utf-8"?>
<svg version="1.1" xmlns:xlink="http://www.w3.org/1999/xlink" width="13px" height="13px" xmlns="http://www.w3.org/2000/svg">
  <g transform="matrix(1 0 0 1 -98 -556 )">
    <path d="M 6.634889753566796 6.12012987012987  L 12.620622568093385 0.1266233766233763  C 12.727410289667102 0.019696969696969102  12.817336792044964 -0.01688311688311761  12.890402075226978 0.016883116883116167  C 12.963467358408993 0.050649350649349945  13 0.14069264069263954  13 0.2870129870129864  L 13 12.712987012987014  C 13 12.859307359307358  12.963467358408993 12.94935064935065  12.890402075226978 12.983116883116883  C 12.817336792044964 13.016883116883118  12.727410289667102 12.98030303030303  12.620622568093385 12.873376623376624  L 6.634889753566796 6.87987012987013  C 6.584306095979249 6.829220779220779  6.547773454388242 6.775757575757576  6.525291828793774 6.71948051948052  L 6.525291828793774 12.712987012987014  C 6.525291828793774 12.859307359307358  6.488759187202768 12.94935064935065  6.415693904020753 12.983116883116883  C 6.342628620838739 13.016883116883118  6.252702118460874 12.98030303030303  6.145914396887159 12.873376623376624  L 0.16018158236057067 6.87987012987013  C 0.05339386078685698 6.7729437229437215  0 6.646320346320345  0 6.5  C 0 6.353679653679653  0.05339386078685698 6.227056277056277  0.16018158236057067 6.12012987012987  L 6.145914396887159 0.1266233766233763  C 6.252702118460874 0.019696969696969102  6.342628620838739 -0.01688311688311761  6.415693904020753 0.016883116883116167  C 6.488759187202768 0.050649350649349945  6.525291828793774 0.14069264069263954  6.525291828793774 0.2870129870129864  L 6.525291828793774 6.280519480519481  C 6.547773454388242 6.224242424242424  6.584306095979249 6.170779220779221  6.634889753566796 6.12012987012987  Z " fill-rule="nonzero" fill="#ffffff" stroke="none" transform="matrix(1 0 0 1 98 556 )" />
  </g>
</svg>