<?xml version="1.0" encoding="utf-8"?>
<svg version="1.1" xmlns:xlink="http://www.w3.org/1999/xlink" width="13px" height="13px" xmlns="http://www.w3.org/2000/svg">
  <g transform="matrix(1 0 0 1 -146 -556 )">
    <path d="M 6.365110246433203 6.87987012987013  L 0.37937743190661477 12.873376623376624  C 0.272589710332901 12.98030303030303  0.1826632079550368 13.016883116883118  0.10959792477302206 12.983116883116883  C 0.03653264159100736 12.94935064935065  0 12.859307359307358  0 12.712987012987014  L 0 0.2870129870129864  C 0 0.14069264069263954  0.03653264159100736 0.050649350649349945  0.10959792477302206 0.016883116883116167  C 0.1826632079550368 -0.01688311688311761  0.272589710332901 0.019696969696969102  0.37937743190661477 0.1266233766233763  L 6.365110246433203 6.12012987012987  C 6.415693904020753 6.170779220779221  6.45222654561176 6.224242424242424  6.474708171206226 6.280519480519481  L 6.474708171206226 0.2870129870129864  C 6.474708171206226 0.14069264069263954  6.511240812797233 0.050649350649349945  6.584306095979247 0.016883116883116167  C 6.657371379161264 -0.01688311688311761  6.747297881539128 0.019696969696969102  6.854085603112841 0.1266233766233763  L 12.83981841763943 6.12012987012987  C 12.946606139213147 6.227056277056277  13.000000000000004 6.353679653679653  13 6.5  C 13.000000000000004 6.646320346320345  12.946606139213147 6.7729437229437215  12.83981841763943 6.87987012987013  L 6.854085603112841 12.873376623376624  C 6.747297881539128 12.98030303030303  6.657371379161264 13.016883116883118  6.584306095979247 12.983116883116883  C 6.511240812797233 12.94935064935065  6.474708171206226 12.859307359307358  6.474708171206226 12.712987012987014  L 6.474708171206226 6.71948051948052  C 6.45222654561176 6.775757575757576  6.415693904020753 6.829220779220779  6.365110246433203 6.87987012987013  Z " fill-rule="nonzero" fill="#ffffff" stroke="none" transform="matrix(1 0 0 1 146 556 )" />
  </g>
</svg>