<?xml version="1.0" encoding="utf-8"?>
<svg version="1.1" xmlns:xlink="http://www.w3.org/1999/xlink" width="16px" height="14px" xmlns="http://www.w3.org/2000/svg">
  <g transform="matrix(1 0 0 1 -753 -596 )">
    <path d="M 13.178571428571429 7.510416666666666  C 14.29761904761905 6.3680555555555545  14.857142857142858 5.286458333333333  14.857142857142858 4.265625  C 14.857142857142858 3.7734375  14.793154761904763 3.3389756944444438  14.665178571428571 2.962239583333333  C 14.537202380952381 2.5855034722222205  14.373511904761907 2.2862413194444438  14.174107142857142 2.064453125  C 13.974702380952383 1.8426649305555547  13.73214285714286 1.661892361111111  13.446428571428571 1.5221354166666672  C 13.160714285714286 1.3823784722222203  12.880952380952381 1.2881944444444438  12.607142857142858 1.2395833333333328  C 12.333333333333334 1.1909722222222203  12.041666666666668 1.1666666666666672  11.732142857142858 1.1666666666666672  C 11.42261904761905 1.1666666666666672  11.089285714285714 1.244140625  10.732142857142858 1.3990885416666672  C 10.375 1.5540364583333328  10.046130952380953 1.7484809027777766  9.745535714285714 1.982421875  C 9.444940476190478 2.2163628472222205  9.1875 2.4351128472222205  8.973214285714286 2.638671875  C 8.758928571428573 2.842230902777777  8.580357142857144 3.0290798611111107  8.4375 3.19921875  C 8.330357142857144 3.3328993055555545  8.18452380952381 3.399739583333333  8 3.399739583333333  C 7.815476190476191 3.399739583333333  7.669642857142857 3.3328993055555545  7.5625 3.19921875  C 7.419642857142857 3.0290798611111107  7.241071428571429 2.842230902777777  7.026785714285714 2.638671875  C 6.8125 2.4351128472222205  6.555059523809525 2.2163628472222205  6.254464285714286 1.982421875  C 5.953869047619048 1.7484809027777766  5.625 1.5540364583333328  5.267857142857143 1.3990885416666672  C 4.910714285714286 1.244140625  4.577380952380953 1.1666666666666672  4.267857142857143 1.1666666666666672  C 3.9583333333333335 1.1666666666666672  3.6666666666666674 1.1909722222222203  3.392857142857143 1.2395833333333328  C 3.1190476190476195 1.2881944444444438  2.8392857142857144 1.3823784722222203  2.5535714285714284 1.5221354166666672  C 2.267857142857143 1.661892361111111  2.025297619047619 1.8426649305555547  1.8258928571428572 2.064453125  C 1.6264880952380953 2.2862413194444438  1.462797619047619 2.5855034722222205  1.3348214285714286 2.962239583333333  C 1.2068452380952384 3.3389756944444438  1.1428571428571428 3.7734375  1.1428571428571428 4.265625  C 1.1428571428571428 5.286458333333333  1.699404761904762 6.365017361111111  2.8125 7.501302083333334  L 8 12.60546875  L 13.178571428571429 7.510416666666666  Z M 14.866071428571429 1.1302083333333328  C 15.62202380952381 1.8836805555555547  16 2.9288194444444438  16 4.265625  C 16 5.608506944444444  15.318452380952381 6.975694444444444  13.955357142857142 8.3671875  L 8.392857142857142 13.8359375  C 8.285714285714286 13.9453125  8.154761904761905 14  8 14  C 7.845238095238096 14  7.714285714285715 13.9453125  7.607142857142857 13.8359375  L 2.0357142857142856 8.348958333333334  C 1.9761904761904763 8.300347222222221  1.8943452380952384 8.221354166666666  1.7901785714285714 8.111979166666666  C 1.6860119047619049 8.002604166666666  1.5208333333333335 7.803602430555556  1.2946428571428572 7.514973958333334  C 1.068452380952381 7.226345486111109  0.8660714285714286 6.930121527777777  0.6875 6.626302083333333  C 0.5089285714285714 6.322482638888889  0.349702380952381 5.954861111111111  0.20982142857142858 5.5234375  C 0.06994047619047619 5.0920138888888875  0 4.6727430555555545  0 4.265625  C 0 2.9288194444444438  0.3779761904761904 1.8836805555555547  1.1339285714285714 1.1302083333333328  C 1.8898809523809526 0.37673611111111094  2.9345238095238093 0  4.267857142857143 0  C 4.636904761904762 0  5.013392857142857 0.06532118055555469  5.397321428571429 0.19596354166666718  C 5.78125 0.32660590277777657  6.138392857142857 0.5028211805555547  6.46875 0.724609375  C 6.799107142857144 0.9463975694444438  7.083333333333335 1.1545138888888875  7.321428571428571 1.3489583333333328  C 7.55952380952381 1.5434027777777766  7.785714285714286 1.75  8 1.96875  C 8.214285714285714 1.75  8.440476190476192 1.5434027777777766  8.678571428571429 1.3489583333333328  C 8.916666666666668 1.1545138888888875  9.200892857142858 0.9463975694444438  9.53125 0.724609375  C 9.861607142857142 0.5028211805555547  10.21875 0.32660590277777657  10.602678571428571 0.19596354166666718  C 10.986607142857142 0.06532118055555469  11.363095238095239 0  11.732142857142858 0  C 13.065476190476192 0  14.11011904761905 0.37673611111111094  14.866071428571429 1.1302083333333328  Z " fill-rule="nonzero" fill="#ffffff" stroke="none" transform="matrix(1 0 0 1 753 596 )" />
  </g>
</svg>