<?xml version="1.0" encoding="utf-8"?>
<svg version="1.1" xmlns:xlink="http://www.w3.org/1999/xlink" width="8px" height="8px" xmlns="http://www.w3.org/2000/svg">
  <g transform="matrix(1 0 0 1 0 -4 )">
    <path d="M 4 4  C 6.24 4  8 5.76  8 8  C 8 10.24  6.24 12  4 12  C 1.7599999999999998 12  0 10.24  0 8  C 0 5.76  1.7599999999999998 4  4 4  Z " fill-rule="nonzero" fill="#d9001b" stroke="none" />
    <path d="M 4 4.5  C 5.96 4.5  7.5 6.04  7.5 8  C 7.5 9.96  5.96 11.5  4 11.5  C 2.04 11.5  0.5 9.96  0.5 8  C 0.5 6.04  2.04 4.5  4 4.5  Z " stroke-width="1" stroke="#ffffff" fill="none" />
  </g>
</svg>