<?xml version="1.0" encoding="utf-8"?>
<svg version="1.1" xmlns:xlink="http://www.w3.org/1999/xlink" width="11px" height="11px" xmlns="http://www.w3.org/2000/svg">
  <g transform="matrix(1 0 0 1 -345 -16 )">
    <path d="M 6.74609375 6.74609375  C 7.3256209935897445 6.1665665064102555  7.615384615384615 5.4691506410256405  7.615384615384615 4.653846153846154  C 7.615384615384615 3.838541666666666  7.3256209935897445 3.1411258012820507  6.74609375 2.5615985576923075  C 6.166566506410257 1.9820713141025634  5.469150641025641 1.6923076923076925  4.653846153846154 1.6923076923076925  C 3.838541666666667 1.6923076923076925  3.141125801282052 1.9820713141025634  2.5615985576923075 2.5615985576923075  C 1.9820713141025643 3.1411258012820507  1.6923076923076925 3.838541666666666  1.6923076923076925 4.653846153846154  C 1.6923076923076925 5.4691506410256405  1.9820713141025643 6.1665665064102555  2.5615985576923075 6.74609375  C 3.141125801282052 7.325620993589742  3.838541666666667 7.615384615384615  4.653846153846154 7.615384615384615  C 5.469150641025641 7.615384615384615  6.166566506410257 7.325620993589742  6.74609375 6.74609375  Z M 10.755408653846155 9.55889423076923  C 10.918469551282051 9.72195512820513  11 9.920272435897436  11 10.153846153846155  C 11 10.383012820512821  10.916266025641027 10.58133012820513  10.748798076923077 10.748798076923077  C 10.58133012820513 10.916266025641026  10.383012820512821 11  10.153846153846155 11  C 9.915865384615385 11  9.717548076923077 10.916266025641026  9.55889423076923 10.748798076923077  L 7.291466346153846 8.48798076923077  C 6.502604166666667 9.03445512820513  5.623397435897437 9.307692307692308  4.653846153846154 9.307692307692308  C 4.023637820512821 9.307692307692308  3.4209735576923075 9.185396634615385  2.845853365384615 8.94080528846154  C 2.270733173076923 8.696213942307692  1.7749399038461537 8.365685096153845  1.3584735576923077 7.94921875  C 0.9420072115384616 7.532752403846154  0.6114783653846155 7.036959134615385  0.3668870192307692 6.4618389423076925  C 0.12229567307692309 5.88671875  0 5.284054487179486  0 4.653846153846154  C 0 4.023637820512819  0.12229567307692309 3.4209735576923075  0.3668870192307692 2.845853365384615  C 0.6114783653846155 2.270733173076923  0.9420072115384616 1.7749399038461544  1.3584735576923077 1.3584735576923075  C 1.7749399038461537 0.942007211538462  2.270733173076923 0.6114783653846152  2.845853365384615 0.3668870192307696  C 3.4209735576923075 0.1222956730769228  4.023637820512821 0  4.653846153846154 0  C 5.284054487179487 0  5.88671875 0.1222956730769228  6.4618389423076925 0.3668870192307696  C 7.036959134615385 0.6114783653846152  7.532752403846154 0.942007211538462  7.94921875 1.3584735576923075  C 8.365685096153845 1.7749399038461544  8.696213942307692 2.270733173076923  8.940805288461538 2.845853365384615  C 9.185396634615385 3.4209735576923075  9.307692307692308 4.023637820512819  9.307692307692308 4.653846153846154  C 9.307692307692308 5.623397435897435  9.03445512820513 6.502604166666666  8.48798076923077 7.291466346153846  L 10.755408653846155 9.55889423076923  Z " fill-rule="nonzero" fill="#d7d7d7" stroke="none" transform="matrix(1 0 0 1 345 16 )" />
  </g>
</svg>