<?xml version="1.0" encoding="utf-8"?>
<svg version="1.1" xmlns:xlink="http://www.w3.org/1999/xlink" width="11px" height="11px" xmlns="http://www.w3.org/2000/svg">
  <g transform="matrix(1 0 0 1 -392 -16 )">
    <path d="M 7.685267857142858 9.677176339285715  C 8.360491071428571 9.31910342261905  8.91499255952381 8.833147321428571  9.348772321428571 8.219308035714285  C 9.25874255952381 7.58500744047619  9.079706101190476 7.058128720238095  8.811662946428571 6.638671875  C 8.543619791666668 6.219215029761905  8.166108630952381 5.976748511904761  7.679129464285714 5.911272321428571  C 7.404947916666667 6.214099702380951  7.078590029761905 6.450427827380951  6.700055803571428 6.620256696428571  C 6.321521577380953 6.79008556547619  5.921502976190477 6.875  5.5 6.875  C 5.078497023809524 6.875  4.678478422619048 6.79008556547619  4.299944196428571 6.620256696428571  C 3.921409970238096 6.450427827380951  3.5950520833333335 6.214099702380951  3.320870535714286 5.911272321428571  C 2.833891369047619 5.976748511904761  2.4563802083333335 6.219215029761905  2.188337053571429 6.638671875  C 1.9202938988095242 7.058128720238095  1.7412574404761905 7.58500744047619  1.6512276785714286 8.219308035714285  C 2.0850074404761907 8.833147321428571  2.639508928571429 9.31910342261905  3.314732142857143 9.677176339285715  C 3.989955357142857 10.03524925595238  4.718377976190477 10.214285714285715  5.5 10.214285714285715  C 6.281622023809525 10.214285714285715  7.010044642857142 10.03524925595238  7.685267857142858 9.677176339285715  Z M 7.166573660714286 5.595145089285714  C 7.626953125 5.134765625  7.857142857142858 4.579241071428572  7.857142857142858 3.928571428571428  C 7.857142857142858 3.2779017857142856  7.626953125 2.722377232142857  7.166573660714286 2.261997767857143  C 6.706194196428572 1.801618303571428  6.150669642857142 1.571428571428572  5.5 1.571428571428572  C 4.849330357142858 1.571428571428572  4.293805803571429 1.801618303571428  3.833426339285714 2.261997767857143  C 3.373046875 2.722377232142857  3.142857142857143 3.2779017857142856  3.142857142857143 3.928571428571428  C 3.142857142857143 4.579241071428572  3.373046875 5.134765625  3.833426339285714 5.595145089285714  C 4.293805803571429 6.055524553571429  4.849330357142858 6.285714285714286  5.5 6.285714285714286  C 6.150669642857142 6.285714285714286  6.706194196428572 6.055524553571429  7.166573660714286 5.595145089285714  Z M 10.564174107142858 3.3638392857142856  C 10.854724702380954 4.043154761904761  11 4.755208333333333  11 5.5  C 11 6.244791666666666  10.854724702380954 6.955822172619047  10.564174107142858 7.633091517857142  C 10.273623511904763 8.310360863095237  9.883835565476193 8.89555431547619  9.394810267857142 9.388671875  C 8.905784970238097 9.881789434523808  8.321614583333334 10.273623511904763  7.642299107142858 10.564174107142858  C 6.962983630952381 10.854724702380953  6.248883928571428 11  5.5 11  C 4.755208333333334 11  4.043154761904762 10.854724702380953  3.363839285714286 10.564174107142858  C 2.6845238095238098 10.273623511904763  2.099330357142857 9.8828125  1.6082589285714286 9.391741071428571  C 1.1171875 8.900669642857142  0.7263764880952381 8.31547619047619  0.43582589285714285 7.636160714285714  C 0.1452752976190476 6.956845238095238  0 6.244791666666666  0 5.5  C 0 4.755208333333333  0.1452752976190476 4.043154761904761  0.43582589285714285 3.3638392857142856  C 0.7263764880952381 2.6845238095238084  1.1171875 2.099330357142857  1.6082589285714286 1.608258928571428  C 2.099330357142857 1.1171875  2.6845238095238098 0.7263764880952378  3.363839285714286 0.4358258928571427  C 4.043154761904762 0.14527529761904756  4.755208333333334 0  5.5 0  C 6.244791666666667 0  6.956845238095239 0.14527529761904756  7.636160714285714 0.4358258928571427  C 8.315476190476192 0.7263764880952378  8.900669642857142 1.1171875  9.391741071428571 1.608258928571428  C 9.882812500000002 2.099330357142857  10.273623511904763 2.6845238095238084  10.564174107142858 3.3638392857142856  Z " fill-rule="nonzero" fill="#ffffff" stroke="none" transform="matrix(1 0 0 1 392 16 )" />
  </g>
</svg>