<?xml version="1.0" encoding="utf-8"?>
<svg version="1.1" xmlns:xlink="http://www.w3.org/1999/xlink" width="15px" height="15px" xmlns="http://www.w3.org/2000/svg">
  <g transform="matrix(1 0 0 1 -390 -14 )">
    <path d="M 397.5 14  C 401.7 14  405 17.3  405 21.5  C 405 25.700000000000003  401.7 29  397.5 29  C 393.3 29  390 25.700000000000003  390 21.5  C 390 17.3  393.3 14  397.5 14  Z " fill-rule="nonzero" fill="#333333" stroke="none" fill-opacity="0.9098039215686274" />
    <path d="M 397.5 14.5  C 401.42 14.5  404.5 17.58  404.5 21.5  C 404.5 25.42  401.42 28.5  397.5 28.5  C 393.58 28.5  390.5 25.42  390.5 21.5  C 390.5 17.58  393.58 14.5  397.5 14.5  Z " stroke-width="1" stroke="#333333" fill="none" />
  </g>
</svg>