<?xml version="1.0" encoding="utf-8"?>
<svg version="1.1" xmlns:xlink="http://www.w3.org/1999/xlink" width="11px" height="11px" xmlns="http://www.w3.org/2000/svg">
  <g transform="matrix(1 0 0 1 -376 -16 )">
    <path d="M 10.563151041666668 3.365885416666667  C 10.854383680555554 4.043836805555555  11 4.755208333333333  11 5.5  C 11 6.244791666666666  10.854383680555554 6.956163194444443  10.563151041666668 7.634114583333334  C 10.271918402777779 8.312065972222223  9.880425347222223 8.896918402777777  9.388671875 9.388671875  C 8.896918402777779 9.880425347222223  8.312065972222223 10.271918402777777  7.634114583333333 10.563151041666668  C 6.9561631944444455 10.854383680555555  6.244791666666667 11  5.5 11  C 4.678819444444445 11  3.8982204861111116 10.82693142361111  3.158203125 10.480794270833332  C 2.418185763888889 10.134657118055555  1.7879774305555558 9.646484375  1.267578125 9.016276041666668  C 1.2341579861111112 8.96853298611111  1.2186414930555558 8.91482204861111  1.2210286458333335 8.855143229166668  C 1.2234157986111112 8.795464409722223  1.2437065972222223 8.746527777777777  1.2819010416666665 8.708333333333332  L 2.263020833333333 7.720052083333334  C 2.310763888888889 7.677083333333334  2.370442708333333 7.655598958333334  2.442057291666667 7.655598958333334  C 2.518446180555556 7.665147569444443  2.5733506944444446 7.693793402777777  2.606770833333333 7.741536458333334  C 2.9552951388888893 8.19509548611111  3.3825954861111116 8.546006944444445  3.888671875 8.794270833333332  C 4.394748263888889 9.042534722222223  4.931857638888889 9.166666666666668  5.5 9.166666666666668  C 5.996527777777779 9.166666666666668  6.470377604166667 9.069986979166668  6.921549479166667 8.876627604166668  C 7.372721354166667 8.683268229166668  7.763020833333333 8.421875  8.092447916666668 8.092447916666666  C 8.421875 7.763020833333334  8.683268229166668 7.372721354166666  8.876627604166668 6.921549479166666  C 9.069986979166668 6.470377604166666  9.166666666666668 5.996527777777777  9.166666666666668 5.5  C 9.166666666666668 5.003472222222221  9.069986979166668 4.529622395833333  8.876627604166668 4.078450520833333  C 8.683268229166668 3.627278645833333  8.421875 3.236979166666667  8.092447916666668 2.907552083333333  C 7.763020833333333 2.578125  7.372721354166667 2.316731770833333  6.921549479166667 2.123372395833333  C 6.470377604166667 1.930013020833333  5.996527777777779 1.833333333333333  5.5 1.833333333333333  C 5.032118055555556 1.833333333333333  4.583333333333334 1.9180772569444442  4.153645833333334 2.087565104166667  C 3.7239583333333335 2.2570529513888875  3.3420138888888893 2.499348958333333  3.0078125 2.814453125  L 3.9889322916666665 3.802734375  C 4.136935763888889 3.945963541666667  4.170355902777778 4.110677083333333  4.089192708333334 4.296875  C 4.008029513888889 4.487847222222223  3.8671875 4.583333333333333  3.6666666666666665 4.583333333333333  L 0.4583333333333333 4.583333333333333  C 0.33420138888888895 4.583333333333333  0.2267795138888889 4.537977430555555  0.13606770833333331 4.447265625  C 0.045355902777777776 4.356553819444445  0 4.249131944444445  0 4.125  L 0 0.9166666666666671  C 0 0.7161458333333329  0.09548611111111109 0.5753038194444443  0.28645833333333337 0.494140625  C 0.47265625 0.41297743055555447  0.6373697916666667 0.4463975694444443  0.7805989583333334 0.5944010416666671  L 1.7115885416666667 1.518229166666667  C 2.2224392361111116 1.0360243055555545  2.8060980902777777 0.6624348958333329  3.4625651041666665 0.3974609375  C 4.119032118055556 0.13248697916666707  4.798177083333334 0  5.5 0  C 6.244791666666667 0  6.9561631944444455 0.1456163194444443  7.634114583333333 0.4368489583333329  C 8.312065972222223 0.7280815972222215  8.896918402777779 1.1195746527777772  9.388671875 1.611328125  C 9.880425347222223 2.1030815972222214  10.271918402777779 2.6879340277777772  10.563151041666668 3.365885416666667  Z M 6.352213541666667 3.272786458333333  C 6.395182291666667 3.315755208333333  6.416666666666667 3.3706597222222214  6.416666666666667 3.4375  L 6.416666666666667 6.645833333333334  C 6.416666666666667 6.712673611111112  6.395182291666667 6.767578125  6.352213541666667 6.810546875  C 6.309244791666667 6.853515625  6.254340277777779 6.875  6.1875 6.875  L 3.8958333333333335 6.875  C 3.8289930555555562 6.875  3.7740885416666665 6.853515625  3.7311197916666665 6.810546875  C 3.6881510416666665 6.767578125  3.6666666666666665 6.712673611111112  3.6666666666666665 6.645833333333334  L 3.6666666666666665 6.1875  C 3.6666666666666665 6.120659722222223  3.6881510416666665 6.065755208333334  3.7311197916666665 6.022786458333334  C 3.7740885416666665 5.979817708333334  3.8289930555555562 5.958333333333334  3.8958333333333335 5.958333333333334  L 5.5 5.958333333333334  L 5.5 3.4375  C 5.5 3.3706597222222214  5.521484375 3.315755208333333  5.564453125 3.272786458333333  C 5.607421875000001 3.229817708333333  5.66232638888889 3.208333333333333  5.729166666666667 3.208333333333333  L 6.1875 3.208333333333333  C 6.254340277777779 3.208333333333333  6.309244791666667 3.229817708333333  6.352213541666667 3.272786458333333  Z " fill-rule="nonzero" fill="#d7d7d7" stroke="none" transform="matrix(1 0 0 1 376 16 )" />
  </g>
</svg>