<?xml version="1.0" encoding="utf-8"?>
<svg version="1.1" xmlns:xlink="http://www.w3.org/1999/xlink" width="98px" height="134px" xmlns="http://www.w3.org/2000/svg">
  <g transform="matrix(1 0 0 1 -8 -354 )">
    <path d="M 9 359  A 4 4 0 0 1 13 355 L 101 355  A 4 4 0 0 1 105 359 L 105 483  A 4 4 0 0 1 101 487 L 13 487  A 4 4 0 0 1 9 483 L 9 359  Z " fill-rule="nonzero" fill="#169bd5" stroke="none" fill-opacity="0" />
    <path d="M 8.5 359  A 4.5 4.5 0 0 1 13 354.5 L 101 354.5  A 4.5 4.5 0 0 1 105.5 359 L 105.5 483  A 4.5 4.5 0 0 1 101 487.5 L 13 487.5  A 4.5 4.5 0 0 1 8.5 483 L 8.5 359  Z " stroke-width="1" stroke="#333333" fill="none" stroke-opacity="0.9019607843137255" />
  </g>
</svg>