<?xml version="1.0" encoding="utf-8"?>
<svg version="1.1" xmlns:xlink="http://www.w3.org/1999/xlink" width="25px" height="14px" xmlns="http://www.w3.org/2000/svg">
  <g transform="matrix(1 0 0 1 -5 -11 )">
    <path d="M 10.716145833333334 8.189453125  C 10.794270833333334 8.107421875  10.833333333333334 8.002604166666666  10.833333333333334 7.875  L 10.833333333333334 6.125  C 10.833333333333334 5.997395833333333  10.794270833333334 5.892578125  10.716145833333334 5.810546875  C 10.638020833333334 5.728515625  10.538194444444445 5.6875  10.416666666666668 5.6875  L 7.916666666666666 5.6875  L 7.916666666666666 3.0625  C 7.916666666666666 2.934895833333333  7.877604166666667 2.830078125  7.799479166666666 2.748046875  C 7.721354166666666 2.666015625  7.621527777777779 2.625  7.5 2.625  L 5.833333333333333 2.625  C 5.711805555555556 2.625  5.611979166666667 2.666015625  5.533854166666666 2.748046875  C 5.455729166666667 2.830078125  5.416666666666667 2.934895833333333  5.416666666666667 3.0625  L 5.416666666666667 5.6875  L 2.9166666666666665 5.6875  C 2.795138888888889 5.6875  2.6953125000000004 5.728515625  2.6171875 5.810546875  C 2.5390625 5.892578125  2.5 5.997395833333333  2.5 6.125  L 2.5 7.875  C 2.5 8.002604166666666  2.5390625 8.107421875  2.6171875 8.189453125  C 2.6953125000000004 8.271484375  2.795138888888889 8.3125  2.9166666666666665 8.3125  L 5.416666666666667 8.3125  L 5.416666666666667 10.9375  C 5.416666666666667 11.065104166666666  5.455729166666667 11.169921875  5.533854166666666 11.251953125  C 5.611979166666667 11.333984375  5.711805555555556 11.375  5.833333333333333 11.375  L 7.5 11.375  C 7.621527777777779 11.375  7.721354166666666 11.333984375  7.799479166666666 11.251953125  C 7.877604166666667 11.169921875  7.916666666666666 11.065104166666666  7.916666666666666 10.9375  L 7.916666666666666 8.3125  L 10.416666666666668 8.3125  C 10.538194444444445 8.3125  10.638020833333334 8.271484375  10.716145833333334 8.189453125  Z M 17.845052083333332 9.9873046875  C 18.170572916666668 9.6455078125  18.333333333333332 9.233072916666666  18.333333333333332 8.75  C 18.333333333333332 8.266927083333332  18.170572916666668 7.8544921875  17.845052083333332 7.5126953125  C 17.51953125 7.1708984375  17.126736111111114 7  16.666666666666664 7  C 16.206597222222225 7  15.813802083333334 7.1708984375  15.48828125 7.5126953125  C 15.162760416666668 7.8544921875  15 8.266927083333332  15 8.75  C 15 9.233072916666666  15.162760416666668 9.6455078125  15.48828125 9.9873046875  C 15.813802083333334 10.3291015625  16.206597222222225 10.5  16.666666666666664 10.5  C 17.126736111111114 10.5  17.51953125 10.3291015625  17.845052083333332 9.9873046875  Z M 21.178385416666668 6.4873046875  C 21.50390625 6.1455078125  21.666666666666668 5.733072916666666  21.666666666666668 5.25  C 21.666666666666668 4.766927083333333  21.50390625 4.3544921875  21.178385416666668 4.0126953125  C 20.852864583333332 3.6708984375  20.460069444444446 3.5  20 3.5  C 19.539930555555557 3.5  19.147135416666668 3.6708984375  18.821614583333332 4.0126953125  C 18.49609375 4.3544921875  18.333333333333332 4.766927083333333  18.333333333333332 5.25  C 18.333333333333332 5.733072916666666  18.49609375 6.1455078125  18.821614583333332 6.4873046875  C 19.147135416666668 6.8291015625  19.539930555555557 7  20 7  C 20.460069444444446 7  20.852864583333332 6.8291015625  21.178385416666668 6.4873046875  Z M 23.046875 2.05078125  C 24.348958333333336 3.41796875  25.000000000000007 5.067708333333333  25 7  C 25.000000000000007 8.932291666666666  24.348958333333336 10.58203125  23.046875 11.94921875  C 21.744791666666668 13.31640625  20.173611111111114 14  18.333333333333332 14  C 16.666666666666664 14  15.19965277777778 13.416666666666666  13.932291666666666 12.25  L 11.067708333333332 12.25  C 9.800347222222223 13.416666666666666  8.333333333333332 14  6.666666666666667 14  C 4.826388888888889 14  3.2552083333333335 13.31640625  1.953125 11.94921875  C 0.6510416666666667 10.58203125  0 8.932291666666666  0 7  C 0 5.067708333333333  0.6510416666666667 3.41796875  1.953125 2.05078125  C 3.2552083333333335 0.68359375  4.826388888888889 0  6.666666666666667 0  L 18.333333333333332 0  C 20.173611111111114 0  21.744791666666668 0.68359375  23.046875 2.05078125  Z " fill-rule="nonzero" fill="#f2f2f2" stroke="none" transform="matrix(1 0 0 1 5 11 )" />
  </g>
</svg>