<?xml version="1.0" encoding="utf-8"?>
<svg version="1.1" xmlns:xlink="http://www.w3.org/1999/xlink" width="10px" height="10px" xmlns="http://www.w3.org/2000/svg">
  <g transform="matrix(1 0 0 1 -141 -1186 )">
    <path d="M 7.79296875 5.709635416666668  C 7.875434027777778 5.627170138888888  7.916666666666666 5.529513888888888  7.916666666666666 5.416666666666668  L 7.916666666666666 4.583333333333334  C 7.916666666666666 4.470486111111111  7.875434027777778 4.372829861111111  7.79296875 4.290364583333334  C 7.710503472222223 4.207899305555555  7.612847222222223 4.166666666666666  7.5 4.166666666666666  L 5.833333333333334 4.166666666666666  L 5.833333333333334 2.5  C 5.833333333333334 2.387152777777777  5.7921006944444455 2.289496527777777  5.709635416666666 2.20703125  C 5.627170138888889 2.1245659722222223  5.529513888888889 2.083333333333334  5.416666666666666 2.083333333333334  L 4.583333333333333 2.083333333333334  C 4.470486111111112 2.083333333333334  4.372829861111112 2.1245659722222223  4.290364583333333 2.20703125  C 4.207899305555555 2.289496527777777  4.166666666666667 2.387152777777777  4.166666666666667 2.5  L 4.166666666666667 4.166666666666666  L 2.5 4.166666666666666  C 2.3871527777777777 4.166666666666666  2.2894965277777777 4.207899305555555  2.20703125 4.290364583333334  C 2.1245659722222223 4.372829861111111  2.0833333333333335 4.470486111111111  2.0833333333333335 4.583333333333334  L 2.0833333333333335 5.416666666666668  C 2.0833333333333335 5.529513888888888  2.1245659722222223 5.627170138888888  2.20703125 5.709635416666668  C 2.2894965277777777 5.792100694444445  2.3871527777777777 5.833333333333332  2.5 5.833333333333332  L 4.166666666666667 5.833333333333332  L 4.166666666666667 7.5  C 4.166666666666667 7.612847222222222  4.207899305555555 7.710503472222222  4.290364583333333 7.79296875  C 4.372829861111112 7.875434027777778  4.470486111111112 7.916666666666666  4.583333333333333 7.916666666666666  L 5.416666666666666 7.916666666666666  C 5.529513888888889 7.916666666666666  5.627170138888889 7.875434027777778  5.709635416666666 7.79296875  C 5.7921006944444455 7.710503472222222  5.833333333333334 7.612847222222222  5.833333333333334 7.5  L 5.833333333333334 5.833333333333332  L 7.5 5.833333333333332  C 7.612847222222223 5.833333333333332  7.710503472222223 5.792100694444445  7.79296875 5.709635416666668  Z M 9.329427083333334 2.490234375  C 9.776475694444443 3.256293402777777  10 4.092881944444443  10 5  C 10 5.907118055555555  9.776475694444443 6.743706597222221  9.329427083333334 7.509765625  C 8.882378472222223 8.275824652777779  8.275824652777779 8.882378472222221  7.509765625 9.329427083333334  C 6.743706597222223 9.776475694444445  5.907118055555555 10  5 10  C 4.092881944444445 10  3.2562934027777777 9.776475694444445  2.490234375 9.329427083333334  C 1.7241753472222223 8.882378472222221  1.117621527777778 8.275824652777779  0.6705729166666667 7.509765625  C 0.22352430555555552 6.743706597222221  0 5.907118055555555  0 5  C 0 4.092881944444443  0.22352430555555552 3.256293402777777  0.6705729166666667 2.490234375  C 1.117621527777778 1.724175347222222  1.7241753472222223 1.1176215277777768  2.490234375 0.6705729166666663  C 3.2562934027777777 0.2235243055555547  4.092881944444445 0  5 0  C 5.907118055555555 0  6.743706597222223 0.2235243055555547  7.509765625 0.6705729166666663  C 8.275824652777779 1.1176215277777768  8.882378472222223 1.724175347222222  9.329427083333334 2.490234375  Z " fill-rule="nonzero" fill="#d9001b" stroke="none" transform="matrix(1 0 0 1 141 1186 )" />
  </g>
</svg>