<?xml version="1.0" encoding="utf-8"?>
<svg version="1.1" xmlns:xlink="http://www.w3.org/1999/xlink" width="40px" height="40px" xmlns="http://www.w3.org/2000/svg">
  <defs>
    <mask fill="white" id="clip560">
      <path d="M 10.838283828382838 10.838283828382838  C 11.498349834983498 10.178217821782178  11.82838283828383 9.381738173817379  11.82838283828383 8.448844884488448  C 11.82838283828383 7.515951595159511  11.498349834983498 6.7194719471947195  10.838283828382838 6.05940594059406  C 10.178217821782178 5.399339933993401  9.381738173817384 5.069306930693069  8.448844884488448 5.069306930693069  C 7.515951595159517 5.069306930693069  6.71947194719472 5.399339933993401  6.0594059405940595 6.05940594059406  C 5.399339933993399 6.7194719471947195  5.069306930693069 7.515951595159511  5.069306930693069 8.448844884488448  C 5.069306930693069 9.381738173817379  5.399339933993399 10.178217821782178  6.0594059405940595 10.838283828382838  C 6.71947194719472 11.498349834983497  7.515951595159517 11.82838283828383  8.448844884488448 11.82838283828383  C 9.381738173817384 11.82838283828383  10.178217821782178 11.498349834983497  10.838283828382838 10.838283828382838  Z M 39.023102310231025 21.254125412541253  C 39.67436743674368 21.940594059405942  40 22.741474147414742  40 23.65676567656766  C 40 24.589658965896586  39.67436743674368 25.38173817381738  39.023102310231025 26.033003300330037  L 26.05940594059406 39.023102310231025  C 25.372937293729375 39.67436743674368  24.572057205720572 40  23.65676567656766 40  C 22.723872387238725 40  21.931793179317935 39.67436743674368  21.28052805280528 39.023102310231025  L 2.402640264026403 20.11881188118812  C 1.733773377337734 19.467546754675467  1.1661166116611663 18.578657865786575  0.6996699669966997 17.45214521452145  C 0.2332233223322332 16.325632563256324  0 15.295929592959293  0 14.363036303630361  L 0 3.3795379537953796  C 0 2.4642464246424645  0.3344334433443344 1.6721672167216717  1.0033003300330032 1.0033003300330012  C 1.6721672167216721 0.3344334433443308  2.4642464246424645 0  3.3795379537953796 0  L 14.363036303630363 0  C 15.295929592959297 0  16.325632563256328 0.23322332233222998  17.45214521452145 0.6996699669966988  C 18.57865786578658 1.1661166116611632  19.476347634763478 1.7337733773377284  20.145214521452143 2.4026402640264033  L 39.023102310231025 21.254125412541253  Z " fill-rule="evenodd" />
    </mask>
  </defs>
  <g transform="matrix(1 0 0 1 -570 -1183 )">
    <path d="M 10.838283828382838 10.838283828382838  C 11.498349834983498 10.178217821782178  11.82838283828383 9.381738173817379  11.82838283828383 8.448844884488448  C 11.82838283828383 7.515951595159511  11.498349834983498 6.7194719471947195  10.838283828382838 6.05940594059406  C 10.178217821782178 5.399339933993401  9.381738173817384 5.069306930693069  8.448844884488448 5.069306930693069  C 7.515951595159517 5.069306930693069  6.71947194719472 5.399339933993401  6.0594059405940595 6.05940594059406  C 5.399339933993399 6.7194719471947195  5.069306930693069 7.515951595159511  5.069306930693069 8.448844884488448  C 5.069306930693069 9.381738173817379  5.399339933993399 10.178217821782178  6.0594059405940595 10.838283828382838  C 6.71947194719472 11.498349834983497  7.515951595159517 11.82838283828383  8.448844884488448 11.82838283828383  C 9.381738173817384 11.82838283828383  10.178217821782178 11.498349834983497  10.838283828382838 10.838283828382838  Z M 39.023102310231025 21.254125412541253  C 39.67436743674368 21.940594059405942  40 22.741474147414742  40 23.65676567656766  C 40 24.589658965896586  39.67436743674368 25.38173817381738  39.023102310231025 26.033003300330037  L 26.05940594059406 39.023102310231025  C 25.372937293729375 39.67436743674368  24.572057205720572 40  23.65676567656766 40  C 22.723872387238725 40  21.931793179317935 39.67436743674368  21.28052805280528 39.023102310231025  L 2.402640264026403 20.11881188118812  C 1.733773377337734 19.467546754675467  1.1661166116611663 18.578657865786575  0.6996699669966997 17.45214521452145  C 0.2332233223322332 16.325632563256324  0 15.295929592959293  0 14.363036303630361  L 0 3.3795379537953796  C 0 2.4642464246424645  0.3344334433443344 1.6721672167216717  1.0033003300330032 1.0033003300330012  C 1.6721672167216721 0.3344334433443308  2.4642464246424645 0  3.3795379537953796 0  L 14.363036303630363 0  C 15.295929592959297 0  16.325632563256328 0.23322332233222998  17.45214521452145 0.6996699669966988  C 18.57865786578658 1.1661166116611632  19.476347634763478 1.7337733773377284  20.145214521452143 2.4026402640264033  L 39.023102310231025 21.254125412541253  Z " fill-rule="nonzero" fill="#ffffff" stroke="none" transform="matrix(1 0 0 1 570 1183 )" />
    <path d="M 10.838283828382838 10.838283828382838  C 11.498349834983498 10.178217821782178  11.82838283828383 9.381738173817379  11.82838283828383 8.448844884488448  C 11.82838283828383 7.515951595159511  11.498349834983498 6.7194719471947195  10.838283828382838 6.05940594059406  C 10.178217821782178 5.399339933993401  9.381738173817384 5.069306930693069  8.448844884488448 5.069306930693069  C 7.515951595159517 5.069306930693069  6.71947194719472 5.399339933993401  6.0594059405940595 6.05940594059406  C 5.399339933993399 6.7194719471947195  5.069306930693069 7.515951595159511  5.069306930693069 8.448844884488448  C 5.069306930693069 9.381738173817379  5.399339933993399 10.178217821782178  6.0594059405940595 10.838283828382838  C 6.71947194719472 11.498349834983497  7.515951595159517 11.82838283828383  8.448844884488448 11.82838283828383  C 9.381738173817384 11.82838283828383  10.178217821782178 11.498349834983497  10.838283828382838 10.838283828382838  Z " stroke-width="2" stroke="#7f7f7f" fill="none" transform="matrix(1 0 0 1 570 1183 )" mask="url(#clip560)" />
    <path d="M 39.023102310231025 21.254125412541253  C 39.67436743674368 21.940594059405942  40 22.741474147414742  40 23.65676567656766  C 40 24.589658965896586  39.67436743674368 25.38173817381738  39.023102310231025 26.033003300330037  L 26.05940594059406 39.023102310231025  C 25.372937293729375 39.67436743674368  24.572057205720572 40  23.65676567656766 40  C 22.723872387238725 40  21.931793179317935 39.67436743674368  21.28052805280528 39.023102310231025  L 2.402640264026403 20.11881188118812  C 1.733773377337734 19.467546754675467  1.1661166116611663 18.578657865786575  0.6996699669966997 17.45214521452145  C 0.2332233223322332 16.325632563256324  0 15.295929592959293  0 14.363036303630361  L 0 3.3795379537953796  C 0 2.4642464246424645  0.3344334433443344 1.6721672167216717  1.0033003300330032 1.0033003300330012  C 1.6721672167216721 0.3344334433443308  2.4642464246424645 0  3.3795379537953796 0  L 14.363036303630363 0  C 15.295929592959297 0  16.325632563256328 0.23322332233222998  17.45214521452145 0.6996699669966988  C 18.57865786578658 1.1661166116611632  19.476347634763478 1.7337733773377284  20.145214521452143 2.4026402640264033  L 39.023102310231025 21.254125412541253  Z " stroke-width="2" stroke="#7f7f7f" fill="none" transform="matrix(1 0 0 1 570 1183 )" mask="url(#clip560)" />
  </g>
</svg>