<?xml version="1.0" encoding="utf-8"?>
<svg version="1.1" xmlns:xlink="http://www.w3.org/1999/xlink" width="15px" height="15px" xmlns="http://www.w3.org/2000/svg">
  <g transform="matrix(1 0 0 1 -583 -1196 )">
    <path d="M 12.17684659090909 6.9140625  C 12.240767045454545 6.977982954545455  12.272727272727273 7.05965909090909  12.272727272727273 7.159090909090909  L 12.272727272727273 7.840909090909091  C 12.272727272727273 7.940340909090908  12.240767045454545 8.022017045454545  12.17684659090909 8.0859375  C 12.112926136363637 8.149857954545455  12.031250000000002 8.181818181818182  11.931818181818182 8.181818181818182  L 8.181818181818182 8.181818181818182  L 8.181818181818182 11.931818181818182  C 8.181818181818182 12.031249999999998  8.149857954545455 12.112926136363637  8.0859375 12.17684659090909  C 8.022017045454545 12.240767045454545  7.94034090909091 12.272727272727272  7.840909090909091 12.272727272727272  L 7.159090909090909 12.272727272727272  C 7.059659090909092 12.272727272727272  6.977982954545455 12.240767045454545  6.9140625 12.17684659090909  C 6.850142045454545 12.112926136363637  6.818181818181818 12.031249999999998  6.818181818181818 11.931818181818182  L 6.818181818181818 8.181818181818182  L 3.0681818181818183 8.181818181818182  C 2.9687500000000004 8.181818181818182  2.8870738636363638 8.149857954545455  2.823153409090909 8.0859375  C 2.7592329545454546 8.022017045454545  2.7272727272727275 7.940340909090908  2.7272727272727275 7.840909090909091  L 2.7272727272727275 7.159090909090909  C 2.7272727272727275 7.05965909090909  2.7592329545454546 6.977982954545455  2.823153409090909 6.9140625  C 2.8870738636363638 6.850142045454545  2.9687500000000004 6.818181818181818  3.0681818181818183 6.818181818181818  L 6.818181818181818 6.818181818181818  L 6.818181818181818 3.068181818181819  C 6.818181818181818 2.968749999999998  6.850142045454545 2.887073863636364  6.9140625 2.823153409090909  C 6.977982954545455 2.7592329545454546  7.059659090909092 2.7272727272727266  7.159090909090909 2.7272727272727266  L 7.840909090909091 2.7272727272727266  C 7.94034090909091 2.7272727272727266  8.022017045454545 2.7592329545454546  8.0859375 2.823153409090909  C 8.149857954545455 2.887073863636364  8.181818181818182 2.968749999999998  8.181818181818182 3.068181818181819  L 8.181818181818182 6.818181818181818  L 11.931818181818182 6.818181818181818  C 12.031250000000002 6.818181818181818  12.112926136363637 6.850142045454545  12.17684659090909 6.9140625  Z M 13.13565340909091 13.13565340909091  C 13.469460227272728 12.801846590909088  13.636363636363637 12.400568181818182  13.636363636363637 11.931818181818182  L 13.636363636363637 3.068181818181819  C 13.636363636363637 2.599431818181819  13.469460227272728 2.1981534090909083  13.13565340909091 1.8643465909090906  C 12.801846590909092 1.5305397727272712  12.400568181818182 1.3636363636363642  11.931818181818182 1.3636363636363642  L 3.0681818181818183 1.3636363636363642  C 2.5994318181818183 1.3636363636363642  2.1981534090909096 1.5305397727272712  1.8643465909090908 1.8643465909090906  C 1.530539772727273 2.1981534090909083  1.3636363636363638 2.599431818181819  1.3636363636363638 3.068181818181819  L 1.3636363636363638 11.931818181818182  C 1.3636363636363638 12.400568181818182  1.530539772727273 12.801846590909088  1.8643465909090908 13.13565340909091  C 2.1981534090909096 13.469460227272727  2.5994318181818183 13.636363636363637  3.0681818181818183 13.636363636363637  L 11.931818181818182 13.636363636363637  C 12.400568181818182 13.636363636363637  12.801846590909092 13.469460227272727  13.13565340909091 13.13565340909091  Z M 14.099786931818182 0.9002130681818188  C 14.699928977272728 1.5003551136363629  15 2.223011363636362  15 3.068181818181819  L 15 11.931818181818182  C 15 12.776988636363637  14.699928977272728 13.499644886363637  14.099786931818182 14.099786931818182  C 13.499644886363637 14.699928977272727  12.776988636363638 15  11.931818181818182 15  L 3.0681818181818183 15  C 2.2230113636363638 15  1.5003551136363638 14.699928977272727  0.9002130681818181 14.099786931818182  C 0.3000710227272727 13.499644886363637  0 12.776988636363637  0 11.931818181818182  L 0 3.068181818181819  C 0 2.223011363636362  0.3000710227272727 1.5003551136363629  0.9002130681818181 0.9002130681818188  C 1.5003551136363638 0.30007102272727126  2.2230113636363638 0  3.0681818181818183 0  L 11.931818181818182 0  C 12.776988636363638 0  13.499644886363637 0.30007102272727126  14.099786931818182 0.9002130681818188  Z " fill-rule="nonzero" fill="#95f204" stroke="none" transform="matrix(1 0 0 1 583 1196 )" />
  </g>
</svg>