<?xml version="1.0" encoding="utf-8"?>
<svg version="1.1" xmlns:xlink="http://www.w3.org/1999/xlink" width="164px" height="54px" xmlns="http://www.w3.org/2000/svg">
  <g transform="matrix(1 0 0 1 -8 -11 )">
    <path d="M 9 16  A 4 4 0 0 1 13 12 L 167 12  A 4 4 0 0 1 171 16 L 171 60  A 4 4 0 0 1 167 64 L 13 64  A 4 4 0 0 1 9 60 L 9 16  Z " fill-rule="nonzero" fill="#169bd5" stroke="none" fill-opacity="0" />
    <path d="M 8.5 16  A 4.5 4.5 0 0 1 13 11.5 L 167 11.5  A 4.5 4.5 0 0 1 171.5 16 L 171.5 60  A 4.5 4.5 0 0 1 167 64.5 L 13 64.5  A 4.5 4.5 0 0 1 8.5 60 L 8.5 16  Z " stroke-width="1" stroke-dasharray="1,1" stroke="#f2f2f2" fill="none" stroke-dashoffset="0.5" />
  </g>
</svg>