<?xml version="1.0" encoding="utf-8"?>
<svg version="1.1" xmlns:xlink="http://www.w3.org/1999/xlink" width="35px" height="35px" xmlns="http://www.w3.org/2000/svg">
  <g transform="matrix(1 0 0 1 -980 -21 )">
    <path d="M 997.5 21  C 1007.3 21  1015 28.7  1015 38.5  C 1015 48.3  1007.3 56  997.5 56  C 987.7 56  980 48.3  980 38.5  C 980 28.7  987.7 21  997.5 21  Z " fill-rule="nonzero" fill="#333333" stroke="none" fill-opacity="0.9098039215686274" />
    <path d="M 997.5 21.5  C 1007.02 21.5  1014.5 28.979999999999997  1014.5 38.5  C 1014.5 48.019999999999996  1007.02 55.5  997.5 55.5  C 987.98 55.5  980.5 48.019999999999996  980.5 38.5  C 980.5 28.979999999999997  987.98 21.5  997.5 21.5  Z " stroke-width="1" stroke="#333333" fill="none" />
  </g>
</svg>