<?xml version="1.0" encoding="utf-8"?>
<svg version="1.1" xmlns:xlink="http://www.w3.org/1999/xlink" width="10px" height="10px" xmlns="http://www.w3.org/2000/svg">
  <g transform="matrix(1 0 0 1 -158 -1651 )">
    <path d="M 163 1651  C 165.8 1651  168 1653.2  168 1656  C 168 1658.8  165.8 1661  163 1661  C 160.2 1661  158 1658.8  158 1656  C 158 1653.2  160.2 1651  163 1651  Z " fill-rule="nonzero" fill="#aaaaaa" stroke="none" />
    <path d="M 163 1651.5  C 165.52 1651.5  167.5 1653.48  167.5 1656  C 167.5 1658.52  165.52 1660.5  163 1660.5  C 160.48 1660.5  158.5 1658.52  158.5 1656  C 158.5 1653.48  160.48 1651.5  163 1651.5  Z " stroke-width="1" stroke="#797979" fill="none" />
  </g>
</svg>