<?xml version="1.0" encoding="utf-8"?>
<svg version="1.1" xmlns:xlink="http://www.w3.org/1999/xlink" width="25px" height="25px" xmlns="http://www.w3.org/2000/svg">
  <g transform="matrix(1 0 0 1 -985 -26 )">
    <path d="M 17.466517857142858 21.993582589285715  C 19.001116071428573 21.179780505952383  20.261346726190478 20.07533482142857  21.247209821428573 18.680245535714285  C 21.042596726190478 17.238653273809522  20.63569568452381 16.041201636904763  20.026506696428573 15.087890625  C 19.417317708333336 14.134579613095239  18.55933779761905 13.583519345238093  17.452566964285715 13.43470982142857  C 16.829427083333336 14.122953869047617  16.087704613095237 14.660063244047617  15.227399553571427 15.04603794642857  C 14.367094494047622 15.432012648809524  13.45796130952381 15.625  12.5 15.625  C 11.54203869047619 15.625  10.632905505952381 15.432012648809524  9.772600446428571 15.04603794642857  C 8.912295386904763 14.660063244047617  8.170572916666668 14.122953869047617  7.5474330357142865 13.43470982142857  C 6.440662202380952 13.583519345238093  5.582682291666667 14.134579613095239  4.973493303571429 15.087890625  C 4.364304315476191 16.041201636904763  3.957403273809524 17.238653273809522  3.752790178571429 18.680245535714285  C 4.738653273809524 20.07533482142857  5.998883928571429 21.179780505952383  7.533482142857142 21.993582589285715  C 9.068080357142858 22.807384672619047  10.72358630952381 23.214285714285715  12.5 23.214285714285715  C 14.276413690476192 23.214285714285715  15.931919642857142 22.807384672619047  17.466517857142858 21.993582589285715  Z M 16.287667410714285 12.716238839285715  C 17.333984375 11.669921875  17.857142857142858 10.407366071428573  17.857142857142858 8.928571428571427  C 17.857142857142858 7.449776785714285  17.333984375 6.187220982142858  16.287667410714285 5.140904017857142  C 15.241350446428573 4.094587053571427  13.978794642857142 3.5714285714285725  12.5 3.5714285714285725  C 11.021205357142858 3.5714285714285725  9.758649553571429 4.094587053571427  8.712332589285714 5.140904017857142  C 7.666015625 6.187220982142858  7.142857142857142 7.449776785714285  7.142857142857142 8.928571428571427  C 7.142857142857142 10.407366071428573  7.666015625 11.669921875  8.712332589285714 12.716238839285715  C 9.758649553571429 13.76255580357143  11.021205357142858 14.285714285714285  12.5 14.285714285714285  C 13.978794642857142 14.285714285714285  15.241350446428573 13.76255580357143  16.287667410714285 12.716238839285715  Z M 24.009486607142858 7.645089285714285  C 24.66982886904762 9.188988095238093  25 10.807291666666666  25 12.5  C 25 14.192708333333332  24.66982886904762 15.808686755952378  24.009486607142858 17.347935267857142  C 23.3491443452381 18.887183779761905  22.46326264880953 20.217168898809522  21.351841517857142 21.337890625  C 20.240420386904763 22.458612351190474  18.912760416666668 23.349144345238095  17.368861607142858 24.009486607142858  C 15.82496279761905 24.66982886904762  14.202008928571427 25  12.5 25  C 10.807291666666668 25  9.188988095238097 24.66982886904762  7.6450892857142865 24.009486607142858  C 6.101190476190476 23.349144345238095  4.771205357142857 22.4609375  3.655133928571429 21.34486607142857  C 2.5390625 20.228794642857142  1.6508556547619049 18.898809523809522  0.9905133928571428 17.354910714285715  C 0.33017113095238093 15.811011904761903  0 14.192708333333332  0 12.5  C 0 10.807291666666666  0.33017113095238093 9.188988095238093  0.9905133928571428 7.645089285714285  C 1.6508556547619049 6.101190476190474  2.5390625 4.771205357142858  3.655133928571429 3.6551339285714275  C 4.771205357142857 2.5390625  6.101190476190476 1.6508556547619042  7.6450892857142865 0.9905133928571425  C 9.188988095238097 0.3301711309523808  10.807291666666668 0  12.5 0  C 14.192708333333334 0  15.811011904761907 0.3301711309523808  17.354910714285715 0.9905133928571425  C 18.898809523809526 1.6508556547619042  20.228794642857142 2.5390625  21.344866071428573 3.6551339285714275  C 22.460937500000004 4.771205357142858  23.3491443452381 6.101190476190474  24.009486607142858 7.645089285714285  Z " fill-rule="nonzero" fill="#ffffff" stroke="none" transform="matrix(1 0 0 1 985 26 )" />
  </g>
</svg>