<?xml version="1.0" encoding="utf-8"?>
<svg version="1.1" xmlns:xlink="http://www.w3.org/1999/xlink" width="20px" height="17px" xmlns="http://www.w3.org/2000/svg">
  <g transform="matrix(1 0 0 1 0 -274 )">
    <path d="M 16.473214285714285 9.119791666666666  C 17.87202380952381 7.7326388888888875  18.571428571428573 6.419270833333333  18.571428571428573 5.1796875  C 18.571428571428573 4.58203125  18.491443452380953 4.054470486111111  18.331473214285715 3.5970052083333326  C 18.171502976190478 3.139539930555553  17.966889880952383 2.7761501736111103  17.717633928571427 2.5068359375  C 17.468377976190478 2.237521701388888  17.165178571428573 2.0180121527777777  16.808035714285715 1.8483072916666674  C 16.450892857142858 1.6786024305555531  16.101190476190478 1.5642361111111103  15.758928571428573 1.5052083333333326  C 15.416666666666668 1.4461805555555531  15.052083333333336 1.4166666666666674  14.665178571428573 1.4166666666666674  C 14.278273809523812 1.4166666666666674  13.861607142857142 1.5107421875  13.415178571428573 1.6988932291666674  C 12.96875 1.8870442708333326  12.55766369047619 2.123155381944443  12.181919642857142 2.4072265625  C 11.806175595238098 2.691297743055553  11.484375 2.956922743055553  11.216517857142858 3.2041015625  C 10.948660714285715 3.451280381944443  10.72544642857143 3.6781684027777777  10.546875 3.884765625  C 10.41294642857143 4.0470920138888875  10.230654761904763 4.128255208333333  10 4.128255208333333  C 9.769345238095239 4.128255208333333  9.587053571428571 4.0470920138888875  9.453125 3.884765625  C 9.274553571428571 3.6781684027777777  9.051339285714286 3.451280381944443  8.783482142857142 3.2041015625  C 8.515625 2.956922743055553  8.193824404761905 2.691297743055553  7.818080357142857 2.4072265625  C 7.44233630952381 2.123155381944443  7.03125 1.8870442708333326  6.584821428571429 1.6988932291666674  C 6.138392857142857 1.5107421875  5.721726190476192 1.4166666666666674  5.334821428571429 1.4166666666666674  C 4.947916666666667 1.4166666666666674  4.583333333333334 1.4461805555555531  4.241071428571429 1.5052083333333326  C 3.8988095238095246 1.5642361111111103  3.5491071428571432 1.6786024305555531  3.1919642857142856 1.8483072916666674  C 2.8348214285714284 2.0180121527777777  2.5316220238095237 2.237521701388888  2.2823660714285716 2.5068359375  C 2.033110119047619 2.7761501736111103  1.8284970238095237 3.139539930555553  1.6685267857142858 3.5970052083333326  C 1.508556547619048 4.054470486111111  1.4285714285714284 4.58203125  1.4285714285714284 5.1796875  C 1.4285714285714284 6.419270833333333  2.1242559523809526 7.728949652777778  3.515625 9.108723958333334  L 10 15.306640625  L 16.473214285714285 9.119791666666666  Z M 18.582589285714285 1.3723958333333326  C 19.527529761904763 2.287326388888888  20 3.5564236111111103  20 5.1796875  C 20 6.810329861111111  19.148065476190478 8.47048611111111  17.444196428571427 10.16015625  L 10.491071428571427 16.80078125  C 10.357142857142858 16.93359375  10.193452380952381 17  10 17  C 9.80654761904762 17  9.642857142857144 16.93359375  9.508928571428571 16.80078125  L 2.5446428571428568 10.138020833333334  C 2.4702380952380953 10.078993055555555  2.367931547619048 9.983072916666666  2.2377232142857144 9.850260416666666  C 2.107514880952381 9.717447916666666  1.901041666666667 9.47580295138889  1.6183035714285716 9.125325520833334  C 1.3355654761904763 8.774848090277775  1.0825892857142858 8.415147569444443  0.859375 8.046223958333332  C 0.6361607142857142 7.677300347222222  0.4371279761904762 7.230902777777778  0.2622767857142857 6.70703125  C 0.08742559523809523 6.1831597222222205  0 5.6740451388888875  0 5.1796875  C 0 3.5564236111111103  0.472470238095238 2.287326388888888  1.4174107142857142 1.3723958333333326  C 2.3623511904761907 0.45746527777777757  3.668154761904762 0  5.334821428571429 0  C 5.7961309523809526 0  6.266741071428571 0.07931857638888784  6.7466517857142865 0.2379557291666673  C 7.2265625 0.396592881944443  7.672991071428571 0.6105685763888878  8.0859375 0.8798828125  C 8.49888392857143 1.1491970486111103  8.854166666666668 1.4019097222222205  9.151785714285714 1.6380208333333326  C 9.449404761904763 1.8741319444444429  9.732142857142858 2.125  10 2.390625  C 10.267857142857142 2.125  10.550595238095239 1.8741319444444429  10.848214285714286 1.6380208333333326  C 11.145833333333336 1.4019097222222205  11.501116071428573 1.1491970486111103  11.9140625 0.8798828125  C 12.327008928571427 0.6105685763888878  12.7734375 0.396592881944443  13.253348214285714 0.2379557291666673  C 13.733258928571427 0.07931857638888784  14.20386904761905 0  14.665178571428573 0  C 16.33184523809524 0  17.63764880952381 0.45746527777777757  18.582589285714285 1.3723958333333326  Z " fill-rule="nonzero" fill="#ffffff" stroke="none" transform="matrix(1 0 0 1 0 274 )" />
  </g>
</svg>