<?xml version="1.0" encoding="utf-8"?>
<svg version="1.1" xmlns:xlink="http://www.w3.org/1999/xlink" width="20px" height="17px" xmlns="http://www.w3.org/2000/svg">
  <g transform="matrix(1 0 0 1 -88 -274 )">
    <path d="M 14.2578125 2.1858723958333326  C 12.937127976190476 1.673068576388888  11.517857142857142 1.4166666666666674  10 1.4166666666666674  C 8.482142857142858 1.4166666666666674  7.062872023809525 1.673068576388888  5.7421875 2.1858723958333326  C 4.421502976190476 2.6986762152777777  3.372395833333334 3.3904079861111103  2.5948660714285716 4.261067708333333  C 1.8173363095238095 5.131727430555554  1.4285714285714284 6.0724826388888875  1.4285714285714284 7.083333333333333  C 1.4285714285714284 7.909722222222222  1.6945684523809526 8.697374131944445  2.2265625 9.4462890625  C 2.7585565476190474 10.195203993055555  3.5081845238095246 10.842664930555555  4.475446428571429 11.388671875  L 5.446428571428571 11.942057291666666  L 5.1450892857142865 13.004557291666668  C 4.966517857142857 13.67599826388889  4.706101190476191 14.310546875  4.363839285714286 14.908203125  C 5.494791666666668 14.443359375  6.517857142857143 13.8125  7.4330357142857135 13.015625  L 7.912946428571429 12.595052083333334  L 8.549107142857142 12.661458333333334  C 9.0625 12.72048611111111  9.546130952380953 12.75  10 12.75  C 11.517857142857142 12.75  12.937127976190476 12.493598090277775  14.2578125 11.980794270833334  C 15.578497023809526 11.467990451388886  16.627604166666668 10.776258680555555  17.405133928571427 9.905598958333334  C 18.18266369047619 9.03493923611111  18.571428571428573 8.094184027777777  18.571428571428573 7.083333333333333  C 18.571428571428573 6.0724826388888875  18.18266369047619 5.131727430555554  17.405133928571427 4.261067708333333  C 16.627604166666668 3.3904079861111103  15.578497023809526 2.6986762152777777  14.2578125 2.1858723958333326  Z M 18.660714285714285 3.5250651041666674  C 19.553571428571427 4.613389756944443  20 5.799479166666667  20 7.083333333333333  C 20 8.3671875  19.553571428571427 9.553276909722221  18.660714285714285 10.6416015625  C 17.767857142857142 11.729926215277775  16.555059523809526 12.589518229166666  15.022321428571427 13.220377604166668  C 13.489583333333336 13.851236979166668  11.81547619047619 14.166666666666668  10 14.166666666666668  C 9.479166666666668 14.166666666666668  8.939732142857142 14.137152777777777  8.381696428571429 14.078125  C 6.908482142857143 15.36935763888889  5.1971726190476195 16.26215277777778  3.2477678571428568 16.756510416666668  C 2.8831845238095246 16.85980902777778  2.459077380952381 16.94097222222222  1.9754464285714284 17  L 1.9196428571428572 17  C 1.8080357142857142 17  1.7075892857142858 16.961263020833332  1.6183035714285716 16.8837890625  C 1.5290178571428572 16.806315104166668  1.469494047619048 16.70486111111111  1.4397321428571428 16.579427083333332  L 1.4397321428571428 16.568359375  C 1.4174107142857144 16.53884548611111  1.4155505952380953 16.49457465277778  1.4341517857142858 16.435546875  C 1.4527529761904765 16.37651909722222  1.4601934523809526 16.33962673611111  1.4564732142857142 16.324869791666668  C 1.4527529761904765 16.31011284722222  1.469494047619048 16.275065104166668  1.5066964285714284 16.2197265625  L 1.5736607142857142 16.1201171875  C 1.5736607142857142 16.1201171875  1.5997023809523812 16.088758680555557  1.6517857142857142 16.026041666666668  C 1.703869047619048 15.963324652777777  1.7336309523809526 15.930121527777777  1.7410714285714284 15.926432291666668  C 1.7931547619047623 15.86740451388889  1.9084821428571428 15.740125868055557  2.0870535714285716 15.544596354166668  C 2.265625 15.349066840277777  2.3939732142857144 15.208875868055557  2.4720982142857144 15.1240234375  C 2.5502232142857144 15.039171006944443  2.6655505952380953 14.893446180555557  2.8180803571428568 14.686848958333332  C 2.970610119047619 14.48025173611111  3.0915178571428568 14.292100694444443  3.1808035714285716 14.122395833333332  C 3.2700892857142856 13.952690972222223  3.3705357142857144 13.735026041666668  3.4821428571428568 13.469401041666668  C 3.59375 13.203776041666668  3.6904761904761907 12.923394097222223  3.7723214285714284 12.628255208333334  C 2.604166666666667 11.971571180555555  1.6834077380952381 11.15993923611111  1.0100446428571428 10.193359375  C 0.3366815476190476 9.226779513888886  0 8.190104166666668  0 7.083333333333333  C 0 5.799479166666667  0.44642857142857145 4.613389756944443  1.3392857142857142 3.5250651041666674  C 2.2321428571428577 2.436740451388888  3.4449404761904763 1.5771484375  4.977678571428571 0.9462890625  C 6.510416666666668 0.3154296875  8.18452380952381 0  10 0  C 11.81547619047619 0  13.489583333333336 0.3154296875  15.022321428571427 0.9462890625  C 16.555059523809526 1.5771484375  17.767857142857142 2.436740451388888  18.660714285714285 3.5250651041666674  Z " fill-rule="nonzero" fill="#ffffff" stroke="none" transform="matrix(1 0 0 1 88 274 )" />
  </g>
</svg>