<?xml version="1.0" encoding="utf-8"?>
<svg version="1.1" xmlns:xlink="http://www.w3.org/1999/xlink" width="23px" height="20px" xmlns="http://www.w3.org/2000/svg">
  <g>
    <path d="M 10.352764423076923 1.715893108298172  C 10.527844551282051 1.894045944678855  10.615384615384617 2.1050164088138756  11 2.3488045007032343  L 11 17.651195499296765  C 10.615384615384617 17.894983591186122  10.527844551282051 18.105954055321142  10.352764423076923 18.28410689170183  C 10.177684294871796 18.462259728082515  9.970352564102564 18.551336146272853  9.73076923076923 18.551336146272853  C 9.491185897435898 18.551336146272853  9.283854166666668 18.462259728082515  9.108774038461538 18.28410689170183  L 4.506009615384615 13.60056258790436  L 0.8846153846153847 13.60056258790436  C 0.6450320512820514 13.60056258790436  0.43770032051282054 13.511486169714019  0.2626201923076923 13.333333333333336  C 0.0875400641025641 13.155180496952648  0 12.944210032817626  0 12.70042194092827  L 0 7.299578059071729  C 0 7.0557899671823705  0.0875400641025641 6.844819503047348  0.2626201923076923 6.666666666666668  C 0.43770032051282054 6.48851383028598  0.6450320512820514 6.399437412095641  0.8846153846153847 6.399437412095641  L 4.506009615384615 6.399437412095641  L 9.108774038461538 1.715893108298172  C 9.283854166666668 1.537740271917487  9.491185897435898 1.4486638537271457  9.73076923076923 1.4486638537271457  C 9.970352564102564 1.4486638537271457  10.177684294871796 1.537740271917487  10.352764423076923 1.715893108298172  Z M 15.335637019230768 8.0028129395218  C 15.727263621794874 8.621659634317862  15.923076923076923 9.28738865447726  15.923076923076923 10  C 15.923076923076923 10.712611345522738  15.727263621794874 11.375996249413971  15.335637019230768 11.9901547116737  C 14.944010416666668 12.604313173933424  14.42568108974359 13.042662916080637  13.780649038461538 13.30520393811533  C 13.688501602564106 13.352086263478666  13.57331730769231 13.375527426160335  13.435096153846155 13.375527426160335  C 13.195512820512823 13.375527426160335  12.98818108974359 13.28879512423816  12.813100961538462 13.115330520393812  C 12.638020833333336 12.941865916549457  12.550480769230768 12.728551336146271  12.550480769230768 12.475386779184248  C 12.550480769230768 12.278481012658226  12.605769230769232 12.112048757618377  12.716346153846155 11.976090014064697  C 12.826923076923077 11.840131270511016  12.960536858974361 11.722925457102672  13.1171875 11.624472573839665  C 13.273838141025644 11.526019690576652  13.430488782051283 11.418190342240973  13.587139423076923 11.300984528832632  C 13.743790064102564 11.183778715424284  13.877403846153845 11.015002344116267  13.987980769230768 10.79465541490858  C 14.098557692307693 10.57430848570089  14.153846153846155 10.309423347398031  14.153846153846155 10  C 14.153846153846155 9.690576652601969  14.098557692307693 9.425691514299109  13.987980769230768 9.205344585091419  C 13.877403846153845 8.984997655883731  13.743790064102564 8.816221284575715  13.587139423076923 8.699015471167371  C 13.430488782051283 8.581809657759026  13.273838141025644 8.473980309423348  13.1171875 8.375527426160339  C 12.960536858974361 8.277074542897328  12.826923076923077 8.15986872948898  12.716346153846155 8.023909985935303  C 12.605769230769232 7.887951242381622  12.550480769230768 7.721518987341771  12.550480769230768 7.524613220815752  C 12.550480769230768 7.271448663853725  12.638020833333336 7.058134083450538  12.813100961538462 6.884669479606189  C 12.98818108974359 6.7112048757618386  13.195512820512823 6.624472573839661  13.435096153846155 6.624472573839661  C 13.57331730769231 6.624472573839661  13.688501602564106 6.647913736521332  13.780649038461538 6.694796061884669  C 14.42568108974359 6.947960618846696  14.944010416666668 7.383966244725739  15.335637019230768 8.0028129395218  Z M 18.286658653846153 6.026722925457102  C 19.06991185897436 7.240975152367557  19.46153846153846 8.565400843881857  19.46153846153846 10  C 19.46153846153846 11.434599156118143  19.06991185897436 12.75902484763244  18.286658653846153 13.973277074542896  C 17.503405448717952 15.18752930145335  16.466746794871796 16.07126113455227  15.176682692307693 16.624472573839665  C 15.056891025641029 16.671354899203  14.941706730769232 16.69479606188467  14.831129807692307 16.69479606188467  C 14.582331730769232 16.69479606188467  14.37039262820513 16.60571964369433  14.1953125 16.427566807313642  C 14.020232371794874 16.249413970932956  13.93269230769231 16.038443506797936  13.932692307692307 15.79465541490858  C 13.93269230769231 15.428973277074542  14.11237980769231 15.152367557430848  14.471754807692307 14.964838255977497  C 14.98778044871795 14.692920768870135  15.337940705128206 14.486638537271448  15.522235576923077 14.345991561181435  C 16.204126602564106 13.839662447257384  16.736278044871796 13.204406938584153  17.118689903846153 12.440225035161742  C 17.501101762820515 11.676043131739334  17.692307692307693 10.862634786685419  17.692307692307693 10  C 17.692307692307693 9.13736521331458  17.501101762820515 8.323956868260664  17.118689903846153 7.559774964838255  C 16.736278044871796 6.795593061415845  16.204126602564106 6.160337552742616  15.522235576923077 5.654008438818565  C 15.337940705128206 5.513361462728552  14.98778044871795 5.307079231129864  14.471754807692307 5.035161744022503  C 14.11237980769231 4.84763244256915  13.93269230769231 4.571026722925458  13.932692307692307 4.205344585091419  C 13.93269230769231 3.961556493202061  14.020232371794874 3.75058602906704  14.1953125 3.5724331926863573  C 14.37039262820513 3.3942803563056723  14.577724358974361 3.305203938115331  14.817307692307693 3.305203938115331  C 14.937099358974361 3.305203938115331  15.056891025641029 3.3286451007969964  15.176682692307693 3.3755274261603385  C 16.466746794871796 3.928738865447725  17.503405448717952 4.812470698546645  18.286658653846153 6.026722925457102  Z M 21.244591346153847 4.057665260196906  C 22.414863782051285 5.862634786685419  23 7.843413033286448  23 10  C 23 12.156586966713547  22.414863782051285 14.137365213314578  21.244591346153847 15.942334739803094  C 20.074318910256412 17.747304266291607  18.517027243589745 19.07641819034224  16.572716346153847 19.92967651195499  C 16.45292467948718 19.97655883731833  16.333133012820515 20  16.213341346153847 20  C 15.973758012820513 20  15.766426282051283 19.91092358180966  15.591346153846155 19.732770745428972  C 15.416266025641029 19.55461790904829  15.328725961538462 19.343647444913266  15.328725961538462 19.09985935302391  C 15.328725961538462 18.762306610407876  15.508413461538462 18.485700890764182  15.867788461538462 18.270042194092827  C 15.932291666666668 18.232536333802155  16.035957532051285 18.18330989217065  16.178786057692307 18.122362869198312  C 16.321614583333336 18.061415846225973  16.425280448717952 18.01218940459447  16.489783653846153 17.974683544303797  C 16.91366185897436 17.740271917487107  17.291466346153847 17.50117205813408  17.623197115384617 17.257383966244724  C 18.756610576923077 16.40412564463197  19.64122596153846 15.339896858884199  20.277043269230766 14.064697609001406  C 20.912860576923077 12.789498359118612  21.230769230769234 11.434599156118143  21.230769230769234 10  C 21.230769230769234 8.565400843881857  20.912860576923077 7.210501640881388  20.277043269230766 5.935302390998594  C 19.64122596153846 4.660103141115799  18.756610576923077 3.595874355368025  17.623197115384617 2.742616033755274  C 17.291466346153847 2.4988279418659154  16.91366185897436 2.2597280825128907  16.489783653846153 2.0253164556962022  C 16.425280448717952 1.9878105954055303  16.321614583333336 1.9385841537740256  16.178786057692307 1.8776371308016881  C 16.035957532051285 1.8166901078293463  15.932291666666668 1.7674636661978416  15.867788461538462 1.729957805907174  C 15.508413461538462 1.514299109235815  15.328725961538462 1.2376933895921227  15.328725961538462 0.9001406469760909  C 15.328725961538462 0.65635255508673  15.416266025641029 0.4453820909517092  15.591346153846155 0.2672292545710264  C 15.766426282051283 0.0890764181903414  15.973758012820513 0  16.213341346153847 0  C 16.333133012820515 0  16.45292467948718 0.023441162681667738  16.572716346153847 0.07032348804500765  C 18.517027243589745 0.9235818096577564  20.074318910256412 2.2526957337083897  21.244591346153847 4.057665260196906  Z " fill-rule="nonzero" fill="#ffffff" stroke="none" />
  </g>
</svg>