<?xml version="1.0" encoding="utf-8"?>
<svg version="1.1" xmlns:xlink="http://www.w3.org/1999/xlink" width="13px" height="20px" xmlns="http://www.w3.org/2000/svg">
  <g>
    <path d="M 12.678385416666666 0.3125  C 12.89279513888889 0.5208333333333304  13 0.7675438596491202  13 1.0526315789473695  L 13 18.947368421052634  C 13 19.232456140350877  12.89279513888889 19.479166666666664  12.678385416666666 19.6875  C 12.463975694444445 19.895833333333336  12.210069444444445 20  11.916666666666666 20  C 11.62326388888889 20  11.36935763888889 19.895833333333336  11.154947916666666 19.6875  L 5.518229166666667 14.210526315789473  L 1.0833333333333333 14.210526315789473  C 0.7899305555555556 14.210526315789473  0.5360243055555556 14.106359649122808  0.3216145833333333 13.898026315789473  C 0.10720486111111112 13.689692982456139  0 13.442982456140351  0 13.157894736842106  L 0 6.842105263157894  C 0 6.557017543859647  0.10720486111111112 6.310307017543857  0.3216145833333333 6.1019736842105265  C 0.5360243055555556 5.893640350877192  0.7899305555555556 5.7894736842105265  1.0833333333333333 5.7894736842105265  L 5.518229166666667 5.7894736842105265  L 11.154947916666666 0.3125  C 11.36935763888889 0.10416666666666519  11.62326388888889 0  11.916666666666666 0  C 12.210069444444445 0  12.463975694444445 0.10416666666666519  12.678385416666666 0.3125  Z " fill-rule="nonzero" fill="#ffffff" stroke="none" />
  </g>
</svg>