<?xml version="1.0" encoding="utf-8"?>
<svg version="1.1" xmlns:xlink="http://www.w3.org/1999/xlink" width="19px" height="16px" xmlns="http://www.w3.org/2000/svg">
  <g transform="matrix(1 0 0 1 -21 -7 )">
    <path d="M 8.552283653846153 1.3727144866385377  C 8.696915064102564 1.515236755743084  8.76923076923077 1.6840131270511005  9 1.8790436005625875  L 9 14.120956399437413  C 8.76923076923077 14.315986872948898  8.696915064102564 14.484763244256914  8.552283653846153 14.627285513361462  C 8.407652243589745 14.76980778246601  8.236378205128206 14.841068917018283  8.038461538461538 14.841068917018283  C 7.840544871794872 14.841068917018283  7.669270833333334 14.76980778246601  7.524639423076923 14.627285513361462  L 3.722355769230769 10.880450070323487  L 0.7307692307692308 10.880450070323487  C 0.5328525641025642 10.880450070323487  0.36157852564102566 10.809188935771214  0.21694711538461536 10.666666666666668  C 0.07231570512820512 10.524144397562118  0 10.355368026254101  0 10.160337552742616  L 0 5.839662447257384  C 0 5.644631973745897  0.07231570512820512 5.475855602437878  0.21694711538461536 5.333333333333334  C 0.36157852564102566 5.190811064228784  0.5328525641025642 5.119549929676513  0.7307692307692308 5.119549929676513  L 3.722355769230769 5.119549929676513  L 7.524639423076923 1.3727144866385377  C 7.669270833333334 1.2301922175339897  7.840544871794872 1.1589310829817165  8.038461538461538 1.1589310829817165  C 8.236378205128206 1.1589310829817165  8.407652243589745 1.2301922175339897  8.552283653846153 1.3727144866385377  Z M 12.66856971153846 6.40225035161744  C 12.992087339743591 6.89732770745429  13.153846153846153 7.429910923581808  13.153846153846153 8  C 13.153846153846153 8.57008907641819  12.992087339743591 9.100796999531177  12.66856971153846 9.59212376933896  C 12.345052083333334 10.083450539146739  11.916866987179487 10.434130332864509  11.384014423076923 10.644163150492265  C 11.307892628205131 10.681669010782933  11.212740384615387 10.700421940928269  11.098557692307693 10.700421940928269  C 10.900641025641027 10.700421940928269  10.729366987179487 10.631036099390528  10.584735576923077 10.492264416315049  C 10.440104166666668 10.353492733239566  10.36778846153846 10.182841068917018  10.36778846153846 9.980309423347398  C 10.36778846153846 9.822784810126581  10.41346153846154 9.689639006094701  10.504807692307693 9.580872011251758  C 10.596153846153847 9.472105016408813  10.70653044871795 9.378340365682138  10.8359375 9.299578059071731  C 10.965344551282055 9.220815752461322  11.094751602564104 9.134552273792778  11.224158653846153 9.040787623066105  C 11.353565705128206 8.947022972339427  11.463942307692307 8.812001875293014  11.55528846153846 8.635724331926863  C 11.646634615384617 8.459446788560712  11.692307692307693 8.247538677918424  11.692307692307693 8  C 11.692307692307693 7.752461322081576  11.646634615384617 7.540553211439287  11.55528846153846 7.364275668073136  C 11.463942307692307 7.187998124706985  11.353565705128206 7.052977027660571  11.224158653846153 6.9592123769338965  C 11.094751602564104 6.86544772620722  10.965344551282055 6.779184247538678  10.8359375 6.700421940928271  C 10.70653044871795 6.6216596343178615  10.596153846153847 6.527894983591185  10.504807692307693 6.419127988748242  C 10.41346153846154 6.310360993905297  10.36778846153846 6.177215189873417  10.36778846153846 6.019690576652602  C 10.36778846153846 5.8171589310829805  10.440104166666668 5.64650726676043  10.584735576923077 5.507735583684951  C 10.729366987179487 5.3689639006094705  10.900641025641027 5.299578059071729  11.098557692307693 5.299578059071729  C 11.212740384615387 5.299578059071729  11.307892628205131 5.318330989217065  11.384014423076923 5.355836849507735  C 11.916866987179487 5.558368495077357  12.345052083333334 5.907172995780591  12.66856971153846 6.40225035161744  Z M 15.106370192307693 4.821378340365682  C 15.75340544871795 5.792780121894046  16.076923076923077 6.852320675105485  16.076923076923077 8  C 16.076923076923077 9.147679324894515  15.75340544871795 10.207219878105953  15.106370192307693 11.178621659634317  C 14.459334935897438 12.15002344116268  13.602964743589745 12.857008907641816  12.537259615384617 13.299578059071731  C 12.438301282051285 13.3370839193624  12.34314903846154 13.355836849507735  12.251802884615383 13.355836849507735  C 12.04627403846154 13.355836849507735  11.87119391025641 13.284575714955462  11.7265625 13.142053445850914  C 11.581931089743591 12.999531176746366  11.509615384615387 12.83075480543835  11.509615384615383 12.635724331926863  C 11.509615384615387 12.343178621659634  11.658052884615387 12.121894045944678  11.954927884615383 11.971870604781998  C 12.381209935897438 11.754336615096108  12.670472756410257 11.589310829817158  12.822716346153847 11.476793248945148  C 13.386017628205131 11.071729957805907  13.825620993589745 10.563525550867322  14.141526442307693 9.952180028129394  C 14.45743189102564 9.340834505391467  14.615384615384617 8.690107829348335  14.615384615384617 8  C 14.615384615384617 7.309892170651663  14.45743189102564 6.659165494608532  14.141526442307693 6.047819971870604  C 13.825620993589745 5.436474449132676  13.386017628205131 4.928270042194093  12.822716346153847 4.523206751054852  C 12.670472756410257 4.410689170182842  12.381209935897438 4.2456633849038905  11.954927884615383 4.028129395218002  C 11.658052884615387 3.8781059540553198  11.509615384615387 3.656821378340366  11.509615384615383 3.3642756680731356  C 11.509615384615387 3.1692451945616487  11.581931089743591 3.000468823253632  11.7265625 2.857946554149086  C 11.87119391025641 2.715424285044538  12.04246794871795 2.6441631504922647  12.240384615384617 2.6441631504922647  C 12.33934294871795 2.6441631504922647  12.438301282051285 2.662916080637597  12.537259615384617 2.700421940928271  C 13.602964743589745 3.14299109235818  14.459334935897438 3.849976558837316  15.106370192307693 4.821378340365682  Z M 17.549879807692307 3.2461322081575243  C 18.516626602564102 4.690107829348335  19 6.274730426629159  19 8  C 19 9.725269573370838  18.516626602564102 11.309892170651661  17.549879807692307 12.753867791842476  C 16.583133012820515 14.197843413033286  15.29667467948718 15.261134552273791  13.690504807692307 15.943741209563994  C 13.591546474358974 15.981247069854664  13.49258814102564 16  13.393629807692307 16  C 13.19571314102564 16  13.024439102564104 15.928738865447727  12.879807692307693 15.786216596343179  C 12.735176282051285 15.64369432723863  12.662860576923077 15.474917955930612  12.662860576923077 15.279887482419127  C 12.662860576923077 15.0098452883263  12.811298076923077 14.788560712611345  13.108173076923077 14.616033755274263  C 13.161458333333334 14.586029067041725  13.247095352564104 14.546647913736521  13.365084134615383 14.49789029535865  C 13.483072916666668 14.44913267698078  13.568709935897438 14.409751523675576  13.621995192307693 14.379746835443038  C 13.97215544871795 14.192217533989686  14.284254807692307 14.000937646507266  14.55829326923077 13.80590717299578  C 15.494591346153847 13.123300515705578  16.225360576923077 12.271917487107359  16.75060096153846 11.251758087201125  C 17.275841346153847 10.23159868729489  17.53846153846154 9.147679324894515  17.53846153846154 8  C 17.53846153846154 6.852320675105485  17.275841346153847 5.768401312705111  16.75060096153846 4.748241912798875  C 16.225360576923077 3.728082512892639  15.494591346153847 2.87669948429442  14.55829326923077 2.1940928270042193  C 14.284254807692307 1.9990623534927323  13.97215544871795 1.8077824660103126  13.621995192307693 1.6202531645569618  C 13.568709935897438 1.5902484763244242  13.483072916666668 1.5508673230192205  13.365084134615383 1.5021097046413505  C 13.247095352564104 1.453352086263477  13.161458333333334 1.4139709329582733  13.108173076923077 1.3839662447257393  C 12.811298076923077 1.211439287388652  12.662860576923077 0.9901547116736982  12.662860576923077 0.7201125175808727  C 12.662860576923077 0.525082044069384  12.735176282051285 0.3563056727613674  12.879807692307693 0.21378340365682114  C 13.024439102564104 0.07126113455227312  13.19571314102564 0  13.393629807692307 0  C 13.49258814102564 0  13.591546474358974 0.01875293014533419  13.690504807692307 0.05625879043600612  C 15.29667467948718 0.7388654477262051  16.583133012820515 1.8021565869667118  17.549879807692307 3.2461322081575243  Z " fill-rule="nonzero" fill="#ffffff" stroke="none" transform="matrix(1 0 0 1 21 7 )" />
  </g>
</svg>