<?xml version="1.0" encoding="utf-8"?>
<svg version="1.1" xmlns:xlink="http://www.w3.org/1999/xlink" width="10px" height="16px" xmlns="http://www.w3.org/2000/svg">
  <g transform="matrix(1 0 0 1 -26 -146 )">
    <path d="M 9.752604166666666 0.25  C 9.917534722222221 0.4166666666666643  10 0.6140350877192962  10 0.8421052631578956  L 10 15.157894736842106  C 10 15.3859649122807  9.917534722222221 15.583333333333332  9.752604166666666 15.75  C 9.58767361111111 15.916666666666668  9.39236111111111 16  9.166666666666666 16  C 8.940972222222223 16  8.745659722222223 15.916666666666668  8.580729166666666 15.75  L 4.244791666666667 11.368421052631579  L 0.8333333333333333 11.368421052631579  C 0.607638888888889 11.368421052631579  0.4123263888888889 11.285087719298247  0.24739583333333331 11.118421052631579  C 0.08246527777777778 10.951754385964911  0 10.75438596491228  0 10.526315789473685  L 0 5.473684210526315  C 0 5.245614035087717  0.08246527777777778 5.0482456140350855  0.24739583333333331 4.881578947368421  C 0.4123263888888889 4.714912280701753  0.607638888888889 4.631578947368421  0.8333333333333333 4.631578947368421  L 4.244791666666667 4.631578947368421  L 8.580729166666666 0.25  C 8.745659722222223 0.08333333333333215  8.940972222222223 0  9.166666666666666 0  C 9.39236111111111 0  9.58767361111111 0.08333333333333215  9.752604166666666 0.25  Z " fill-rule="nonzero" fill="#ffffff" stroke="none" transform="matrix(1 0 0 1 26 146 )" />
  </g>
</svg>