<?xml version="1.0" encoding="utf-8"?>
<svg version="1.1" xmlns:xlink="http://www.w3.org/1999/xlink" width="50px" height="22px" xmlns="http://www.w3.org/2000/svg">
  <g transform="matrix(1 0 0 1 -109 -419 )">
    <path d="M 49.710648148148145 10.270481144343302  C 49.90354938271606 10.461205028175119  50.000000000000014 10.680537494581706  50 10.928478543563068  C 50.000000000000014 11.19549198092761  49.90354938271606 11.424360641525789  49.710648148148145 11.615084525357608  L 38.59953703703704 21.742522756827046  C 38.2908950617284 22.009536194191586  37.95331790123457 22.066753359341135  37.58680555555556 21.914174252275682  C 37.22029320987655 21.742522756827046  37.03703703703704 21.465973125270914  37.03703703703704 21.084525357607284  L 37.03703703703704 14.676202860858258  L 0.9259259259259258 14.676202860858258  C 0.6558641975308642 14.676202860858258  0.4340277777777778 14.590377113133941  0.26041666666666663 14.418725617685304  C 0.08680555555555555 14.24707412223667  0 14.027741655830079  0 13.760728218465538  L 0 8.267880364109232  C 0 8.00086692674469  0.08680555555555555 7.781534460338101  0.26041666666666663 7.609882964889467  C 0.4340277777777778 7.438231469440833  0.6558641975308642 7.352405721716515  0.9259259259259258 7.352405721716515  L 37.03703703703704 7.352405721716515  L 37.03703703703704 0.9440832249674913  C 37.03703703703704 0.5435630689206767  37.22029320987655 0.2670134373645414  37.58680555555556 0.11443433029909023  C 37.95331790123457 -0.03814477676636585  38.2908950617284 0.00953619419158902  38.59953703703704 0.2574772431729524  L 49.710648148148145 10.270481144343302  Z " fill-rule="nonzero" fill="#7f7f7f" stroke="none" transform="matrix(1 0 0 1 109 419 )" />
  </g>
</svg>