<?xml version="1.0" encoding="utf-8"?>
<svg version="1.1" xmlns:xlink="http://www.w3.org/1999/xlink" width="16px" height="40px" xmlns="http://www.w3.org/2000/svg">
  <g transform="matrix(1 0 0 1 -204 -582 )">
    <path d="M 15.314285714285715 29.629629629629626  C 15.605194805194806 29.629629629629626  15.806060606060608 29.776234567901234  15.916883116883117 30.069444444444446  C 16.02770562770563 30.36265432098766  15.993073593073595 30.632716049382715  15.812987012987014 30.879629629629626  L 8.54025974025974 39.76851851851852  C 8.401731601731603 39.92283950617284  8.242424242424242 40  8.062337662337661 40  C 7.868398268398269 40  7.702164502164503 39.92283950617284  7.5636363636363635 39.76851851851852  L 0.18701298701298702 30.879629629629626  C 0.006926406926406911 30.632716049382715  -0.02770562770562772 30.36265432098766  0.08311688311688312 30.069444444444446  C 0.2077922077922078 29.776234567901234  0.4086580086580086 29.629629629629626  0.6857142857142857 29.629629629629626  L 5.34025974025974 29.629629629629626  L 5.34025974025974 0.7407407407407396  C 5.34025974025974 0.524691358024687  5.402597402597403 0.3472222222222232  5.527272727272727 0.2083333333333348  C 5.651948051948052 0.06944444444444642  5.811255411255412 0  6.005194805194805 0  L 9.994805194805195 0  C 10.188744588744589 0  10.348051948051948 0.06944444444444642  10.472727272727273 0.2083333333333348  C 10.597402597402597 0.3472222222222232  10.65974025974026 0.524691358024687  10.65974025974026 0.7407407407407396  L 10.65974025974026 29.629629629629626  L 15.314285714285715 29.629629629629626  Z " fill-rule="nonzero" fill="#7f7f7f" stroke="none" transform="matrix(1 0 0 1 204 582 )" />
  </g>
</svg>