<?xml version="1.0" encoding="utf-8"?>
<svg version="1.1" xmlns:xlink="http://www.w3.org/1999/xlink" width="20px" height="20px" xmlns="http://www.w3.org/2000/svg">
  <g transform="matrix(1 0 0 1 -56 -636 )">
    <path d="M 66 638  C 70.48 638  74 641.52  74 646  C 74 650.48  70.48 654  66 654  C 61.519999999999996 654  58 650.48  58 646  C 58 641.52  61.519999999999996 638  66 638  Z " fill-rule="nonzero" fill="#ffffff" stroke="none" fill-opacity="0" />
    <path d="M 66 637.5  C 70.76 637.5  74.5 641.24  74.5 646  C 74.5 650.76  70.76 654.5  66 654.5  C 61.24 654.5  57.5 650.76  57.5 646  C 57.5 641.24  61.24 637.5  66 637.5  Z " stroke-width="3" stroke="#ffffff" fill="none" />
  </g>
</svg>