<?xml version="1.0" encoding="utf-8"?>
<svg version="1.1" xmlns:xlink="http://www.w3.org/1999/xlink" width="35px" height="35px" xmlns="http://www.w3.org/2000/svg">
  <g transform="matrix(1 0 0 1 -11 -86 )">
    <path d="M 28.5 86  C 38.3 86  46 93.7  46 103.5  C 46 113.3  38.3 121  28.5 121  C 18.7 121  11 113.3  11 103.5  C 11 93.7  18.7 86  28.5 86  Z " fill-rule="nonzero" fill="#ffffff" stroke="none" />
    <path d="M 28.5 86.5  C 38.019999999999996 86.5  45.5 93.98  45.5 103.5  C 45.5 113.02  38.019999999999996 120.5  28.5 120.5  C 18.979999999999997 120.5  11.5 113.02  11.5 103.5  C 11.5 93.98  18.979999999999997 86.5  28.5 86.5  Z " stroke-width="1" stroke="#797979" fill="none" />
  </g>
</svg>