<?xml version="1.0" encoding="utf-8"?>
<svg version="1.1" xmlns:xlink="http://www.w3.org/1999/xlink" width="81px" height="10px" preserveAspectRatio="xMinYMid meet" viewBox="81 1289  81 8" xmlns="http://www.w3.org/2000/svg">
  <path d="M 157.5 1260  L 157.5 1288  A 5 5 0 0 1 152.5 1293.5 L 91 1293.5  A 5 5 0 0 0 86.5 1298.5 L 86.5 1322  " stroke-width="1" stroke-dasharray="3,1" stroke="#000000" fill="none" stroke-opacity="0.8313725490196079" />
  <path d="M 157.5 1259  A 3 3 0 0 0 154.5 1262 A 3 3 0 0 0 157.5 1265 A 3 3 0 0 0 160.5 1262 A 3 3 0 0 0 157.5 1259 Z M 80.2 1321  L 86.5 1327  L 92.8 1321  L 80.2 1321  Z " fill-rule="nonzero" fill="#000000" stroke="none" fill-opacity="0.8313725490196079" />
</svg>