<?xml version="1.0" encoding="utf-8"?>
<svg version="1.1" xmlns:xlink="http://www.w3.org/1999/xlink" width="18px" height="19px" preserveAspectRatio="xMidYMin meet" viewBox="78 1314  16 19" xmlns="http://www.w3.org/2000/svg">
  <path d="M 238.5 1222  L 238.5 1265  A 5 5 0 0 1 233 1270.5 L 160 1270.5  A 3 3 0 0 0 157 1267.5 A 3 3 0 0 0 154 1270.5 L 91 1270.5  A 5 5 0 0 0 86.5 1275.5 L 86.5 1322  " stroke-width="1" stroke-dasharray="3,1" stroke="#008080" fill="none" stroke-opacity="0.8313725490196079" />
  <path d="M 238.5 1221  A 3 3 0 0 0 235.5 1224 A 3 3 0 0 0 238.5 1227 A 3 3 0 0 0 241.5 1224 A 3 3 0 0 0 238.5 1221 Z M 80.2 1321  L 86.5 1327  L 92.8 1321  L 80.2 1321  Z " fill-rule="nonzero" fill="#008080" stroke="none" fill-opacity="0.8313725490196079" />
</svg>