<?xml version="1.0" encoding="utf-8"?>
<svg version="1.1" xmlns:xlink="http://www.w3.org/1999/xlink" width="18px" height="19px" preserveAspectRatio="xMidYMin meet" viewBox="78 1314  16 19" xmlns="http://www.w3.org/2000/svg">
  <path d="M 322.5 1183  L 322.5 1274  A 5 5 0 0 1 317 1279.5 L 160 1279.5  A 3 3 0 0 0 157 1276.5 A 3 3 0 0 0 154 1279.5 L 91 1279.5  A 5 5 0 0 0 86.5 1284.5 L 86.5 1322  " stroke-width="1" stroke-dasharray="3,1" stroke="#6300bf" fill="none" stroke-opacity="0.8313725490196079" />
  <path d="M 322.5 1182  A 3 3 0 0 0 319.5 1185 A 3 3 0 0 0 322.5 1188 A 3 3 0 0 0 325.5 1185 A 3 3 0 0 0 322.5 1182 Z M 80.2 1321  L 86.5 1327  L 92.8 1321  L 80.2 1321  Z " fill-rule="nonzero" fill="#6300bf" stroke="none" fill-opacity="0.8313725490196079" />
</svg>