<?xml version="1.0" encoding="utf-8"?>
<svg version="1.1" xmlns:xlink="http://www.w3.org/1999/xlink" width="49px" height="58px" xmlns="http://www.w3.org/2000/svg">
  <g transform="matrix(1 0 0 1 -137 -1550 )">
    <path d="M 185.5 1559.8  C 185.5 1559.8  185.5 1598.2  185.5 1598.2  C 185.5 1603.576  174.51999999999998 1607.5  161.5 1607.5  C 148.48 1607.5  137.5 1603.576  137.5 1598.2  C 137.5 1598.2  137.5 1559.8  137.5 1559.8  C 137.5 1554.424  148.48 1550.5  161.5 1550.5  C 174.51999999999998 1550.5  185.5 1554.424  185.5 1559.8  Z " fill-rule="nonzero" fill="#c280ff" stroke="none" />
    <path d="M 137.5 1560.1310344827587  C 137.5 1554.7376551724137  148.06 1550.5  161.5 1550.5  C 174.94 1550.5  185.5 1554.7376551724137  185.5 1560.1310344827587  C 185.5 1560.1310344827587  185.5 1597.8689655172413  185.5 1597.8689655172413  C 185.5 1603.2623448275863  174.94 1607.5  161.5 1607.5  C 148.06 1607.5  137.5 1603.2623448275863  137.5 1597.8689655172413  C 137.5 1597.8689655172413  137.5 1560.1310344827587  137.5 1560.1310344827587  Z " stroke-width="1" stroke="#797979" fill="none" />
    <path d="M 185.5 1559.8  C 185.5 1565.008  174.94 1569.1  161.5 1569.1  C 148.06 1569.1  137.5 1565.008  137.5 1559.8  " stroke-width="1" stroke="#797979" fill="none" />
  </g>
</svg>