<?xml version="1.0" encoding="utf-8"?>
<svg version="1.1" xmlns:xlink="http://www.w3.org/1999/xlink" width="49px" height="58px" xmlns="http://www.w3.org/2000/svg">
  <g transform="matrix(1 0 0 1 -276 -1550 )">
    <path d="M 324.5 1559.8  C 324.5 1559.8  324.5 1598.2  324.5 1598.2  C 324.5 1603.576  313.52 1607.5  300.5 1607.5  C 287.48 1607.5  276.5 1603.576  276.5 1598.2  C 276.5 1598.2  276.5 1559.8  276.5 1559.8  C 276.5 1554.424  287.48 1550.5  300.5 1550.5  C 313.52 1550.5  324.5 1554.424  324.5 1559.8  Z " fill-rule="nonzero" fill="#8080ff" stroke="none" />
    <path d="M 276.5 1560.1310344827587  C 276.5 1554.7376551724137  287.06 1550.5  300.5 1550.5  C 313.94 1550.5  324.5 1554.7376551724137  324.5 1560.1310344827587  C 324.5 1560.1310344827587  324.5 1597.8689655172413  324.5 1597.8689655172413  C 324.5 1603.2623448275863  313.94 1607.5  300.5 1607.5  C 287.06 1607.5  276.5 1603.2623448275863  276.5 1597.8689655172413  C 276.5 1597.8689655172413  276.5 1560.1310344827587  276.5 1560.1310344827587  Z " stroke-width="1" stroke="#797979" fill="none" />
    <path d="M 324.5 1559.8  C 324.5 1565.008  313.94 1569.1  300.5 1569.1  C 287.06 1569.1  276.5 1565.008  276.5 1559.8  " stroke-width="1" stroke="#797979" fill="none" />
  </g>
</svg>