<?xml version="1.0" encoding="utf-8"?>
<svg version="1.1" xmlns:xlink="http://www.w3.org/1999/xlink" width="18px" height="19px" preserveAspectRatio="xMidYMin meet" viewBox="293 1537  16 19" xmlns="http://www.w3.org/2000/svg">
  <defs>
    <mask fill="white" id="clip299">
      <path d="M 249 1507  L 293 1507  L 293 1533  L 249 1533  Z M 228 1485  L 310 1485  L 310 1559  L 228 1559  Z " fill-rule="evenodd" />
    </mask>
  </defs>
  <path d="M 237.5 1495  L 237.5 1515  A 5 5 0 0 0 242.5 1520.5 L 296 1520.5  A 5 5 0 0 1 301.5 1525.5 L 301.5 1545  " stroke-width="1" stroke-dasharray="3,1" stroke="#0000ff" fill="none" stroke-opacity="0.8313725490196079" mask="url(#clip299)" />
  <path d="M 237.5 1494  A 3 3 0 0 0 234.5 1497 A 3 3 0 0 0 237.5 1500 A 3 3 0 0 0 240.5 1497 A 3 3 0 0 0 237.5 1494 Z M 295.2 1544  L 301.5 1550  L 307.8 1544  L 295.2 1544  Z " fill-rule="nonzero" fill="#0000ff" stroke="none" fill-opacity="0.8313725490196079" mask="url(#clip299)" />
</svg>