<?xml version="1.0" encoding="utf-8"?>
<svg version="1.1" xmlns:xlink="http://www.w3.org/1999/xlink" width="18px" height="18px" preserveAspectRatio="xMinYMid meet" viewBox="370 1489  18 16" xmlns="http://www.w3.org/2000/svg">
  <defs>
    <mask fill="white" id="clip303">
      <path d="M 403 1507  L 447 1507  L 447 1533  L 403 1533  Z M 370 1485  L 447 1485  L 447 1600  L 370 1600  Z " fill-rule="evenodd" />
    </mask>
  </defs>
  <path d="M 379.5 1495  L 379.5 1512  A 5 5 0 0 0 384.5 1517.5 L 420 1517.5  A 5 5 0 0 1 425.5 1522.5 L 425.5 1586  " stroke-width="1" stroke-dasharray="3,1" stroke="#d9001b" fill="none" stroke-opacity="0.8313725490196079" mask="url(#clip303)" />
  <path d="M 379.5 1494  A 3 3 0 0 0 376.5 1497 A 3 3 0 0 0 379.5 1500 A 3 3 0 0 0 382.5 1497 A 3 3 0 0 0 379.5 1494 Z M 419.2 1585  L 425.5 1591  L 431.8 1585  L 419.2 1585  Z " fill-rule="nonzero" fill="#d9001b" stroke="none" fill-opacity="0.8313725490196079" mask="url(#clip303)" />
</svg>