<?xml version="1.0" encoding="utf-8"?>
<svg version="1.1" xmlns:xlink="http://www.w3.org/1999/xlink" width="110px" height="70px" xmlns="http://www.w3.org/2000/svg">
  <g transform="matrix(1 0 0 1 -500 -2023 )">
    <path d="M 510.5 2092.5  L 609.5 2092.5  L 609.5 2033.5  L 604.5 2033.5  L 604.5 2028.5  L 599.5 2028.5  L 599.5 2023.5  L 500.5 2023.5  L 500.5 2082.5  L 505.5 2082.5  L 505.5 2087.5  L 510.5 2087.5  L 510.5 2092.5  Z " fill-rule="nonzero" fill="#ffffff" stroke="none" />
    <path d="M 510.5 2092.5  L 609.5 2092.5  L 609.5 2033.5  L 604.5 2033.5  L 604.5 2028.5  L 599.5 2028.5  L 599.5 2023.5  L 500.5 2023.5  L 500.5 2082.5  L 505.5 2082.5  L 505.5 2087.5  L 510.5 2087.5  L 510.5 2092.5  Z " stroke-width="1" stroke="#797979" fill="none" />
    <path d="M 604.5 2034  L 604.5 2087.5  L 511 2087.5  M 599.5 2029  L 599.5 2082.5  L 506 2082.5  " stroke-width="1" stroke="#797979" fill="none" />
  </g>
</svg>