<?xml version="1.0" encoding="utf-8"?>
<svg version="1.1" xmlns:xlink="http://www.w3.org/1999/xlink" width="76px" height="77px" xmlns="http://www.w3.org/2000/svg">
  <g transform="matrix(1 0 0 1 -500 -2125 )">
    <path d="M 510.5 2201.5  L 575.5 2201.5  L 575.5 2145.5  L 555.5 2125.5  L 500.5 2125.5  L 500.5 2191.5  L 505.5 2191.5  L 505.5 2196.5  L 510.5 2196.5  L 510.5 2201.5  Z " fill-rule="nonzero" fill="#ffffff" stroke="none" />
    <path d="M 510.5 2201.5  L 575.5 2201.5  L 575.5 2145.5  L 555.5 2125.5  L 500.5 2125.5  L 500.5 2191.5  L 505.5 2191.5  L 505.5 2196.5  L 510.5 2196.5  L 510.5 2201.5  Z " stroke-width="1" stroke="#797979" fill="none" />
    <path d="M 565.5 2140.5  L 570.5 2141  L 570.5 2196.5  L 511 2196.5  M 555.5 2126  L 555.5 2135.5  L 565.5 2135.5  L 565.5 2191.5  L 506 2191.5  M 575 2145.5  L 570.5 2145.5  " stroke-width="1" stroke="#797979" fill="none" />
  </g>
</svg>