<?xml version="1.0" encoding="utf-8"?>
<svg version="1.1" xmlns:xlink="http://www.w3.org/1999/xlink" width="18px" height="18px" preserveAspectRatio="xMinYMid meet" viewBox="165 2001  18 16" xmlns="http://www.w3.org/2000/svg">
  <path d="M 172 2009.5  L 190 2009.5  A 5 5 0 0 1 195.5 2014.5 L 195.5 2053  A 5 5 0 0 0 200.5 2058.5 L 214 2058.5  " stroke-width="1" stroke-dasharray="3,1" stroke="#d9001b" fill="none" stroke-opacity="0.8313725490196079" />
  <path d="M 174 2006.5  A 3 3 0 0 0 171 2009.5 A 3 3 0 0 0 174 2012.5 A 3 3 0 0 0 177 2009.5 A 3 3 0 0 0 174 2006.5 Z M 213 2064.8  L 219 2058.5  L 213 2052.2  L 213 2064.8  Z " fill-rule="nonzero" fill="#d9001b" stroke="none" fill-opacity="0.8313725490196079" />
</svg>