<?xml version="1.0" encoding="utf-8"?>
<svg version="1.1" xmlns:xlink="http://www.w3.org/1999/xlink" width="37px" height="10px" preserveAspectRatio="xMinYMid meet" viewBox="637 2160  37 8" xmlns="http://www.w3.org/2000/svg">
  <path d="M 611 2270.5  L 637 2270.5  A 5 5 0 0 0 642.5 2265.5 L 642.5 2169  A 5 5 0 0 1 647.5 2164.5 L 669 2164.5  " stroke-width="1" stroke-dasharray="3,1" stroke="#d9001b" fill="none" stroke-opacity="0.8313725490196079" />
  <path d="M 613 2267.5  A 3 3 0 0 0 610 2270.5 A 3 3 0 0 0 613 2273.5 A 3 3 0 0 0 616 2270.5 A 3 3 0 0 0 613 2267.5 Z M 668 2170.8  L 674 2164.5  L 668 2158.2  L 668 2170.8  Z " fill-rule="nonzero" fill="#d9001b" stroke="none" fill-opacity="0.8313725490196079" />
</svg>