<?xml version="1.0" encoding="utf-8"?>
<svg version="1.1" xmlns:xlink="http://www.w3.org/1999/xlink" width="18px" height="18px" preserveAspectRatio="xMinYMid meet" viewBox="165 2937  18 16" xmlns="http://www.w3.org/2000/svg">
  <path d="M 172 2945.5  L 300 2945.5  A 5 5 0 0 1 305.5 2950.5 L 305.5 2964  A 5 5 0 0 0 310.5 2969.5 L 435 2969.5  " stroke-width="1" stroke-dasharray="3,1" stroke="#d9001b" fill="none" stroke-opacity="0.8313725490196079" />
  <path d="M 174 2942.5  A 3 3 0 0 0 171 2945.5 A 3 3 0 0 0 174 2948.5 A 3 3 0 0 0 177 2945.5 A 3 3 0 0 0 174 2942.5 Z M 434 2975.8  L 440 2969.5  L 434 2963.2  L 434 2975.8  Z " fill-rule="nonzero" fill="#d9001b" stroke="none" fill-opacity="0.8313725490196079" />
</svg>