<?xml version="1.0" encoding="utf-8"?>
<svg version="1.1" xmlns:xlink="http://www.w3.org/1999/xlink" width="19px" height="18px" preserveAspectRatio="xMinYMid meet" viewBox="779 2961  19 16" xmlns="http://www.w3.org/2000/svg">
  <path d="M 848 2940.5  L 822 2940.5  A 5 5 0 0 0 817.5 2945.5 L 817.5 2964  A 5 5 0 0 1 812.5 2969.5 L 790 2969.5  " stroke-width="1" stroke-dasharray="3,1" stroke="#d9001b" fill="none" stroke-opacity="0.8313725490196079" />
  <path d="M 846 2937.5  A 3 3 0 0 0 843 2940.5 A 3 3 0 0 0 846 2943.5 A 3 3 0 0 0 849 2940.5 A 3 3 0 0 0 846 2937.5 Z M 791 2963.2  L 785 2969.5  L 791 2975.8  L 791 2963.2  Z " fill-rule="nonzero" fill="#d9001b" stroke="none" fill-opacity="0.8313725490196079" />
</svg>