<?xml version="1.0" encoding="utf-8"?>
<svg version="1.1" xmlns:xlink="http://www.w3.org/1999/xlink" width="37px" height="10px" preserveAspectRatio="xMinYMid meet" viewBox="785 2965  37 8" xmlns="http://www.w3.org/2000/svg">
  <path d="M 848 2989.5  L 822 2989.5  A 5 5 0 0 1 817.5 2984.5 L 817.5 2974  A 5 5 0 0 0 812.5 2969.5 L 790 2969.5  " stroke-width="1" stroke-dasharray="3,1" stroke="#d9001b" fill="none" stroke-opacity="0.8313725490196079" />
  <path d="M 846 2986.5  A 3 3 0 0 0 843 2989.5 A 3 3 0 0 0 846 2992.5 A 3 3 0 0 0 849 2989.5 A 3 3 0 0 0 846 2986.5 Z M 791 2963.2  L 785 2969.5  L 791 2975.8  L 791 2963.2  Z " fill-rule="nonzero" fill="#d9001b" stroke="none" fill-opacity="0.8313725490196079" />
</svg>