<?xml version="1.0" encoding="utf-8"?>
<svg version="1.1" xmlns:xlink="http://www.w3.org/1999/xlink" width="18px" height="18px" preserveAspectRatio="xMinYMid meet" viewBox="779 3350  18 16" xmlns="http://www.w3.org/2000/svg">
  <path d="M 786 3358.5  L 812 3358.5  A 5 5 0 0 0 817.5 3353.5 L 817.5 3339  A 5 5 0 0 1 822.5 3334.5 L 844 3334.5  " stroke-width="1" stroke-dasharray="3,1" stroke="#d9001b" fill="none" stroke-opacity="0.8313725490196079" />
  <path d="M 788 3355.5  A 3 3 0 0 0 785 3358.5 A 3 3 0 0 0 788 3361.5 A 3 3 0 0 0 791 3358.5 A 3 3 0 0 0 788 3355.5 Z M 843 3340.8  L 849 3334.5  L 843 3328.2  L 843 3340.8  Z " fill-rule="nonzero" fill="#d9001b" stroke="none" fill-opacity="0.8313725490196079" />
</svg>