<?xml version="1.0" encoding="utf-8"?>
<svg version="1.1" xmlns:xlink="http://www.w3.org/1999/xlink" width="44px" height="10px" preserveAspectRatio="xMinYMid meet" viewBox="805 3228  44 8" xmlns="http://www.w3.org/2000/svg">
  <path d="M 786 3160.5  L 805 3160.5  A 5 5 0 0 1 810.5 3165.5 L 810.5 3227  A 5 5 0 0 0 815.5 3232.5 L 844 3232.5  " stroke-width="1" stroke-dasharray="3,1" stroke="#d9001b" fill="none" stroke-opacity="0.8313725490196079" />
  <path d="M 788 3157.5  A 3 3 0 0 0 785 3160.5 A 3 3 0 0 0 788 3163.5 A 3 3 0 0 0 791 3160.5 A 3 3 0 0 0 788 3157.5 Z M 843 3238.8  L 849 3232.5  L 843 3226.2  L 843 3238.8  Z " fill-rule="nonzero" fill="#d9001b" stroke="none" fill-opacity="0.8313725490196079" />
</svg>