<?xml version="1.0" encoding="utf-8"?>
<svg version="1.1" xmlns:xlink="http://www.w3.org/1999/xlink" width="19px" height="18px" preserveAspectRatio="xMinYMid meet" viewBox="632 3152  19 16" xmlns="http://www.w3.org/2000/svg">
  <path d="M 581 3259.5  L 605 3259.5  A 5 5 0 0 0 610.5 3254.5 L 610.5 3165  A 5 5 0 0 1 615.5 3160.5 L 640 3160.5  " stroke-width="1" stroke-dasharray="3,1" stroke="#d9001b" fill="none" stroke-opacity="0.8313725490196079" />
  <path d="M 583 3256.5  A 3 3 0 0 0 580 3259.5 A 3 3 0 0 0 583 3262.5 A 3 3 0 0 0 586 3259.5 A 3 3 0 0 0 583 3256.5 Z M 639 3166.8  L 645 3160.5  L 639 3154.2  L 639 3166.8  Z " fill-rule="nonzero" fill="#d9001b" stroke="none" fill-opacity="0.8313725490196079" />
</svg>