<?xml version="1.0" encoding="utf-8"?>
<svg version="1.1" xmlns:xlink="http://www.w3.org/1999/xlink" width="40px" height="10px" preserveAspectRatio="xMinYMid meet" viewBox="605 3354  40 8" xmlns="http://www.w3.org/2000/svg">
  <path d="M 581 3259.5  L 605 3259.5  A 5 5 0 0 1 610.5 3264.5 L 610.5 3353  A 5 5 0 0 0 615.5 3358.5 L 640 3358.5  " stroke-width="1" stroke-dasharray="3,1" stroke="#d9001b" fill="none" stroke-opacity="0.8313725490196079" />
  <path d="M 583 3256.5  A 3 3 0 0 0 580 3259.5 A 3 3 0 0 0 583 3262.5 A 3 3 0 0 0 586 3259.5 A 3 3 0 0 0 583 3256.5 Z M 639 3364.8  L 645 3358.5  L 639 3352.2  L 639 3364.8  Z " fill-rule="nonzero" fill="#d9001b" stroke="none" fill-opacity="0.8313725490196079" />
</svg>