<?xml version="1.0" encoding="utf-8"?>
<svg version="1.1" xmlns:xlink="http://www.w3.org/1999/xlink" width="18px" height="18px" preserveAspectRatio="xMinYMid meet" viewBox="224 3155  18 16" xmlns="http://www.w3.org/2000/svg">
  <path d="M 235 3163.5  L 208 3163.5  A 5 5 0 0 1 203.5 3158.5 L 203.5 3095  A 5 5 0 0 0 198.5 3090.5 L 176 3090.5  " stroke-width="1" stroke-dasharray="3,1" stroke="#d9001b" fill="none" stroke-opacity="0.8313725490196079" />
  <path d="M 233 3160.5  A 3 3 0 0 0 230 3163.5 A 3 3 0 0 0 233 3166.5 A 3 3 0 0 0 236 3163.5 A 3 3 0 0 0 233 3160.5 Z M 177 3084.2  L 171 3090.5  L 177 3096.8  L 177 3084.2  Z " fill-rule="nonzero" fill="#d9001b" stroke="none" fill-opacity="0.8313725490196079" />
</svg>