<?xml version="1.0" encoding="utf-8"?>
<svg version="1.1" xmlns:xlink="http://www.w3.org/1999/xlink" width="10px" height="83px" preserveAspectRatio="xMidYMin meet" viewBox="199 3278  8 83" xmlns="http://www.w3.org/2000/svg">
  <path d="M 235 3356.5  L 208 3356.5  A 5 5 0 0 1 203.5 3351.5 L 203.5 3288  A 5 5 0 0 0 198.5 3283.5 L 176 3283.5  " stroke-width="1" stroke-dasharray="3,1" stroke="#d9001b" fill="none" stroke-opacity="0.8313725490196079" />
  <path d="M 233 3353.5  A 3 3 0 0 0 230 3356.5 A 3 3 0 0 0 233 3359.5 A 3 3 0 0 0 236 3356.5 A 3 3 0 0 0 233 3353.5 Z M 177 3277.2  L 171 3283.5  L 177 3289.8  L 177 3277.2  Z " fill-rule="nonzero" fill="#d9001b" stroke="none" fill-opacity="0.8313725490196079" />
</svg>