<?xml version="1.0" encoding="utf-8"?>
<svg version="1.1" xmlns:xlink="http://www.w3.org/1999/xlink" width="37px" height="10px" preserveAspectRatio="xMinYMid meet" viewBox="171 3424  37 8" xmlns="http://www.w3.org/2000/svg">
  <path d="M 235 3356.5  L 208 3356.5  A 5 5 0 0 0 203.5 3361.5 L 203.5 3423  A 5 5 0 0 1 198.5 3428.5 L 176 3428.5  " stroke-width="1" stroke-dasharray="3,1" stroke="#d9001b" fill="none" stroke-opacity="0.8313725490196079" />
  <path d="M 233 3353.5  A 3 3 0 0 0 230 3356.5 A 3 3 0 0 0 233 3359.5 A 3 3 0 0 0 236 3356.5 A 3 3 0 0 0 233 3353.5 Z M 177 3422.2  L 171 3428.5  L 177 3434.8  L 177 3422.2  Z " fill-rule="nonzero" fill="#d9001b" stroke="none" fill-opacity="0.8313725490196079" />
</svg>