<?xml version="1.0" encoding="utf-8"?>
<svg version="1.1" xmlns:xlink="http://www.w3.org/1999/xlink" width="45px" height="10px" preserveAspectRatio="xMinYMid meet" viewBox="395 3255  45 8" xmlns="http://www.w3.org/2000/svg">
  <path d="M 377 3356.5  L 395 3356.5  A 5 5 0 0 0 400.5 3351.5 L 400.5 3264  A 5 5 0 0 1 405.5 3259.5 L 435 3259.5  " stroke-width="1" stroke-dasharray="3,1" stroke="#d9001b" fill="none" stroke-opacity="0.8313725490196079" />
  <path d="M 379 3353.5  A 3 3 0 0 0 376 3356.5 A 3 3 0 0 0 379 3359.5 A 3 3 0 0 0 382 3356.5 A 3 3 0 0 0 379 3353.5 Z M 434 3265.8  L 440 3259.5  L 434 3253.2  L 434 3265.8  Z " fill-rule="nonzero" fill="#d9001b" stroke="none" fill-opacity="0.8313725490196079" />
</svg>