<?xml version="1.0" encoding="utf-8"?>
<svg version="1.1" xmlns:xlink="http://www.w3.org/1999/xlink" width="30px" height="36px" xmlns="http://www.w3.org/2000/svg">
  <g transform="matrix(1 0 0 1 -31 -4481 )">
    <path d="M 29.80078125 26.027343749999996  C 29.93359375 27.207031249999996  30 28.4609375  30 29.7890625  C 30 31.4921875  29.51171875 32.953125  28.53515625 34.171875  C 27.558593750000004 35.390625  26.382812500000004 36  25.0078125 36  L 4.9921875 36  C 3.6171875 36  2.4414062500000004 35.390625  1.4648437500000002 34.171875  C 0.4882812500000001 32.953125  0 31.4921875  0 29.7890625  C 0 28.4609375  0.06640625000000015 27.207031249999996  0.19921875000000017 26.027343749999996  C 0.33203125000000017 24.847656249999993  0.5781250000000001 23.66015625  0.9375000000000002 22.46484375  C 1.2968750000000004 21.26953125  1.7539062500000002 20.24609375  2.30859375 19.394531250000004  C 2.8632812500000004 18.542968749999996  3.59765625 17.84765625  4.51171875 17.30859375  C 5.42578125 16.76953125  6.476562500000001 16.5  7.664062500000001 16.5  C 9.7109375 18.5  12.156250000000002 19.500000000000004  15 19.500000000000004  C 17.843750000000004 19.500000000000004  20.289062500000004 18.5  22.3359375 16.5  C 23.5234375 16.5  24.57421875 16.76953125  25.48828125 17.30859375  C 26.40234375 17.84765625  27.136718750000004 18.542968749999996  27.69140625 19.394531250000004  C 28.246093750000004 20.24609375  28.703125 21.26953125  29.0625 22.46484375  C 29.421875000000004 23.66015625  29.667968750000004 24.847656249999993  29.80078125 26.027343749999996  Z M 21.36328125 2.63671875  C 23.12109375 4.39453125  24 6.515625000000002  24 9  C 24 11.484374999999998  23.12109375 13.60546875  21.36328125 15.36328125  C 19.60546875 17.12109375  17.484375 18  15 18  C 12.515625 18  10.39453125 17.12109375  8.63671875 15.36328125  C 6.87890625 13.60546875  6 11.484374999999998  6 9  C 6 6.515625000000002  6.87890625 4.39453125  8.63671875 2.63671875  C 10.39453125 0.87890625  12.515625 0  15 0  C 17.484375 0  19.60546875 0.87890625  21.36328125 2.63671875  Z " fill-rule="nonzero" fill="#000000" stroke="none" transform="matrix(1 0 0 1 31 4481 )" />
  </g>
</svg>