<?xml version="1.0" encoding="utf-8"?>
<svg version="1.1" xmlns:xlink="http://www.w3.org/1999/xlink" width="30px" height="36px" xmlns="http://www.w3.org/2000/svg">
  <g transform="matrix(1 0 0 1 -31 -5126 )">
    <path d="M 9.545454545454545 19.384615384615383  L 12.272727272727273 33.23076923076923  L 14.318181818181818 23.53846153846154  L 12.272727272727273 20.769230769230766  L 9.545454545454545 19.384615384615383  Z M 15.681818181818182 23.53846153846154  L 17.727272727272727 33.23076923076923  L 20.454545454545453 19.384615384615383  L 17.727272727272727 20.769230769230766  L 15.681818181818182 23.53846153846154  Z M 21.051136363636363 11.963942307692307  C 21.079545454545457 11.834134615384617  21.107954545454547 11.639423076923077  21.136363636363637 11.379807692307693  C 21.107954545454547 11.322115384615383  21.079545454545457 11.278846153846153  21.051136363636363 11.25  C 20.909090909090914 11.134615384615381  20.22727272727273 11.076923076923077  19.00568181818182 11.076923076923077  C 18.01136363636364 11.076923076923077  16.825284090909093 11.213942307692305  15.447443181818182 11.487980769230766  C 15.348011363636363 11.516826923076922  15.198863636363638 11.53125  15 11.53125  C 14.801136363636365 11.53125  14.651988636363638 11.516826923076922  14.552556818181818 11.487980769230766  C 13.17471590909091 11.213942307692305  11.988636363636365 11.076923076923077  10.994318181818182 11.076923076923077  C 9.772727272727272 11.076923076923077  9.090909090909092 11.134615384615381  8.948863636363637 11.25  C 8.920454545454547 11.278846153846153  8.892045454545455 11.322115384615383  8.863636363636363 11.379807692307693  C 8.892045454545455 11.639423076923077  8.920454545454547 11.834134615384617  8.948863636363637 11.963942307692307  C 8.977272727272728 12.007211538461538  9.030539772727273 12.054086538461537  9.108664772727273 12.104567307692307  C 9.186789772727272 12.155048076923077  9.24005681818182 12.230769230769226  9.26846590909091 12.331730769230766  C 9.296875000000002 12.389423076923075  9.350142045454547 12.537259615384617  9.428267045454545 12.775240384615383  C 9.506392045454547 13.013221153846155  9.556107954545455 13.161057692307693  9.577414772727273 13.21875  C 9.59872159090909 13.276442307692303  9.651988636363637 13.39903846153846  9.73721590909091 13.586538461538462  C 9.822443181818182 13.774038461538458  9.882812500000002 13.896634615384615  9.918323863636363 13.954326923076923  C 9.953835227272728 14.01201923076923  10.017755681818183 14.112980769230766  10.110085227272727 14.257211538461538  C 10.202414772727273 14.401442307692303  10.287642045454547 14.498798076923075  10.365767045454545 14.549278846153845  C 10.443892045454547 14.599759615384615  10.543323863636365 14.668269230769234  10.6640625 14.754807692307693  C 10.784801136363637 14.841346153846155  10.90909090909091 14.899038461538463  11.036931818181818 14.927884615384617  C 11.164772727272727 14.956730769230766  11.310369318181818 14.985576923076923  11.47372159090909 15.014423076923077  C 11.637073863636365 15.043269230769226  11.811079545454547 15.057692307692307  11.995738636363637 15.057692307692307  C 12.507102272727273 15.057692307692307  12.926136363636365 14.967548076923077  13.25284090909091 14.787259615384617  C 13.579545454545455 14.606971153846153  13.81036931818182 14.390624999999996  13.9453125 14.138221153846155  C 14.080255681818182 13.885817307692305  14.183238636363638 13.637019230769226  14.254261363636363 13.391826923076923  C 14.325284090909092 13.146634615384613  14.406960227272728 12.933894230769226  14.499289772727273 12.753605769230766  C 14.591619318181818 12.573317307692303  14.715909090909093 12.483173076923077  14.87215909090909 12.483173076923077  L 15.12784090909091 12.483173076923077  C 15.28409090909091 12.483173076923077  15.408380681818183 12.573317307692303  15.500710227272728 12.753605769230766  C 15.593039772727273 12.933894230769226  15.674715909090912 13.146634615384613  15.745738636363637 13.391826923076923  C 15.816761363636363 13.637019230769226  15.91974431818182 13.885817307692305  16.0546875 14.138221153846155  C 16.189630681818183 14.390624999999996  16.420454545454547 14.606971153846153  16.74715909090909 14.787259615384617  C 17.07386363636364 14.967548076923077  17.492897727272727 15.057692307692307  18.004261363636363 15.057692307692307  C 18.188920454545457 15.057692307692307  18.36292613636364 15.043269230769226  18.52627840909091 15.014423076923077  C 18.689630681818183 14.985576923076923  18.835227272727273 14.956730769230766  18.96306818181818 14.927884615384617  C 19.09090909090909 14.899038461538463  19.215198863636363 14.841346153846155  19.3359375 14.754807692307693  C 19.456676136363637 14.668269230769234  19.556107954545453 14.599759615384615  19.634232954545453 14.549278846153845  C 19.712357954545457 14.498798076923075  19.79758522727273 14.401442307692303  19.889914772727273 14.257211538461538  C 19.98224431818182 14.112980769230766  20.046164772727273 14.01201923076923  20.081676136363637 13.954326923076923  C 20.117187500000004 13.896634615384615  20.177556818181824 13.774038461538458  20.26278409090909 13.586538461538462  C 20.348011363636367 13.39903846153846  20.401278409090914 13.276442307692303  20.422585227272727 13.21875  C 20.443892045454547 13.161057692307693  20.493607954545457 13.013221153846155  20.571732954545453 12.775240384615383  C 20.649857954545457 12.537259615384617  20.703125000000004 12.389423076923075  20.73153409090909 12.331730769230766  C 20.759943181818187 12.230769230769226  20.81321022727273 12.155048076923077  20.891335227272727 12.104567307692307  C 20.96946022727273 12.054086538461537  21.022727272727273 12.007211538461538  21.051136363636363 11.963942307692307  Z M 29.829545454545453 27.183894230769234  C 29.94318181818182 28.21514423076923  30 29.286057692307693  30 30.396634615384617  C 30 32.14182692307693  29.481534090909093 33.51201923076923  28.444602272727273 34.50721153846154  C 27.407670454545457 35.50240384615385  26.029829545454547 36  24.311079545454547 36  L 5.688920454545455 36  C 3.970170454545455 36  2.5923295454545454 35.50240384615385  1.5553977272727273 34.50721153846154  C 0.5184659090909091 33.51201923076923  0 32.14182692307693  0 30.396634615384617  C 0 29.51682692307692  0.03196022727272727 28.665865384615383  0.09588068181818182 27.84375  C 0.15980113636363638 27.021634615384617  0.2947443181818182 26.116586538461537  0.5007102272727273 25.128605769230766  C 0.7066761363636365 24.140625  0.9730113636363638 23.249999999999996  1.2997159090909092 22.456730769230766  C 1.6264204545454548 21.663461538461537  2.0774147727272725 20.917067307692307  2.6526988636363638 20.217548076923077  C 3.2279829545454546 19.518028846153847  3.892045454545455 18.980769230769226  4.644886363636363 18.605769230769234  L 2.7272727272727275 13.846153846153845  L 7.286931818181818 13.846153846153845  C 6.974431818181819 12.923076923076922  6.818181818181818 11.999999999999996  6.818181818181818 11.076923076923077  C 6.818181818181818 10.903846153846155  6.832386363636364 10.673076923076922  6.860795454545455 10.384615384615383  C 4.105113636363637 9.807692307692305  2.7272727272727275 9.115384615384615  2.7272727272727275 8.307692307692307  C 2.7272727272727275 7.4855769230769225  4.21875 6.771634615384617  7.201704545454545 6.165865384615383  C 7.443181818181819 5.271634615384613  7.808948863636364 4.305288461538462  8.299005681818182 3.2668269230769225  C 8.7890625 2.2283653846153837  9.289772727272727 1.40625  9.801136363636363 0.8004807692307674  C 10.255681818181818 0.2668269230769251  10.795454545454547 0  11.420454545454545 0  C 11.84659090909091 0  12.443181818181818 0.2235576923076965  13.210227272727273 0.6706730769230775  C 13.977272727272727 1.1177884615384586  14.573863636363637 1.341346153846155  15 1.341346153846155  C 15.426136363636363 1.341346153846155  16.022727272727273 1.1177884615384586  16.789772727272727 0.6706730769230775  C 17.55681818181818 0.2235576923076965  18.15340909090909 0  18.579545454545453 0  C 19.204545454545453 0  19.744318181818183 0.2668269230769251  20.198863636363637 0.8004807692307674  C 20.710227272727273 1.40625  21.210937500000004 2.2283653846153837  21.70099431818182 3.2668269230769225  C 22.191051136363637 4.305288461538462  22.556818181818183 5.271634615384613  22.798295454545453 6.165865384615383  C 25.78125 6.771634615384617  27.272727272727273 7.4855769230769225  27.272727272727273 8.307692307692307  C 27.272727272727273 9.115384615384615  25.894886363636367 9.807692307692305  23.139204545454547 10.384615384615383  C 23.238636363636363 11.552884615384617  23.09659090909091 12.706730769230766  22.71306818181818 13.846153846153845  L 27.272727272727273 13.846153846153845  L 25.52556818181818 18.71394230769231  C 26.420454545454547 19.189903846153847  27.183948863636367 19.885817307692307  27.816051136363637 20.80168269230769  C 28.44815340909091 21.717548076923077  28.913352272727273 22.752403846153847  29.211647727272727 23.90625  C 29.50994318181818 25.06009615384615  29.715909090909093 26.152644230769226  29.829545454545453 27.183894230769234  Z " fill-rule="nonzero" fill="#000000" stroke="none" transform="matrix(1 0 0 1 31 5126 )" />
  </g>
</svg>