<?xml version="1.0" encoding="utf-8"?>
<svg version="1.1" xmlns:xlink="http://www.w3.org/1999/xlink" width="18px" height="18px" preserveAspectRatio="xMinYMid meet" viewBox="55 4590  18 16" xmlns="http://www.w3.org/2000/svg">
  <defs>
    <mask fill="white" id="clip306">
      <path d="M 83 4585  L 175 4585  L 175 4611  L 83 4611  Z M 52 4585  L 205 4585  L 205 4611  L 52 4611  Z " fill-rule="evenodd" />
    </mask>
  </defs>
  <path d="M 83 4598.5  L 62 4598.5  M 175 4598.5  L 191 4598.5  " stroke-width="1" stroke-dasharray="3,1" stroke="#d9001b" fill="none" stroke-opacity="0.8313725490196079" />
  <path d="M 64 4595.5  A 3 3 0 0 0 61 4598.5 A 3 3 0 0 0 64 4601.5 A 3 3 0 0 0 67 4598.5 A 3 3 0 0 0 64 4595.5 Z M 190 4604.8  L 196 4598.5  L 190 4592.2  L 190 4604.8  Z " fill-rule="nonzero" fill="#d9001b" stroke="none" fill-opacity="0.8313725490196079" mask="url(#clip306)" />
</svg>