<?xml version="1.0" encoding="utf-8"?>
<svg version="1.1" xmlns:xlink="http://www.w3.org/1999/xlink" width="140px" height="10px" preserveAspectRatio="xMinYMid meet" viewBox="61 4636  140 8" xmlns="http://www.w3.org/2000/svg">
  <defs>
    <mask fill="white" id="clip308">
      <path d="M 82 4627  L 174 4627  L 174 4653  L 82 4653  Z M 52 4627  L 205 4627  L 205 4653  L 52 4653  Z " fill-rule="evenodd" />
    </mask>
  </defs>
  <path d="M 82 4640.5  L 66 4640.5  M 174 4640.5  L 195 4640.5  " stroke-width="1" stroke-dasharray="3,1" stroke="#d9001b" fill="none" stroke-opacity="0.8313725490196079" />
  <path d="M 193 4637.5  A 3 3 0 0 0 190 4640.5 A 3 3 0 0 0 193 4643.5 A 3 3 0 0 0 196 4640.5 A 3 3 0 0 0 193 4637.5 Z M 67 4634.2  L 61 4640.5  L 67 4646.8  L 67 4634.2  Z " fill-rule="nonzero" fill="#d9001b" stroke="none" fill-opacity="0.8313725490196079" mask="url(#clip308)" />
</svg>