<?xml version="1.0" encoding="utf-8"?>
<svg version="1.1" xmlns:xlink="http://www.w3.org/1999/xlink" width="19px" height="18px" preserveAspectRatio="xMinYMid meet" viewBox="345 4590  19 16" xmlns="http://www.w3.org/2000/svg">
  <defs>
    <mask fill="white" id="clip313">
      <path d="M 246 4585  L 338 4585  L 338 4611  L 246 4611  Z M 217 4585  L 367 4585  L 367 4611  L 217 4611  Z " fill-rule="evenodd" />
    </mask>
  </defs>
  <path d="M 246 4598.5  L 227 4598.5  M 338 4598.5  L 353 4598.5  " stroke-width="1" stroke-dasharray="3,1" stroke="#d9001b" fill="none" stroke-opacity="0.8313725490196079" />
  <path d="M 229 4595.5  A 3 3 0 0 0 226 4598.5 A 3 3 0 0 0 229 4601.5 A 3 3 0 0 0 232 4598.5 A 3 3 0 0 0 229 4595.5 Z M 352 4604.8  L 358 4598.5  L 352 4592.2  L 352 4604.8  Z " fill-rule="nonzero" fill="#d9001b" stroke="none" fill-opacity="0.8313725490196079" mask="url(#clip313)" />
</svg>