<?xml version="1.0" encoding="utf-8"?>
<svg version="1.1" xmlns:xlink="http://www.w3.org/1999/xlink" width="19px" height="18px" preserveAspectRatio="xMinYMid meet" viewBox="220 4632  19 16" xmlns="http://www.w3.org/2000/svg">
  <defs>
    <mask fill="white" id="clip316">
      <path d="M 246 4627  L 338 4627  L 338 4653  L 246 4653  Z M 217 4627  L 367 4627  L 367 4653  L 217 4653  Z " fill-rule="evenodd" />
    </mask>
  </defs>
  <path d="M 246 4640.5  L 231 4640.5  M 338 4640.5  L 357 4640.5  " stroke-width="1" stroke-dasharray="3,1" stroke="#d9001b" fill="none" stroke-opacity="0.8313725490196079" />
  <path d="M 355 4637.5  A 3 3 0 0 0 352 4640.5 A 3 3 0 0 0 355 4643.5 A 3 3 0 0 0 358 4640.5 A 3 3 0 0 0 355 4637.5 Z M 232 4634.2  L 226 4640.5  L 232 4646.8  L 232 4634.2  Z " fill-rule="nonzero" fill="#d9001b" stroke="none" fill-opacity="0.8313725490196079" mask="url(#clip316)" />
</svg>