<?xml version="1.0" encoding="utf-8"?>
<svg version="1.1" xmlns:xlink="http://www.w3.org/1999/xlink" width="347px" height="10px" preserveAspectRatio="xMinYMid meet" viewBox="388 4678  347 8" xmlns="http://www.w3.org/2000/svg">
  <defs>
    <mask fill="white" id="clip323">
      <path d="M 501 4669  L 617 4669  L 617 4695  L 501 4695  Z M 379 4669  L 739 4669  L 739 4695  L 379 4695  Z " fill-rule="evenodd" />
    </mask>
  </defs>
  <path d="M 501 4682.5  L 389 4682.5  M 617 4682.5  L 725 4682.5  " stroke-width="1" stroke-dasharray="3,1" stroke="#d9001b" fill="none" stroke-opacity="0.8313725490196079" />
  <path d="M 391 4679.5  A 3 3 0 0 0 388 4682.5 A 3 3 0 0 0 391 4685.5 A 3 3 0 0 0 394 4682.5 A 3 3 0 0 0 391 4679.5 Z M 724 4688.8  L 730 4682.5  L 724 4676.2  L 724 4688.8  Z " fill-rule="nonzero" fill="#d9001b" stroke="none" fill-opacity="0.8313725490196079" mask="url(#clip323)" />
</svg>