<?xml version="1.0" encoding="utf-8"?>
<svg version="1.1" xmlns:xlink="http://www.w3.org/1999/xlink" width="18px" height="18px" preserveAspectRatio="xMinYMid meet" viewBox="184 4827  18 16" xmlns="http://www.w3.org/2000/svg">
  <defs>
    <mask fill="white" id="clip333">
      <path d="M 94 4822  L 162 4822  L 162 4848  L 94 4848  Z M 52 4822  L 205 4822  L 205 4848  L 52 4848  Z " fill-rule="evenodd" />
    </mask>
  </defs>
  <path d="M 94 4835.5  L 66 4835.5  M 162 4835.5  L 195 4835.5  " stroke-width="1" stroke-dasharray="3,1" stroke="#d9001b" fill="none" stroke-opacity="0.8313725490196079" />
  <path d="M 193 4832.5  A 3 3 0 0 0 190 4835.5 A 3 3 0 0 0 193 4838.5 A 3 3 0 0 0 196 4835.5 A 3 3 0 0 0 193 4832.5 Z M 67 4829.2  L 61 4835.5  L 67 4841.8  L 67 4829.2  Z " fill-rule="nonzero" fill="#d9001b" stroke="none" fill-opacity="0.8313725490196079" mask="url(#clip333)" />
</svg>