<?xml version="1.0" encoding="utf-8"?>
<svg version="1.1" xmlns:xlink="http://www.w3.org/1999/xlink" width="19px" height="18px" preserveAspectRatio="xMinYMid meet" viewBox="345 4785  19 16" xmlns="http://www.w3.org/2000/svg">
  <defs>
    <mask fill="white" id="clip337">
      <path d="M 258 4780  L 326 4780  L 326 4806  L 258 4806  Z M 217 4780  L 367 4780  L 367 4806  L 217 4806  Z " fill-rule="evenodd" />
    </mask>
  </defs>
  <path d="M 258 4793.5  L 227 4793.5  M 326 4793.5  L 353 4793.5  " stroke-width="1" stroke-dasharray="3,1" stroke="#d9001b" fill="none" stroke-opacity="0.8313725490196079" />
  <path d="M 229 4790.5  A 3 3 0 0 0 226 4793.5 A 3 3 0 0 0 229 4796.5 A 3 3 0 0 0 232 4793.5 A 3 3 0 0 0 229 4790.5 Z M 352 4799.8  L 358 4793.5  L 352 4787.2  L 352 4799.8  Z " fill-rule="nonzero" fill="#d9001b" stroke="none" fill-opacity="0.8313725490196079" mask="url(#clip337)" />
</svg>