<?xml version="1.0" encoding="utf-8"?>
<svg version="1.1" xmlns:xlink="http://www.w3.org/1999/xlink" width="18px" height="18px" preserveAspectRatio="xMinYMid meet" viewBox="382 4785  18 16" xmlns="http://www.w3.org/2000/svg">
  <defs>
    <mask fill="white" id="clip342">
      <path d="M 404 4780  L 520 4780  L 520 4806  L 404 4806  Z M 379 4780  L 546 4780  L 546 4806  L 379 4806  Z " fill-rule="evenodd" />
    </mask>
  </defs>
  <path d="M 404 4793.5  L 389 4793.5  M 520 4793.5  L 532 4793.5  " stroke-width="1" stroke-dasharray="3,1" stroke="#d9001b" fill="none" stroke-opacity="0.8313725490196079" />
  <path d="M 391 4790.5  A 3 3 0 0 0 388 4793.5 A 3 3 0 0 0 391 4796.5 A 3 3 0 0 0 394 4793.5 A 3 3 0 0 0 391 4790.5 Z M 531 4799.8  L 537 4793.5  L 531 4787.2  L 531 4799.8  Z " fill-rule="nonzero" fill="#d9001b" stroke="none" fill-opacity="0.8313725490196079" mask="url(#clip342)" />
</svg>