<?xml version="1.0" encoding="utf-8"?>
<svg version="1.1" xmlns:xlink="http://www.w3.org/1999/xlink" width="18px" height="18px" preserveAspectRatio="xMinYMid meet" viewBox="382 4933  18 16" xmlns="http://www.w3.org/2000/svg">
  <defs>
    <mask fill="white" id="clip360">
      <path d="M 507 4928  L 611 4928  L 611 4954  L 507 4954  Z M 379 4928  L 739 4928  L 739 4954  L 379 4954  Z " fill-rule="evenodd" />
    </mask>
  </defs>
  <path d="M 507 4941.5  L 389 4941.5  M 611 4941.5  L 725 4941.5  " stroke-width="1" stroke-dasharray="3,1" stroke="#d9001b" fill="none" stroke-opacity="0.8313725490196079" />
  <path d="M 391 4938.5  A 3 3 0 0 0 388 4941.5 A 3 3 0 0 0 391 4944.5 A 3 3 0 0 0 394 4941.5 A 3 3 0 0 0 391 4938.5 Z M 724 4947.8  L 730 4941.5  L 724 4935.2  L 724 4947.8  Z " fill-rule="nonzero" fill="#d9001b" stroke="none" fill-opacity="0.8313725490196079" mask="url(#clip360)" />
</svg>