<?xml version="1.0" encoding="utf-8"?>
<svg version="1.1" xmlns:xlink="http://www.w3.org/1999/xlink" width="19px" height="18px" preserveAspectRatio="xMinYMid meet" viewBox="345 5197  19 16" xmlns="http://www.w3.org/2000/svg">
  <defs>
    <mask fill="white" id="clip379">
      <path d="M 246 5192  L 338 5192  L 338 5218  L 246 5218  Z M 217 5192  L 367 5192  L 367 5218  L 217 5218  Z " fill-rule="evenodd" />
    </mask>
  </defs>
  <path d="M 246 5205.5  L 227 5205.5  M 338 5205.5  L 353 5205.5  " stroke-width="1" stroke-dasharray="3,1" stroke="#d9001b" fill="none" stroke-opacity="0.8313725490196079" />
  <path d="M 229 5202.5  A 3 3 0 0 0 226 5205.5 A 3 3 0 0 0 229 5208.5 A 3 3 0 0 0 232 5205.5 A 3 3 0 0 0 229 5202.5 Z M 352 5211.8  L 358 5205.5  L 352 5199.2  L 352 5211.8  Z " fill-rule="nonzero" fill="#d9001b" stroke="none" fill-opacity="0.8313725490196079" mask="url(#clip379)" />
</svg>