<?xml version="1.0" encoding="utf-8"?>
<svg version="1.1" xmlns:xlink="http://www.w3.org/1999/xlink" width="18px" height="18px" preserveAspectRatio="xMinYMid meet" viewBox="382 5281  18 16" xmlns="http://www.w3.org/2000/svg">
  <defs>
    <mask fill="white" id="clip390">
      <path d="M 513 5276  L 605 5276  L 605 5302  L 513 5302  Z M 379 5276  L 739 5276  L 739 5302  L 379 5302  Z " fill-rule="evenodd" />
    </mask>
  </defs>
  <path d="M 513 5289.5  L 389 5289.5  M 605 5289.5  L 725 5289.5  " stroke-width="1" stroke-dasharray="3,1" stroke="#d9001b" fill="none" stroke-opacity="0.8313725490196079" />
  <path d="M 391 5286.5  A 3 3 0 0 0 388 5289.5 A 3 3 0 0 0 391 5292.5 A 3 3 0 0 0 394 5289.5 A 3 3 0 0 0 391 5286.5 Z M 724 5295.8  L 730 5289.5  L 724 5283.2  L 724 5295.8  Z " fill-rule="nonzero" fill="#d9001b" stroke="none" fill-opacity="0.8313725490196079" mask="url(#clip390)" />
</svg>