<?xml version="1.0" encoding="utf-8"?>
<svg version="1.1" xmlns:xlink="http://www.w3.org/1999/xlink" width="347px" height="10px" preserveAspectRatio="xMinYMid meet" viewBox="388 5434  347 8" xmlns="http://www.w3.org/2000/svg">
  <defs>
    <mask fill="white" id="clip410">
      <path d="M 525 5425  L 593 5425  L 593 5451  L 525 5451  Z M 379 5425  L 739 5425  L 739 5451  L 379 5451  Z " fill-rule="evenodd" />
    </mask>
  </defs>
  <path d="M 525 5438.5  L 389 5438.5  M 593 5438.5  L 725 5438.5  " stroke-width="1" stroke-dasharray="3,1" stroke="#d9001b" fill="none" stroke-opacity="0.8313725490196079" />
  <path d="M 391 5435.5  A 3 3 0 0 0 388 5438.5 A 3 3 0 0 0 391 5441.5 A 3 3 0 0 0 394 5438.5 A 3 3 0 0 0 391 5435.5 Z M 724 5444.8  L 730 5438.5  L 724 5432.2  L 724 5444.8  Z " fill-rule="nonzero" fill="#d9001b" stroke="none" fill-opacity="0.8313725490196079" mask="url(#clip410)" />
</svg>