<?xml version="1.0" encoding="utf-8"?>
<svg version="1.1" xmlns:xlink="http://www.w3.org/1999/xlink" width="10px" height="82px" preserveAspectRatio="xMidYMin meet" viewBox="299 5685  8 82" xmlns="http://www.w3.org/2000/svg">
  <path d="M 342 5762.5  L 308 5762.5  A 5 5 0 0 1 303.5 5757.5 L 303.5 5695  A 5 5 0 0 0 298.5 5690.5 L 268 5690.5  " stroke-width="1" stroke-dasharray="3,1" stroke="#d9001b" fill="none" stroke-opacity="0.8313725490196079" />
  <path d="M 340 5759.5  A 3 3 0 0 0 337 5762.5 A 3 3 0 0 0 340 5765.5 A 3 3 0 0 0 343 5762.5 A 3 3 0 0 0 340 5759.5 Z M 269 5684.2  L 263 5690.5  L 269 5696.8  L 269 5684.2  Z " fill-rule="nonzero" fill="#d9001b" stroke="none" fill-opacity="0.8313725490196079" />
</svg>