<?xml version="1.0" encoding="utf-8"?>
<svg version="1.1" xmlns:xlink="http://www.w3.org/1999/xlink" width="19px" height="18px" preserveAspectRatio="xMinYMid meet" viewBox="257 5897  19 16" xmlns="http://www.w3.org/2000/svg">
  <path d="M 342 5972.5  L 308 5972.5  A 5 5 0 0 1 303.5 5967.5 L 303.5 5910  A 5 5 0 0 0 298.5 5905.5 L 268 5905.5  " stroke-width="1" stroke-dasharray="3,1" stroke="#d9001b" fill="none" stroke-opacity="0.8313725490196079" />
  <path d="M 340 5969.5  A 3 3 0 0 0 337 5972.5 A 3 3 0 0 0 340 5975.5 A 3 3 0 0 0 343 5972.5 A 3 3 0 0 0 340 5969.5 Z M 269 5899.2  L 263 5905.5  L 269 5911.8  L 269 5899.2  Z " fill-rule="nonzero" fill="#d9001b" stroke="none" fill-opacity="0.8313725490196079" />
</svg>