<?xml version="1.0" encoding="utf-8"?>
<svg version="1.1" xmlns:xlink="http://www.w3.org/1999/xlink" width="45px" height="10px" preserveAspectRatio="xMinYMid meet" viewBox="263 6065  45 8" xmlns="http://www.w3.org/2000/svg">
  <path d="M 342 6042.5  L 308 6042.5  A 5 5 0 0 0 303.5 6047.5 L 303.5 6064  A 5 5 0 0 1 298.5 6069.5 L 268 6069.5  " stroke-width="1" stroke-dasharray="3,1" stroke="#d9001b" fill="none" stroke-opacity="0.8313725490196079" />
  <path d="M 340 6039.5  A 3 3 0 0 0 337 6042.5 A 3 3 0 0 0 340 6045.5 A 3 3 0 0 0 343 6042.5 A 3 3 0 0 0 340 6039.5 Z M 269 6063.2  L 263 6069.5  L 269 6075.8  L 269 6063.2  Z " fill-rule="nonzero" fill="#d9001b" stroke="none" fill-opacity="0.8313725490196079" />
</svg>