<?xml version="1.0" encoding="utf-8"?>
<svg version="1.1" xmlns:xlink="http://www.w3.org/1999/xlink" width="19px" height="18px" preserveAspectRatio="xMinYMid meet" viewBox="257 6061  19 16" xmlns="http://www.w3.org/2000/svg">
  <path d="M 342 6096.5  L 308 6096.5  A 5 5 0 0 1 303.5 6091.5 L 303.5 6074  A 5 5 0 0 0 298.5 6069.5 L 268 6069.5  " stroke-width="1" stroke-dasharray="3,1" stroke="#d9001b" fill="none" stroke-opacity="0.8313725490196079" />
  <path d="M 340 6093.5  A 3 3 0 0 0 337 6096.5 A 3 3 0 0 0 340 6099.5 A 3 3 0 0 0 343 6096.5 A 3 3 0 0 0 340 6093.5 Z M 269 6063.2  L 263 6069.5  L 269 6075.8  L 269 6063.2  Z " fill-rule="nonzero" fill="#d9001b" stroke="none" fill-opacity="0.8313725490196079" />
</svg>