<?xml version="1.0" encoding="utf-8"?>
<svg version="1.1" xmlns:xlink="http://www.w3.org/1999/xlink" width="30px" height="50px" xmlns="http://www.w3.org/2000/svg">
  <g transform="matrix(1 0 0 1 -142 -893 )">
    <path d="M 17.20703125 47.20703125  C 17.819010416666668 46.595052083333336  18.125 45.859375  18.125 45  C 18.125 44.140625  17.819010416666668 43.40494791666667  17.20703125 42.79296875  C 16.595052083333332 42.18098958333333  15.859375000000002 41.875  15 41.875  C 14.140625 41.875  13.404947916666668 42.18098958333333  12.79296875 42.79296875  C 12.180989583333336 43.40494791666667  11.875 44.140625  11.875 45  C 11.875 45.859375  12.180989583333336 46.595052083333336  12.79296875 47.20703125  C 13.404947916666668 47.81901041666667  14.140625 48.125  15 48.125  C 15.859375000000002 48.125  16.595052083333332 47.81901041666667  17.20703125 47.20703125  Z M 25.87890625 39.62890625  C 26.126302083333336 39.38151041666666  26.25 39.08854166666666  26 38.75  L 26 11.249999999999998  C 26.25 10.911458333333329  26.126302083333336 10.618489583333329  25.87890625 10.371093749999998  C 25.63151041666667 10.123697916666663  25.33854166666667 9.999999999999998  25 10  L 5 10  C 4.661458333333333 9.999999999999998  4.368489583333333 10.123697916666663  4.12109375 10.371093749999998  C 3.873697916666666 10.618489583333329  3.75 10.911458333333329  4 11.249999999999998  L 4 38.75  C 3.75 39.08854166666666  3.873697916666666 39.38151041666666  4.12109375 39.62890625  C 4.368489583333333 39.87630208333333  4.661458333333333 40  5 40  L 25 40  C 25.33854166666667 40  25.63151041666667 39.87630208333333  25.87890625 39.62890625  Z M 18.125 6.25  C 18.54166666666667 6.25  18.750000000000004 6.041666666666662  18.75 5.625000000000002  C 18.750000000000004 5.208333333333331  18.54166666666667 4.999999999999999  18.125 4.999999999999999  L 11.875 4.999999999999999  C 11.458333333333334 4.999999999999999  11.25 5.208333333333331  11.25 5.625000000000002  C 11.25 6.041666666666662  11.458333333333334 6.25  11.875 6.25  L 18.125 6.25  Z M 28.515625 1.484374999999999  C 29.50520833333333 2.4739583333333313  30 3.6458333333333313  30 4.999999999999999  L 30 45  C 30 46.35416666666667  29.50520833333333 47.52604166666667  28.515625 48.515625  C 27.52604166666667 49.50520833333333  26.35416666666667 50  25 50  L 5 50  C 3.645833333333334 50  2.4739583333333335 49.50520833333333  1.484375 48.515625  C 0.4947916666666667 47.52604166666667  0 46.35416666666667  0 45  L 0 4.999999999999999  C 0 3.6458333333333313  0.4947916666666667 2.4739583333333313  1.484375 1.484374999999999  C 2.4739583333333335 0.49479166666666075  3.645833333333334 0  5 0  L 25 0  C 26.35416666666667 0  27.52604166666667 0.49479166666666075  28.515625 1.484374999999999  Z " fill-rule="nonzero" fill="#000000" stroke="none" transform="matrix(1 0 0 1 142 893 )" />
  </g>
</svg>