<?xml version="1.0" encoding="utf-8"?>
<svg version="1.1" xmlns:xlink="http://www.w3.org/1999/xlink" width="34px" height="33px" xmlns="http://www.w3.org/2000/svg">
  <g transform="matrix(1 0 0 1 -304 -910 )">
    <path d="M 32.08370535714286 9.95625  C 33.36123511904762 12.23125  34 14.66875  34 17.26875  C 34 17.968749999999996  33.95572916666667 18.61875  33.8671875 19  L 12.029017857142858 19  C 12.029017857142858 21.04375  12.721540178571429 22.571875  14.106584821428571 23.803125  C 15.491629464285714 25.034375  17.12016369047619 25.650000000000002  18.9921875 25.650000000000002  C 20.244419642857142 25.650000000000002  21.417596726190478 25.359375  22.51171875 24.778125  C 23.605840773809526 24.196875  24.469122023809526 23.381249999999998  25.1015625 22.33125  L 33.12723214285714 22.33125  C 32.41889880952381 24.31875  31.34058779761905 26.075  29.892299107142858 27.6  C 28.444010416666668 29.125  26.752232142857142 30.303125  24.816964285714285 31.134375000000002  C 22.881696428571427 31.965625000000003  20.8515625 32.38125  18.7265625 32.38125  C 16.36123511904762 32.38125  14.109747023809526 31.8625  11.972098214285714 30.825  C 9.088169642857142 32.275000000000006  6.596354166666667 33  4.496651785714286 33  C 1.4988839285714286 33  0 31.356250000000003  0 28.06875  C 0 26.631249999999998  0.2845982142857143 24.9125  0.8537946428571429 22.9125  C 1.0688244047619047 22.1625  1.7581845238095237 20.73125  2.921875 18.61875  C 5.438988095238096 14.11875  8.443080357142858 10.33125  11.934151785714286 7.256249999999999  C 9.606770833333334 8.243749999999999  6.90625 10.456249999999997  3.8325892857142856 13.89375  C 4.629464285714286 10.468749999999996  6.422433035714286 7.659374999999999  9.211495535714286 5.465625000000001  C 12.000558035714286 3.271874999999999  15.172247023809526 2.1750000000000003  18.7265625 2.1750000000000003  C 19.106026785714285 2.1750000000000003  19.390625000000004 2.181249999999998  19.580357142857142 2.1937500000000014  C 22.805803571428573 0.7312500000000017  25.544270833333336 0  27.795758928571427 0  C 28.605282738095237 0  29.338913690476193 0.08124999999999938  29.996651785714285 0.2437500000000018  C 30.654389880952383 0.4062499999999969  31.252046130952383 0.6593749999999975  31.789620535714285 1.0031249999999998  C 32.32719494047619 1.3468749999999987  32.74776785714286 1.8249999999999997  33.051339285714285 2.4374999999999996  C 33.354910714285715 3.049999999999996  33.50669642857143 3.7687500000000016  33.50669642857143 4.593749999999998  C 33.50669642857143 6.043749999999999  33.03236607142857 7.831249999999996  32.08370535714286 9.95625  Z M 31.704241071428573 9.31875  C 32.34933035714286 7.631249999999999  32.67187500000001 6.281249999999999  32.671875 5.268750000000001  C 32.67187500000001 4.231249999999998  32.33668154761905 3.406249999999998  31.666294642857142 2.793750000000002  C 30.995907738095237 2.181249999999998  30.129464285714285 1.8749999999999982  29.066964285714285 1.8749999999999982  C 27.700892857142858 1.8749999999999982  26.09449404761905 2.3125  24.247767857142858 3.187499999999999  C 25.77827380952381 3.7749999999999995  27.18545386904762 4.596874999999995  28.469308035714285 5.653124999999998  C 29.75316220238096 6.709374999999998  30.83147321428572 7.93125  31.704241071428573 9.31875  Z M 4.287946428571429 22.237499999999997  C 3.048363095238096 24.8  2.4285714285714284 26.874999999999996  2.4285714285714284 28.462500000000002  C 2.4285714285714284 29.537499999999998  2.7353050595238098 30.365625  3.3487723214285716 30.946875  C 3.962239583333334 31.528125000000003  4.812872023809524 31.81875  5.900669642857143 31.81875  C 7.35528273809524 31.81875  9.037574404761905 31.3  10.947544642857142 30.2625  C 9.404389880952381 29.3625  8.054129464285715 28.21875  6.896763392857143 26.83125  C 5.739397321428571 25.443749999999998  4.869791666666667 23.9125  4.287946428571429 22.237499999999997  Z M 14.125558035714286 10.65  C 12.765811011904763 11.837499999999999  12.054315476190478 13.31875  11.991071428571429 15  L 25.803571428571427 15  C 25.740327380952383 13.31875  25.025669642857142 11.837499999999999  23.659598214285715 10.65  C 22.293526785714285 9.462499999999997  20.706101190476193 8.868750000000002  18.897321428571427 8.868750000000002  C 17.075892857142858 8.868750000000002  15.48530505952381 9.462499999999997  14.125558035714286 10.65  Z " fill-rule="nonzero" fill="#000000" stroke="none" transform="matrix(1 0 0 1 304 910 )" />
  </g>
</svg>