<?xml version="1.0" encoding="utf-8"?>
<svg version="1.1" xmlns:xlink="http://www.w3.org/1999/xlink" width="10px" height="26px" preserveAspectRatio="xMidYMin meet" viewBox="317 969  8 26" xmlns="http://www.w3.org/2000/svg">
  <path d="M 321.5 970  L 321.5 985  A 5 5 0 0 1 316.5 990.5 L 243 990.5  A 5 5 0 0 0 238.5 995.5 L 238.5 1012  " stroke-width="1" stroke-dasharray="3,1" stroke="#000000" fill="none" stroke-opacity="0.8313725490196079" />
  <path d="M 321.5 969  A 3 3 0 0 0 318.5 972 A 3 3 0 0 0 321.5 975 A 3 3 0 0 0 324.5 972 A 3 3 0 0 0 321.5 969 Z M 232.2 1011  L 238.5 1017  L 244.8 1011  L 232.2 1011  Z " fill-rule="nonzero" fill="#000000" stroke="none" fill-opacity="0.8313725490196079" />
</svg>