<?xml version="1.0" encoding="utf-8"?>
<svg version="1.1" xmlns:xlink="http://www.w3.org/1999/xlink" width="10px" height="74px" preserveAspectRatio="xMidYMin meet" viewBox="153 1150  8 74" xmlns="http://www.w3.org/2000/svg">
  <path d="M 238.5 1087  L 238.5 1150  A 5 5 0 0 1 233.5 1155.5 L 162 1155.5  A 5 5 0 0 0 157.5 1160.5 L 157.5 1219  " stroke-width="1" stroke-dasharray="3,1" stroke="#000000" fill="none" stroke-opacity="0.8313725490196079" />
  <path d="M 238.5 1086  A 3 3 0 0 0 235.5 1089 A 3 3 0 0 0 238.5 1092 A 3 3 0 0 0 241.5 1089 A 3 3 0 0 0 238.5 1086 Z M 151.2 1218  L 157.5 1224  L 163.8 1218  L 151.2 1218  Z " fill-rule="nonzero" fill="#000000" stroke="none" fill-opacity="0.8313725490196079" />
</svg>