<?xml version="1.0" encoding="utf-8"?>
<svg version="1.1" xmlns:xlink="http://www.w3.org/1999/xlink" width="94px" height="10px" preserveAspectRatio="xMinYMid meet" viewBox="233 1106  94 8" xmlns="http://www.w3.org/2000/svg">
  <path d="M 238.5 1087  L 238.5 1105  A 5 5 0 0 0 243.5 1110.5 L 317 1110.5  A 5 5 0 0 1 322.5 1115.5 L 322.5 1142  " stroke-width="1" stroke-dasharray="3,1" stroke="#000000" fill="none" stroke-opacity="0.8313725490196079" />
  <path d="M 238.5 1086  A 3 3 0 0 0 235.5 1089 A 3 3 0 0 0 238.5 1092 A 3 3 0 0 0 241.5 1089 A 3 3 0 0 0 238.5 1086 Z M 316.2 1141  L 322.5 1147  L 328.8 1141  L 316.2 1141  Z " fill-rule="nonzero" fill="#000000" stroke="none" fill-opacity="0.8313725490196079" />
</svg>