<?xml version="1.0" encoding="utf-8"?>
<svg version="1.1" xmlns:xlink="http://www.w3.org/1999/xlink" width="458px" height="176px" xmlns="http://www.w3.org/2000/svg">
  <g transform="matrix(1 0 0 1 -8 -1318 )">
    <path d="M 9 1323  A 4 4 0 0 1 13 1319 L 461 1319  A 4 4 0 0 1 465 1323 L 465 1489  A 4 4 0 0 1 461 1493 L 13 1493  A 4 4 0 0 1 9 1489 L 9 1323  Z " fill-rule="nonzero" fill="#169bd5" stroke="none" fill-opacity="0" />
    <path d="M 8.5 1323  A 4.5 4.5 0 0 1 13 1318.5 L 461 1318.5  A 4.5 4.5 0 0 1 465.5 1323 L 465.5 1489  A 4.5 4.5 0 0 1 461 1493.5 L 13 1493.5  A 4.5 4.5 0 0 1 8.5 1489 L 8.5 1323  Z " stroke-width="1" stroke-dasharray="3,1" stroke="#7f7f7f" fill="none" stroke-dashoffset="0.5" />
  </g>
</svg>