<?xml version="1.0" encoding="utf-8"?>
<svg version="1.1" xmlns:xlink="http://www.w3.org/1999/xlink" width="22px" height="22px" xmlns="http://www.w3.org/2000/svg">
  <g transform="matrix(1 0 0 1 -930 -1 )">
    <path d="M 17.14453125 12.561197916666668  C 17.32595486111111 12.379774305555554  17.416666666666664 12.164930555555554  17.416666666666664 11.916666666666668  L 17.416666666666664 10.083333333333334  C 17.416666666666664 9.835069444444443  17.32595486111111 9.620225694444443  17.14453125 9.438802083333334  C 16.963107638888893 9.257378472222223  16.748263888888893 9.166666666666666  16.5 9.166666666666666  L 12.833333333333334 9.166666666666666  L 12.833333333333334 5.5  C 12.833333333333334 5.251736111111109  12.74262152777778 5.036892361111109  12.561197916666666 4.85546875  C 12.379774305555557 4.674045138888888  12.164930555555557 4.583333333333334  11.916666666666666 4.583333333333334  L 10.083333333333332 4.583333333333334  C 9.835069444444446 4.583333333333334  9.620225694444446 4.674045138888888  9.438802083333332 4.85546875  C 9.257378472222223 5.036892361111109  9.166666666666668 5.251736111111109  9.166666666666668 5.5  L 9.166666666666668 9.166666666666666  L 5.5 9.166666666666666  C 5.251736111111112 9.166666666666666  5.036892361111112 9.257378472222223  4.85546875 9.438802083333334  C 4.674045138888889 9.620225694444443  4.583333333333334 9.835069444444443  4.583333333333334 10.083333333333334  L 4.583333333333334 11.916666666666668  C 4.583333333333334 12.164930555555554  4.674045138888889 12.379774305555554  4.85546875 12.561197916666668  C 5.036892361111112 12.742621527777777  5.251736111111112 12.833333333333332  5.5 12.833333333333332  L 9.166666666666668 12.833333333333332  L 9.166666666666668 16.5  C 9.166666666666668 16.74826388888889  9.257378472222223 16.96310763888889  9.438802083333332 17.14453125  C 9.620225694444446 17.32595486111111  9.835069444444446 17.416666666666664  10.083333333333332 17.416666666666664  L 11.916666666666666 17.416666666666664  C 12.164930555555557 17.416666666666664  12.379774305555557 17.32595486111111  12.561197916666666 17.14453125  C 12.74262152777778 16.96310763888889  12.833333333333334 16.74826388888889  12.833333333333334 16.5  L 12.833333333333334 12.833333333333332  L 16.5 12.833333333333332  C 16.748263888888893 12.833333333333332  16.963107638888893 12.742621527777777  17.14453125 12.561197916666668  Z M 20.524739583333336 5.478515625  C 21.508246527777775 7.163845486111109  22 9.004340277777775  22 11  C 22 12.995659722222223  21.508246527777775 14.836154513888886  20.524739583333336 16.521484375  C 19.541232638888893 18.20681423611111  18.20681423611111 19.54123263888889  16.521484375 20.524739583333336  C 14.836154513888891 21.50824652777778  12.995659722222223 22  11 22  C 9.004340277777779 22  7.163845486111112 21.50824652777778  5.478515625 20.524739583333336  C 3.7931857638888893 19.54123263888889  2.4587673611111116 18.20681423611111  1.4752604166666667 16.521484375  C 0.49175347222222215 14.836154513888886  0 12.995659722222223  0 11  C 0 9.004340277777775  0.49175347222222215 7.163845486111109  1.4752604166666667 5.478515625  C 2.4587673611111116 3.7931857638888884  3.7931857638888893 2.458767361111109  5.478515625 1.4752604166666659  C 7.163845486111112 0.4917534722222203  9.004340277777779 0  11 0  C 12.995659722222223 0  14.836154513888891 0.4917534722222203  16.521484375 1.4752604166666659  C 18.20681423611111 2.458767361111109  19.541232638888893 3.7931857638888884  20.524739583333336 5.478515625  Z " fill-rule="nonzero" fill="#d9001b" stroke="none" transform="matrix(1 0 0 1 930 1 )" />
  </g>
</svg>