<?xml version="1.0" encoding="utf-8"?>
<svg version="1.1" xmlns:xlink="http://www.w3.org/1999/xlink" width="12px" height="12px" viewBox="39 415.5  12 12" xmlns="http://www.w3.org/2000/svg">
  <path d="M 45 415.5  C 48.36 415.5  51 418.14  51 421.5  C 51 424.86  48.36 427.5  45 427.5  C 41.64 427.5  39 424.86  39 421.5  C 39 418.14  41.64 415.5  45 415.5  Z " fill-rule="nonzero" fill="#f0f0f0" stroke="none" />
  <path d="M 45 416  C 48.08 416  50.5 418.42  50.5 421.5  C 50.5 424.58  48.08 427  45 427  C 41.92 427  39.5 424.58  39.5 421.5  C 39.5 418.42  41.92 416  45 416  Z " stroke-width="1" stroke="#797979" fill="none" />
  <path d="M 45 424.5  C 43.32 424.5  42 423.18  42 421.5  C 42 419.82  43.32 418.5  45 418.5  C 46.68 418.5  48 419.82  48 421.5  C 48 423.18  46.68 424.5  45 424.5  " fill-rule="nonzero" fill="#797979" stroke="none" />
</svg>