<?xml version="1.0" encoding="utf-8"?>
<svg version="1.1" xmlns:xlink="http://www.w3.org/1999/xlink" width="12px" height="12px" viewBox="39 365.5  12 12" xmlns="http://www.w3.org/2000/svg">
  <path d="M 45 365.5  C 48.36 365.5  51 368.14  51 371.5  C 51 374.86  48.36 377.5  45 377.5  C 41.64 377.5  39 374.86  39 371.5  C 39 368.14  41.64 365.5  45 365.5  Z " fill-rule="nonzero" fill="#ffffff" stroke="none" />
  <path d="M 45 366  C 48.08 366  50.5 368.42  50.5 371.5  C 50.5 374.58  48.08 377  45 377  C 41.92 377  39.5 374.58  39.5 371.5  C 39.5 368.42  41.92 366  45 366  Z " stroke-width="1" stroke="#797979" fill="none" />
  <path d="M 45 374.5  C 43.32 374.5  42 373.18  42 371.5  C 42 369.82  43.32 368.5  45 368.5  C 46.68 368.5  48 369.82  48 371.5  C 48 373.18  46.68 374.5  45 374.5  " fill-rule="nonzero" fill="#797979" stroke="none" />
</svg>