<?xml version="1.0" encoding="utf-8"?>
<svg version="1.1" xmlns:xlink="http://www.w3.org/1999/xlink" width="12px" height="12px" viewBox="39 465.5  12 12" xmlns="http://www.w3.org/2000/svg">
  <path d="M 45 465.5  C 48.36 465.5  51 468.14  51 471.5  C 51 474.86  48.36 477.5  45 477.5  C 41.64 477.5  39 474.86  39 471.5  C 39 468.14  41.64 465.5  45 465.5  Z " fill-rule="nonzero" fill="#f0f0f0" stroke="none" />
  <path d="M 45 466  C 48.08 466  50.5 468.42  50.5 471.5  C 50.5 474.58  48.08 477  45 477  C 41.92 477  39.5 474.58  39.5 471.5  C 39.5 468.42  41.92 466  45 466  Z " stroke-width="1" stroke="#797979" fill="none" />
  <path d="M 45 474.5  C 43.32 474.5  42 473.18  42 471.5  C 42 469.82  43.32 468.5  45 468.5  C 46.68 468.5  48 469.82  48 471.5  C 48 473.18  46.68 474.5  45 474.5  " fill-rule="nonzero" fill="#797979" stroke="none" />
</svg>