<?xml version="1.0" encoding="utf-8"?>
<svg version="1.1" xmlns:xlink="http://www.w3.org/1999/xlink" width="12px" height="12px" viewBox="35 490.5  12 12" xmlns="http://www.w3.org/2000/svg">
  <path d="M 41 490.5  C 44.36 490.5  47 493.14  47 496.5  C 47 499.86  44.36 502.5  41 502.5  C 37.64 502.5  35 499.86  35 496.5  C 35 493.14  37.64 490.5  41 490.5  Z " fill-rule="nonzero" fill="#f0f0f0" stroke="none" />
  <path d="M 41 491  C 44.08 491  46.5 493.42  46.5 496.5  C 46.5 499.58  44.08 502  41 502  C 37.92 502  35.5 499.58  35.5 496.5  C 35.5 493.42  37.92 491  41 491  Z " stroke-width="1" stroke="#797979" fill="none" />
  <path d="M 41 499.5  C 39.32 499.5  38 498.18  38 496.5  C 38 494.82  39.32 493.5  41 493.5  C 42.68 493.5  44 494.82  44 496.5  C 44 498.18  42.68 499.5  41 499.5  " fill-rule="nonzero" fill="#797979" stroke="none" />
</svg>