<?xml version="1.0" encoding="utf-8"?>
<svg version="1.1" xmlns:xlink="http://www.w3.org/1999/xlink" width="12px" height="12px" viewBox="39 340.5  12 12" xmlns="http://www.w3.org/2000/svg">
  <path d="M 45 340.5  C 48.36 340.5  51 343.14  51 346.5  C 51 349.86  48.36 352.5  45 352.5  C 41.64 352.5  39 349.86  39 346.5  C 39 343.14  41.64 340.5  45 340.5  Z " fill-rule="nonzero" fill="#ffffff" stroke="none" />
  <path d="M 45 341  C 48.08 341  50.5 343.42  50.5 346.5  C 50.5 349.58  48.08 352  45 352  C 41.92 352  39.5 349.58  39.5 346.5  C 39.5 343.42  41.92 341  45 341  Z " stroke-width="1" stroke="#797979" fill="none" />
  <path d="M 45 349.5  C 43.32 349.5  42 348.18  42 346.5  C 42 344.82  43.32 343.5  45 343.5  C 46.68 343.5  48 344.82  48 346.5  C 48 348.18  46.68 349.5  45 349.5  " fill-rule="nonzero" fill="#797979" stroke="none" />
</svg>