<?xml version="1.0" encoding="utf-8"?>
<svg version="1.1" xmlns:xlink="http://www.w3.org/1999/xlink" width="12px" height="12px" viewBox="35 516.5  12 12" xmlns="http://www.w3.org/2000/svg">
  <path d="M 41 516.5  C 44.36 516.5  47 519.14  47 522.5  C 47 525.86  44.36 528.5  41 528.5  C 37.64 528.5  35 525.86  35 522.5  C 35 519.14  37.64 516.5  41 516.5  Z " fill-rule="nonzero" fill="#f0f0f0" stroke="none" />
  <path d="M 41 517  C 44.08 517  46.5 519.42  46.5 522.5  C 46.5 525.58  44.08 528  41 528  C 37.92 528  35.5 525.58  35.5 522.5  C 35.5 519.42  37.92 517  41 517  Z " stroke-width="1" stroke="#797979" fill="none" />
  <path d="M 41 525.5  C 39.32 525.5  38 524.18  38 522.5  C 38 520.82  39.32 519.5  41 519.5  C 42.68 519.5  44 520.82  44 522.5  C 44 524.18  42.68 525.5  41 525.5  " fill-rule="nonzero" fill="#797979" stroke="none" />
</svg>