<?xml version="1.0" encoding="utf-8"?>
<svg version="1.1" xmlns:xlink="http://www.w3.org/1999/xlink" width="30px" height="10px" preserveAspectRatio="xMinYMid meet" viewBox="296 341  30 8" xmlns="http://www.w3.org/2000/svg">
  <path d="M 272 396.5  L 296 396.5  A 5 5 0 0 0 301.5 391.5 L 301.5 350  A 5 5 0 0 1 306.5 345.5 L 321 345.5  " stroke-width="1" stroke-dasharray="3,1" stroke="#d9001b" fill="none" stroke-opacity="0.8313725490196079" />
  <path d="M 274 393.5  A 3 3 0 0 0 271 396.5 A 3 3 0 0 0 274 399.5 A 3 3 0 0 0 277 396.5 A 3 3 0 0 0 274 393.5 Z M 320 351.8  L 326 345.5  L 320 339.2  L 320 351.8  Z " fill-rule="nonzero" fill="#d9001b" stroke="none" fill-opacity="0.8313725490196079" />
</svg>