<?xml version="1.0" encoding="utf-8"?>
<svg version="1.1" xmlns:xlink="http://www.w3.org/1999/xlink" width="19px" height="18px" preserveAspectRatio="xMinYMid meet" viewBox="160 285  19 16" xmlns="http://www.w3.org/2000/svg">
  <path d="M 123 345.5  L 135 345.5  A 5 5 0 0 0 140.5 340.5 L 140.5 298  A 5 5 0 0 1 145.5 293.5 L 168 293.5  " stroke-width="1" stroke-dasharray="3,1" stroke="#d9001b" fill="none" stroke-opacity="0.8313725490196079" />
  <path d="M 125 342.5  A 3 3 0 0 0 122 345.5 A 3 3 0 0 0 125 348.5 A 3 3 0 0 0 128 345.5 A 3 3 0 0 0 125 342.5 Z M 167 299.8  L 173 293.5  L 167 287.2  L 167 299.8  Z " fill-rule="nonzero" fill="#d9001b" stroke="none" fill-opacity="0.8313725490196079" />
</svg>