<?xml version="1.0" encoding="utf-8"?>
<svg version="1.1" xmlns:xlink="http://www.w3.org/1999/xlink" width="19px" height="18px" preserveAspectRatio="xMinYMid meet" viewBox="313 337  19 16" xmlns="http://www.w3.org/2000/svg">
  <path d="M 272 293.5  L 295 293.5  A 5 5 0 0 1 300.5 298.5 L 300.5 340  A 5 5 0 0 0 305.5 345.5 L 321 345.5  " stroke-width="1" stroke-dasharray="3,1" stroke="#d9001b" fill="none" stroke-opacity="0.8313725490196079" />
  <path d="M 274 290.5  A 3 3 0 0 0 271 293.5 A 3 3 0 0 0 274 296.5 A 3 3 0 0 0 277 293.5 A 3 3 0 0 0 274 290.5 Z M 320 351.8  L 326 345.5  L 320 339.2  L 320 351.8  Z " fill-rule="nonzero" fill="#d9001b" stroke="none" fill-opacity="0.8313725490196079" />
</svg>