<?xml version="1.0" encoding="utf-8"?>
<svg version="1.1" xmlns:xlink="http://www.w3.org/1999/xlink" width="18px" height="18px" preserveAspectRatio="xMinYMid meet" viewBox="140 875  18 16" xmlns="http://www.w3.org/2000/svg">
  <path d="M 147 883.5  L 165 883.5  A 5 5 0 0 0 170.5 878.5 L 170.5 784  A 5 5 0 0 1 175.5 779.5 L 205 779.5  " stroke-width="1" stroke-dasharray="3,1" stroke="#d9001b" fill="none" stroke-opacity="0.8313725490196079" />
  <path d="M 149 880.5  A 3 3 0 0 0 146 883.5 A 3 3 0 0 0 149 886.5 A 3 3 0 0 0 152 883.5 A 3 3 0 0 0 149 880.5 Z M 204 785.8  L 210 779.5  L 204 773.2  L 204 785.8  Z " fill-rule="nonzero" fill="#d9001b" stroke="none" fill-opacity="0.8313725490196079" />
</svg>