<?xml version="1.0" encoding="utf-8"?>
<svg version="1.1" xmlns:xlink="http://www.w3.org/1999/xlink" width="27px" height="10px" preserveAspectRatio="xMinYMid meet" viewBox="308 879  27 8" xmlns="http://www.w3.org/2000/svg">
  <path d="M 309 883.5  L 325 883.5  A 5 5 0 0 0 330.5 878.5 L 330.5 851  A 5 5 0 0 1 335.5 846.5 L 350 846.5  " stroke-width="1" stroke-dasharray="3,1" stroke="#d9001b" fill="none" stroke-opacity="0.8313725490196079" />
  <path d="M 311 880.5  A 3 3 0 0 0 308 883.5 A 3 3 0 0 0 311 886.5 A 3 3 0 0 0 314 883.5 A 3 3 0 0 0 311 880.5 Z M 349 852.8  L 355 846.5  L 349 840.2  L 349 852.8  Z " fill-rule="nonzero" fill="#d9001b" stroke="none" fill-opacity="0.8313725490196079" />
</svg>