<?xml version="1.0" encoding="utf-8"?>
<svg version="1.1" xmlns:xlink="http://www.w3.org/1999/xlink" width="10px" height="46px" preserveAspectRatio="xMidYMin meet" viewBox="326 878  8 46" xmlns="http://www.w3.org/2000/svg">
  <path d="M 309 883.5  L 325 883.5  A 5 5 0 0 1 330.5 888.5 L 330.5 914  A 5 5 0 0 0 335.5 919.5 L 350 919.5  " stroke-width="1" stroke-dasharray="3,1" stroke="#d9001b" fill="none" stroke-opacity="0.8313725490196079" />
  <path d="M 311 880.5  A 3 3 0 0 0 308 883.5 A 3 3 0 0 0 311 886.5 A 3 3 0 0 0 314 883.5 A 3 3 0 0 0 311 880.5 Z M 349 925.8  L 355 919.5  L 349 913.2  L 349 925.8  Z " fill-rule="nonzero" fill="#d9001b" stroke="none" fill-opacity="0.8313725490196079" />
</svg>