<?xml version="1.0" encoding="utf-8"?>
<svg version="1.1" xmlns:xlink="http://www.w3.org/1999/xlink" width="72px" height="10px" preserveAspectRatio="xMinYMid meet" viewBox="453 842  72 8" xmlns="http://www.w3.org/2000/svg">
  <path d="M 454 846.5  L 515 846.5  A 5 5 0 0 1 520.5 851.5 L 520.5 878  A 5 5 0 0 0 525.5 883.5 L 582 883.5  " stroke-width="1" stroke-dasharray="3,1" stroke="#d9001b" fill="none" stroke-opacity="0.8313725490196079" />
  <path d="M 456 843.5  A 3 3 0 0 0 453 846.5 A 3 3 0 0 0 456 849.5 A 3 3 0 0 0 459 846.5 A 3 3 0 0 0 456 843.5 Z M 581 889.8  L 587 883.5  L 581 877.2  L 581 889.8  Z " fill-rule="nonzero" fill="#d9001b" stroke="none" fill-opacity="0.8313725490196079" />
</svg>